<svg width="600" height="122" viewBox="0 0 600 122" fill="none" xmlns="http://www.w3.org/2000/svg">
<g clip-path="url(#clip0_419_9)">
<rect width="600" height="122" rx="10" fill="#121212"/>
<rect x="-11" y="-25" width="640" height="204" fill="url(#paint0_radial_419_9)" fill-opacity="0.2"/>
<path d="M276.08 75H268.775V62.2414C268.775 60.2286 268.37 58.8002 267.558 57.9561C266.746 57.112 265.285 56.69 263.175 56.69C260.968 56.69 259.458 57.1607 258.646 58.1022C257.867 59.0437 257.478 60.5695 257.478 62.6797H256.552L255.968 58.1022H257.38C257.575 56.7062 257.997 55.4076 258.646 54.2064C259.328 53.0052 260.318 52.0313 261.617 51.2846C262.948 50.5055 264.652 50.1159 266.73 50.1159C268.84 50.1159 270.577 50.5379 271.941 51.382C273.337 52.2261 274.375 53.3786 275.057 54.8395C275.739 56.3004 276.08 57.9561 276.08 59.8066V75ZM238.875 75H231.571V50.6029H238.34V58.1996L238.875 58.4431V75ZM257.478 75H250.173V62.2414C250.173 60.2286 249.767 58.8002 248.956 57.9561C248.144 57.112 246.683 56.69 244.573 56.69C242.333 56.69 240.823 57.1607 240.044 58.1022C239.265 59.0437 238.875 60.5695 238.875 62.6797H237.95L237.415 58.0048H238.729C238.957 56.6413 239.395 55.3752 240.044 54.2064C240.693 53.0052 241.651 52.0313 242.917 51.2846C244.183 50.5055 245.839 50.1159 247.884 50.1159C249.995 50.1159 251.715 50.5542 253.046 51.4307C254.41 52.3073 255.416 53.476 256.065 54.9369C256.715 56.3978 257.039 58.021 257.039 59.8066H257.478V75ZM292.794 75.487C290.035 75.487 287.6 74.9675 285.49 73.9287C283.412 72.8898 281.789 71.4289 280.62 69.546C279.451 67.6305 278.867 65.3905 278.867 62.8258C278.867 60.2286 279.451 57.9886 280.62 56.1056C281.789 54.1902 283.412 52.7131 285.49 51.6742C287.6 50.6353 290.035 50.1159 292.794 50.1159C295.586 50.1159 298.021 50.6353 300.099 51.6742C302.177 52.7131 303.8 54.1902 304.969 56.1056C306.137 57.9886 306.722 60.2286 306.722 62.8258C306.722 65.3905 306.137 67.6305 304.969 69.546C303.8 71.4289 302.177 72.8898 300.099 73.9287C298.021 74.9675 295.586 75.487 292.794 75.487ZM292.794 69.0103C295.262 69.0103 296.982 68.5233 297.956 67.5494C298.963 66.543 299.466 64.9684 299.466 62.8258C299.466 60.6507 298.963 59.0599 297.956 58.0535C296.982 57.0471 295.262 56.5439 292.794 56.5439C290.327 56.5439 288.59 57.0471 287.584 58.0535C286.61 59.0599 286.123 60.6507 286.123 62.8258C286.123 64.9684 286.61 66.543 287.584 67.5494C288.59 68.5233 290.327 69.0103 292.794 69.0103ZM322.025 75.487C317.934 75.487 314.785 74.7241 312.578 73.1982C310.37 71.6399 309.266 69.4486 309.266 66.6241V66.478H316.571V66.9163C316.571 68.0201 316.961 68.7668 317.74 69.1564C318.551 69.5135 319.996 69.692 322.074 69.692C324.022 69.692 325.304 69.5297 325.921 69.2051C326.57 68.848 326.895 68.3123 326.895 67.5981C326.895 66.9163 326.651 66.4456 326.164 66.1859C325.677 65.8937 324.72 65.6502 323.291 65.4554L316.425 64.6276C313.99 64.3678 312.107 63.6861 310.776 62.5823C309.477 61.4785 308.828 59.8877 308.828 57.81C308.828 56.3816 309.25 55.0992 310.094 53.963C310.938 52.7942 312.237 51.869 313.99 51.1872C315.776 50.473 318.064 50.1159 320.856 50.1159C323.518 50.1159 325.775 50.4568 327.625 51.1385C329.508 51.7878 330.937 52.778 331.91 54.109C332.884 55.4401 333.371 57.0958 333.371 59.0761V59.2222H326.067V58.93C326.067 58.2483 325.921 57.6964 325.629 57.2743C325.369 56.8198 324.833 56.479 324.022 56.2517C323.242 56.0245 322.106 55.9108 320.613 55.9108C318.795 55.9108 317.577 56.0894 316.961 56.4465C316.344 56.7711 316.035 57.323 316.035 58.1022C316.035 58.719 316.279 59.1897 316.766 59.5144C317.285 59.8066 318.34 60.0663 319.931 60.2935L325.142 60.9266C328.388 61.2837 330.693 62.0304 332.057 63.1667C333.42 64.3029 334.102 65.8775 334.102 67.8903C334.102 69.4161 333.615 70.7471 332.641 71.8834C331.667 73.0197 330.287 73.9124 328.502 74.5617C326.716 75.1786 324.557 75.487 322.025 75.487ZM389.522 75.487C386.763 75.487 384.344 74.9675 382.266 73.9287C380.189 72.8898 378.582 71.4289 377.445 69.546C376.342 67.6305 375.79 65.3905 375.79 62.8258C375.79 60.2286 376.342 57.9886 377.445 56.1056C378.582 54.1902 380.189 52.7131 382.266 51.6742C384.344 50.6353 386.763 50.1159 389.522 50.1159C392.152 50.1159 394.457 50.5542 396.437 51.4307C398.418 52.3073 399.96 53.5409 401.063 55.1317C402.167 56.69 402.719 58.5242 402.719 60.6344V61.3162H395.463V60.9266C395.463 59.3683 394.928 58.2807 393.856 57.6639C392.785 57.0146 391.292 56.69 389.376 56.69C387.201 56.69 385.594 57.1445 384.555 58.0535C383.549 58.9625 383.046 60.5533 383.046 62.8258C383.046 65.0334 383.549 66.6079 384.555 67.5494C385.594 68.4584 387.201 68.9129 389.376 68.9129C391.292 68.9129 392.785 68.6045 393.856 67.9876C394.928 67.3384 395.463 66.2346 395.463 64.6763V64.2867H402.719V64.9684C402.719 67.0786 402.167 68.9291 401.063 70.5199C399.96 72.0782 398.418 73.2956 396.437 74.1722C394.457 75.0487 392.152 75.487 389.522 75.487ZM418.864 75.487C416.105 75.487 413.67 74.9675 411.56 73.9287C409.482 72.8898 407.859 71.4289 406.69 69.546C405.521 67.6305 404.937 65.3905 404.937 62.8258C404.937 60.2286 405.521 57.9886 406.69 56.1056C407.859 54.1902 409.482 52.7131 411.56 51.6742C413.67 50.6353 416.105 50.1159 418.864 50.1159C421.656 50.1159 424.091 50.6353 426.169 51.6742C428.246 52.7131 429.87 54.1902 431.038 56.1056C432.207 57.9886 432.791 60.2286 432.791 62.8258C432.791 65.3905 432.207 67.6305 431.038 69.546C429.87 71.4289 428.246 72.8898 426.169 73.9287C424.091 74.9675 421.656 75.487 418.864 75.487ZM418.864 69.0103C421.331 69.0103 423.052 68.5233 424.026 67.5494C425.032 66.543 425.536 64.9684 425.536 62.8258C425.536 60.6507 425.032 59.0599 424.026 58.0535C423.052 57.0471 421.331 56.5439 418.864 56.5439C416.397 56.5439 414.66 57.0471 413.653 58.0535C412.68 59.0599 412.193 60.6507 412.193 62.8258C412.193 64.9684 412.68 66.543 413.653 67.5494C414.66 68.5233 416.397 69.0103 418.864 69.0103Z" fill="white"/>
<path d="M361.69 75H354.872V69.2051L354.483 69.1077V60.5857C354.483 58.995 354.077 57.9236 353.265 57.3717C352.486 56.8198 351.122 56.5439 349.175 56.5439C347.324 56.5439 345.993 56.8198 345.181 57.3717C344.37 57.9236 343.964 58.8976 343.964 60.2935V60.4883H336.611V60.3422C336.611 58.3294 337.146 56.5601 338.218 55.0343C339.289 53.476 340.799 52.2748 342.747 51.4307C344.727 50.5542 347.048 50.1159 349.71 50.1159C352.437 50.1159 354.677 50.5542 356.43 51.4307C358.216 52.3073 359.531 53.5409 360.375 55.1317C361.251 56.69 361.69 58.5405 361.69 60.6831V75ZM344.548 75.487C341.919 75.487 339.857 74.9026 338.364 73.7339C336.871 72.5652 336.124 70.9744 336.124 68.9616C336.124 67.7279 336.416 66.6728 337 65.7963C337.585 64.9197 338.461 64.2218 339.63 63.7023C340.799 63.1504 342.26 62.7771 344.013 62.5823L354.97 61.4623V65.6502L346.009 66.6728C345.133 66.7378 344.483 66.9163 344.061 67.2085C343.672 67.4682 343.477 67.8903 343.477 68.4746C343.477 69.1239 343.737 69.5946 344.256 69.8868C344.776 70.179 345.571 70.3251 346.642 70.3251C348.395 70.3251 349.84 70.1628 350.976 69.8381C352.113 69.5135 352.973 68.9941 353.557 68.2798C354.174 67.5331 354.483 66.543 354.483 65.3093L355.164 65.2606V69.3999H354.483C353.931 71.2828 352.811 72.7762 351.122 73.88C349.467 74.9513 347.275 75.487 344.548 75.487ZM372.697 75H365.392V50.6029H372.697V75ZM372.697 48.1193H365.392V42.3731H372.697V48.1193Z" fill="url(#paint1_linear_419_9)"/>
<path d="M207.513 59.6134C208.459 60.1662 208.459 61.5339 207.513 62.0867L173.062 82.2127C172.108 82.7705 170.908 82.0818 170.908 80.976L170.908 40.7241C170.908 39.6183 172.108 38.9296 173.062 39.4874L207.513 59.6134Z" fill="url(#paint2_linear_419_9)"/>
<path d="M177.138 62.0868C176.191 61.5339 176.191 60.1662 177.138 59.6134L211.588 39.4874C212.543 38.9296 213.743 39.6183 213.743 40.7241L213.743 80.976C213.743 82.0819 212.543 82.7705 211.588 82.2127L177.138 62.0868Z" fill="url(#paint3_radial_419_9)"/>
<path d="M207.512 59.6129C208.459 60.1658 208.459 61.5336 207.512 62.0865L192.325 70.9586L177.137 62.0865C176.191 61.5336 176.191 60.1658 177.137 59.6129L192.325 50.7408L207.512 59.6129Z" fill="#BD38B4"/>
</g>
<rect x="0.5" y="0.5" width="599" height="121" rx="9.5" stroke="#313131"/>
<defs>
<radialGradient id="paint0_radial_419_9" cx="0" cy="0" r="1" gradientUnits="userSpaceOnUse" gradientTransform="translate(302.5 -15.7797) scale(454.5 167.396)">
<stop stop-color="white"/>
<stop offset="1" stop-opacity="0"/>
</radialGradient>
<linearGradient id="paint1_linear_419_9" x1="339.464" y1="60.653" x2="372.091" y2="60.653" gradientUnits="userSpaceOnUse">
<stop stop-color="#1A99C3"/>
<stop offset="1" stop-color="#BD38B4"/>
</linearGradient>
<linearGradient id="paint2_linear_419_9" x1="173.603" y1="60.8501" x2="201.687" y2="60.8501" gradientUnits="userSpaceOnUse">
<stop stop-color="#F04B23"/>
<stop offset="1" stop-color="#BD38B4"/>
</linearGradient>
<radialGradient id="paint3_radial_419_9" cx="0" cy="0" r="1" gradientUnits="userSpaceOnUse" gradientTransform="translate(194.519 60.7962) scale(19.3213 19.5504)">
<stop stop-color="#BD38B4"/>
<stop offset="1" stop-color="#1A99C3"/>
</radialGradient>
<clipPath id="clip0_419_9">
<rect width="600" height="122" rx="10" fill="white"/>
</clipPath>
</defs>
</svg>
