<svg width="462" height="515" viewBox="0 0 462 515" fill="none" xmlns="http://www.w3.org/2000/svg">
<rect x="44" y="103" width="371" height="75" fill="url(#paint0_linear_431_3)" stroke="white" stroke-width="2"/>
<path fill-rule="evenodd" clip-rule="evenodd" d="M179.869 123.102C180.372 122.812 181 123.174 181 123.754V156.633C181 157.214 180.372 157.577 179.869 157.287L160.461 146.081L164 148.124L176.604 140.847C177.107 140.557 177.107 139.832 176.604 139.542L164 132.264L179.869 123.102Z" fill="white"/>
<path fill-rule="evenodd" clip-rule="evenodd" d="M147 123.755C147 123.174 147.628 122.812 148.131 123.102L176.604 139.542C176.636 139.56 176.665 139.579 176.692 139.6C176.665 139.579 176.636 139.56 176.604 139.542L164 132.264L151.396 139.542C150.893 139.832 150.893 140.557 151.396 140.847L164 148.124L148.131 157.286C147.628 157.576 147 157.214 147 156.633V123.755ZM176.928 140.474C176.916 140.504 176.903 140.533 176.888 140.561L176.834 140.643C176.873 140.591 176.904 140.534 176.928 140.474Z" fill="white"/>
<path d="M195.08 147V132.4H198.34L199.98 138.68L201.64 132.4H204.92V147H202.58V140.86C202.58 140.02 202.6 139.153 202.64 138.26C202.693 137.353 202.753 136.48 202.82 135.64C202.887 134.787 202.96 134.013 203.04 133.32L200.98 140.66H198.92L196.94 133.5C197.02 134.113 197.093 134.807 197.16 135.58C197.24 136.353 197.3 137.187 197.34 138.08C197.393 138.973 197.42 139.9 197.42 140.86V147H195.08ZM211.992 147.18C211.059 147.18 210.246 147 209.552 146.64C208.859 146.28 208.326 145.773 207.952 145.12C207.579 144.453 207.392 143.673 207.392 142.78V140.22C207.392 139.313 207.579 138.533 207.952 137.88C208.326 137.227 208.859 136.72 209.552 136.36C210.246 136 211.059 135.82 211.992 135.82C212.939 135.82 213.752 136 214.432 136.36C215.126 136.72 215.659 137.227 216.032 137.88C216.406 138.533 216.592 139.313 216.592 140.22V142.78C216.592 143.673 216.406 144.453 216.032 145.12C215.659 145.773 215.126 146.28 214.432 146.64C213.752 147 212.939 147.18 211.992 147.18ZM211.992 145C212.659 145 213.172 144.82 213.532 144.46C213.906 144.087 214.092 143.553 214.092 142.86V140.14C214.092 139.433 213.906 138.9 213.532 138.54C213.172 138.18 212.659 138 211.992 138C211.339 138 210.826 138.18 210.452 138.54C210.079 138.9 209.892 139.433 209.892 140.14V142.86C209.892 143.553 210.079 144.087 210.452 144.46C210.826 144.82 211.339 145 211.992 145ZM223.524 147.18C222.658 147.18 221.904 147.047 221.264 146.78C220.638 146.513 220.151 146.133 219.804 145.64C219.458 145.147 219.284 144.56 219.284 143.88H221.744C221.744 144.307 221.898 144.633 222.204 144.86C222.524 145.087 222.964 145.2 223.524 145.2H224.404C225.004 145.2 225.464 145.087 225.784 144.86C226.118 144.62 226.284 144.293 226.284 143.88C226.284 143.48 226.171 143.18 225.944 142.98C225.718 142.78 225.371 142.653 224.904 142.6L222.164 142.24C221.284 142.133 220.604 141.793 220.124 141.22C219.658 140.647 219.424 139.92 219.424 139.04C219.424 138 219.771 137.207 220.464 136.66C221.158 136.1 222.158 135.82 223.464 135.82H224.384C225.611 135.82 226.598 136.1 227.344 136.66C228.091 137.22 228.478 137.967 228.504 138.9H226.024C226.011 138.553 225.858 138.28 225.564 138.08C225.271 137.867 224.878 137.76 224.384 137.76H223.464C222.931 137.76 222.524 137.873 222.244 138.1C221.964 138.313 221.824 138.607 221.824 138.98C221.824 139.313 221.924 139.56 222.124 139.72C222.338 139.867 222.644 139.967 223.044 140.02L225.624 140.38C226.638 140.513 227.398 140.88 227.904 141.48C228.424 142.067 228.684 142.853 228.684 143.84C228.684 144.907 228.318 145.733 227.584 146.32C226.864 146.893 225.804 147.18 224.404 147.18H223.524ZM234.757 147.2C233.637 147.2 232.75 146.887 232.097 146.26C231.457 145.62 231.137 144.787 231.137 143.76C231.137 143.04 231.303 142.42 231.637 141.9C231.97 141.38 232.443 140.98 233.057 140.7C233.683 140.407 234.417 140.26 235.257 140.26H237.937V139.48C237.937 138.947 237.77 138.54 237.437 138.26C237.117 137.967 236.637 137.82 235.997 137.82C235.41 137.82 234.937 137.933 234.577 138.16C234.23 138.387 234.043 138.707 234.017 139.12H231.617C231.67 138.12 232.083 137.32 232.857 136.72C233.643 136.107 234.697 135.8 236.017 135.8C237.417 135.8 238.503 136.127 239.277 136.78C240.05 137.433 240.437 138.353 240.437 139.54V147H237.997V144.9H237.597L238.037 144.54C238.037 145.087 237.903 145.56 237.637 145.96C237.37 146.347 236.99 146.653 236.497 146.88C236.003 147.093 235.423 147.2 234.757 147.2ZM235.557 145.16C236.29 145.16 236.87 144.98 237.297 144.62C237.723 144.26 237.937 143.78 237.937 143.18V141.88H235.377C234.83 141.88 234.397 142.033 234.077 142.34C233.757 142.633 233.597 143.027 233.597 143.52C233.597 144.013 233.763 144.413 234.097 144.72C234.443 145.013 234.93 145.16 235.557 145.16ZM243.489 147V144.74H247.249V138.26H243.889V136H249.749V144.74H253.129V147H243.489ZM248.329 134.16C247.822 134.16 247.422 134.033 247.129 133.78C246.835 133.513 246.689 133.16 246.689 132.72C246.689 132.28 246.835 131.933 247.129 131.68C247.422 131.413 247.822 131.28 248.329 131.28C248.835 131.28 249.235 131.413 249.529 131.68C249.822 131.933 249.969 132.28 249.969 132.72C249.969 133.16 249.822 133.513 249.529 133.78C249.235 134.033 248.835 134.16 248.329 134.16ZM260.141 147.2C259.194 147.2 258.368 147.027 257.661 146.68C256.968 146.32 256.428 145.82 256.041 145.18C255.654 144.527 255.461 143.76 255.461 142.88V140.12C255.461 139.227 255.654 138.46 256.041 137.82C256.428 137.18 256.968 136.687 257.661 136.34C258.368 135.98 259.194 135.8 260.141 135.8C261.514 135.8 262.614 136.16 263.441 136.88C264.268 137.587 264.708 138.553 264.761 139.78H262.301C262.261 139.207 262.048 138.767 261.661 138.46C261.274 138.14 260.768 137.98 260.141 137.98C259.461 137.98 258.928 138.167 258.541 138.54C258.154 138.9 257.961 139.42 257.961 140.1V142.88C257.961 143.56 258.154 144.087 258.541 144.46C258.928 144.833 259.461 145.02 260.141 145.02C260.768 145.02 261.274 144.867 261.661 144.56C262.048 144.24 262.261 143.793 262.301 143.22H264.761C264.708 144.447 264.268 145.42 263.441 146.14C262.614 146.847 261.514 147.2 260.141 147.2ZM271.953 147.18C271.02 147.18 270.206 147 269.513 146.64C268.82 146.28 268.286 145.773 267.913 145.12C267.54 144.453 267.353 143.673 267.353 142.78V140.22C267.353 139.313 267.54 138.533 267.913 137.88C268.286 137.227 268.82 136.72 269.513 136.36C270.206 136 271.02 135.82 271.953 135.82C272.9 135.82 273.713 136 274.393 136.36C275.086 136.72 275.62 137.227 275.993 137.88C276.366 138.533 276.553 139.313 276.553 140.22V142.78C276.553 143.673 276.366 144.453 275.993 145.12C275.62 145.773 275.086 146.28 274.393 146.64C273.713 147 272.9 147.18 271.953 147.18ZM271.953 145C272.62 145 273.133 144.82 273.493 144.46C273.866 144.087 274.053 143.553 274.053 142.86V140.14C274.053 139.433 273.866 138.9 273.493 138.54C273.133 138.18 272.62 138 271.953 138C271.3 138 270.786 138.18 270.413 138.54C270.04 138.9 269.853 139.433 269.853 140.14V142.86C269.853 143.553 270.04 144.087 270.413 144.46C270.786 144.82 271.3 145 271.953 145ZM295.998 147.2C295.011 147.2 294.144 147.027 293.398 146.68C292.664 146.333 292.091 145.833 291.678 145.18C291.278 144.527 291.078 143.76 291.078 142.88H293.538C293.538 143.533 293.758 144.053 294.198 144.44C294.651 144.827 295.251 145.02 295.998 145.02C296.718 145.02 297.284 144.827 297.698 144.44C298.124 144.053 298.338 143.547 298.338 142.92C298.338 142.44 298.204 142.013 297.938 141.64C297.671 141.267 297.278 141.02 296.758 140.9L294.798 140.4C293.744 140.133 292.911 139.633 292.298 138.9C291.684 138.167 291.378 137.293 291.378 136.28C291.378 135.453 291.558 134.733 291.918 134.12C292.291 133.507 292.811 133.033 293.478 132.7C294.158 132.367 294.951 132.2 295.858 132.2C296.778 132.2 297.578 132.367 298.258 132.7C298.938 133.033 299.464 133.507 299.838 134.12C300.224 134.72 300.418 135.427 300.418 136.24H297.978C297.978 135.667 297.784 135.213 297.398 134.88C297.011 134.533 296.498 134.36 295.858 134.36C295.231 134.36 294.731 134.533 294.358 134.88C293.998 135.213 293.818 135.653 293.818 136.2C293.818 136.653 293.944 137.027 294.198 137.32C294.464 137.613 294.831 137.827 295.298 137.96L297.318 138.46C298.398 138.727 299.244 139.26 299.858 140.06C300.484 140.86 300.798 141.813 300.798 142.92C300.798 143.787 300.598 144.54 300.198 145.18C299.811 145.82 299.258 146.32 298.538 146.68C297.818 147.027 296.971 147.2 295.998 147.2ZM303.43 147V132.4H307.77C308.756 132.4 309.61 132.587 310.33 132.96C311.063 133.333 311.63 133.86 312.03 134.54C312.43 135.22 312.63 136.027 312.63 136.96V142.42C312.63 143.34 312.43 144.147 312.03 144.84C311.63 145.52 311.063 146.053 310.33 146.44C309.61 146.813 308.756 147 307.77 147H303.43ZM305.93 144.76H307.77C308.49 144.76 309.063 144.547 309.49 144.12C309.916 143.693 310.13 143.127 310.13 142.42V136.96C310.13 136.253 309.916 135.693 309.49 135.28C309.063 134.853 308.49 134.64 307.77 134.64H305.93V144.76ZM315.442 147V132.4H317.942V138.36H319.662L322.442 132.4H325.142L321.862 139.36L325.302 147H322.522L319.642 140.54H317.942V147H315.442Z" fill="white"/>
<rect x="44" y="251" width="371" height="75" fill="url(#paint1_linear_431_3)" stroke="white" stroke-width="2"/>
<path fill-rule="evenodd" clip-rule="evenodd" d="M179.869 270.102C180.372 269.812 181 270.175 181 270.755V303.634C181 304.214 180.372 304.577 179.869 304.287L151.396 287.847L164 295.123L176.604 287.847C177.107 287.557 177.107 286.831 176.604 286.541L164 279.264L179.869 270.102Z" fill="white"/>
<path fill-rule="evenodd" clip-rule="evenodd" d="M147 270.755C147 270.175 147.628 269.812 148.131 270.102L176.604 286.541C176.636 286.559 176.665 286.58 176.692 286.601C176.665 286.58 176.636 286.56 176.604 286.541L164 279.264L151.396 286.541C150.893 286.831 150.893 287.557 151.396 287.847L164 295.123L176.604 287.847C176.636 287.829 176.665 287.81 176.692 287.788C176.665 287.81 176.636 287.829 176.604 287.847L148.131 304.287C147.628 304.577 147 304.214 147 303.634V270.755ZM176.887 287.562H176.888H176.887Z" fill="white"/>
<path d="M217.971 287V276H220.051V277.6H220.471L220.091 277.88C220.091 277.267 220.258 276.767 220.591 276.38C220.925 275.993 221.371 275.8 221.931 275.8C222.531 275.8 223.018 276.033 223.391 276.5C223.778 276.953 223.971 277.547 223.971 278.28L223.491 277.56H224.171L223.851 277.88C223.865 277.24 224.045 276.733 224.391 276.36C224.738 275.987 225.198 275.8 225.771 275.8C226.451 275.8 227.005 276.06 227.431 276.58C227.871 277.1 228.091 277.78 228.091 278.62V287H225.891V278.8C225.891 278.44 225.805 278.16 225.631 277.96C225.471 277.747 225.238 277.64 224.931 277.64C224.638 277.64 224.411 277.747 224.251 277.96C224.105 278.16 224.031 278.44 224.031 278.8V287H222.031V278.8C222.031 278.44 221.951 278.16 221.791 277.96C221.645 277.747 221.425 277.64 221.131 277.64C220.825 277.64 220.585 277.747 220.411 277.96C220.251 278.16 220.171 278.44 220.171 278.8V287H217.971ZM235.023 287.18C234.09 287.18 233.277 287 232.583 286.64C231.89 286.28 231.357 285.773 230.983 285.12C230.61 284.453 230.423 283.673 230.423 282.78V280.22C230.423 279.313 230.61 278.533 230.983 277.88C231.357 277.227 231.89 276.72 232.583 276.36C233.277 276 234.09 275.82 235.023 275.82C235.97 275.82 236.783 276 237.463 276.36C238.157 276.72 238.69 277.227 239.063 277.88C239.437 278.533 239.623 279.313 239.623 280.22V282.78C239.623 283.673 239.437 284.453 239.063 285.12C238.69 285.773 238.157 286.28 237.463 286.64C236.783 287 235.97 287.18 235.023 287.18ZM235.023 285C235.69 285 236.203 284.82 236.563 284.46C236.937 284.087 237.123 283.553 237.123 282.86V280.14C237.123 279.433 236.937 278.9 236.563 278.54C236.203 278.18 235.69 278 235.023 278C234.37 278 233.857 278.18 233.483 278.54C233.11 278.9 232.923 279.433 232.923 280.14V282.86C232.923 283.553 233.11 284.087 233.483 284.46C233.857 284.82 234.37 285 235.023 285ZM246.556 287.18C245.689 287.18 244.936 287.047 244.296 286.78C243.669 286.513 243.182 286.133 242.836 285.64C242.489 285.147 242.316 284.56 242.316 283.88H244.776C244.776 284.307 244.929 284.633 245.236 284.86C245.556 285.087 245.996 285.2 246.556 285.2H247.436C248.036 285.2 248.496 285.087 248.816 284.86C249.149 284.62 249.316 284.293 249.316 283.88C249.316 283.48 249.202 283.18 248.976 282.98C248.749 282.78 248.402 282.653 247.936 282.6L245.196 282.24C244.316 282.133 243.636 281.793 243.156 281.22C242.689 280.647 242.456 279.92 242.456 279.04C242.456 278 242.802 277.207 243.496 276.66C244.189 276.1 245.189 275.82 246.496 275.82H247.416C248.642 275.82 249.629 276.1 250.376 276.66C251.122 277.22 251.509 277.967 251.536 278.9H249.056C249.042 278.553 248.889 278.28 248.596 278.08C248.302 277.867 247.909 277.76 247.416 277.76H246.496C245.962 277.76 245.556 277.873 245.276 278.1C244.996 278.313 244.856 278.607 244.856 278.98C244.856 279.313 244.956 279.56 245.156 279.72C245.369 279.867 245.676 279.967 246.076 280.02L248.656 280.38C249.669 280.513 250.429 280.88 250.936 281.48C251.456 282.067 251.716 282.853 251.716 283.84C251.716 284.907 251.349 285.733 250.616 286.32C249.896 286.893 248.836 287.18 247.436 287.18H246.556ZM257.788 287.2C256.668 287.2 255.781 286.887 255.128 286.26C254.488 285.62 254.168 284.787 254.168 283.76C254.168 283.04 254.334 282.42 254.668 281.9C255.001 281.38 255.474 280.98 256.088 280.7C256.714 280.407 257.448 280.26 258.288 280.26H260.968V279.48C260.968 278.947 260.801 278.54 260.468 278.26C260.148 277.967 259.668 277.82 259.028 277.82C258.441 277.82 257.968 277.933 257.608 278.16C257.261 278.387 257.074 278.707 257.048 279.12H254.648C254.701 278.12 255.114 277.32 255.888 276.72C256.674 276.107 257.728 275.8 259.048 275.8C260.448 275.8 261.534 276.127 262.308 276.78C263.081 277.433 263.468 278.353 263.468 279.54V287H261.028V284.9H260.628L261.068 284.54C261.068 285.087 260.934 285.56 260.668 285.96C260.401 286.347 260.021 286.653 259.528 286.88C259.034 287.093 258.454 287.2 257.788 287.2ZM258.588 285.16C259.321 285.16 259.901 284.98 260.328 284.62C260.754 284.26 260.968 283.78 260.968 283.18V281.88H258.408C257.861 281.88 257.428 282.033 257.108 282.34C256.788 282.633 256.628 283.027 256.628 283.52C256.628 284.013 256.794 284.413 257.128 284.72C257.474 285.013 257.961 285.16 258.588 285.16ZM266.52 287V284.74H270.28V278.26H266.92V276H272.78V284.74H276.16V287H266.52ZM271.36 274.16C270.853 274.16 270.453 274.033 270.16 273.78C269.867 273.513 269.72 273.16 269.72 272.72C269.72 272.28 269.867 271.933 270.16 271.68C270.453 271.413 270.853 271.28 271.36 271.28C271.867 271.28 272.267 271.413 272.56 271.68C272.853 271.933 273 272.28 273 272.72C273 273.16 272.853 273.513 272.56 273.78C272.267 274.033 271.867 274.16 271.36 274.16ZM283.172 287.2C282.226 287.2 281.399 287.027 280.692 286.68C279.999 286.32 279.459 285.82 279.072 285.18C278.686 284.527 278.492 283.76 278.492 282.88V280.12C278.492 279.227 278.686 278.46 279.072 277.82C279.459 277.18 279.999 276.687 280.692 276.34C281.399 275.98 282.226 275.8 283.172 275.8C284.546 275.8 285.646 276.16 286.472 276.88C287.299 277.587 287.739 278.553 287.792 279.78H285.332C285.292 279.207 285.079 278.767 284.692 278.46C284.306 278.14 283.799 277.98 283.172 277.98C282.492 277.98 281.959 278.167 281.572 278.54C281.186 278.9 280.992 279.42 280.992 280.1V282.88C280.992 283.56 281.186 284.087 281.572 284.46C281.959 284.833 282.492 285.02 283.172 285.02C283.799 285.02 284.306 284.867 284.692 284.56C285.079 284.24 285.292 283.793 285.332 283.22H287.792C287.739 284.447 287.299 285.42 286.472 286.14C285.646 286.847 284.546 287.2 283.172 287.2ZM294.984 287.18C294.051 287.18 293.238 287 292.544 286.64C291.851 286.28 291.318 285.773 290.944 285.12C290.571 284.453 290.384 283.673 290.384 282.78V280.22C290.384 279.313 290.571 278.533 290.944 277.88C291.318 277.227 291.851 276.72 292.544 276.36C293.238 276 294.051 275.82 294.984 275.82C295.931 275.82 296.744 276 297.424 276.36C298.118 276.72 298.651 277.227 299.024 277.88C299.398 278.533 299.584 279.313 299.584 280.22V282.78C299.584 283.673 299.398 284.453 299.024 285.12C298.651 285.773 298.118 286.28 297.424 286.64C296.744 287 295.931 287.18 294.984 287.18ZM294.984 285C295.651 285 296.164 284.82 296.524 284.46C296.898 284.087 297.084 283.553 297.084 282.86V280.14C297.084 279.433 296.898 278.9 296.524 278.54C296.164 278.18 295.651 278 294.984 278C294.331 278 293.818 278.18 293.444 278.54C293.071 278.9 292.884 279.433 292.884 280.14V282.86C292.884 283.553 293.071 284.087 293.444 284.46C293.818 284.82 294.331 285 294.984 285ZM305.977 287.2C304.91 287.2 304.043 286.82 303.377 286.06C302.723 285.3 302.397 284.28 302.397 283V280.02C302.397 278.727 302.723 277.7 303.377 276.94C304.043 276.18 304.91 275.8 305.977 275.8C306.963 275.8 307.743 276.113 308.317 276.74C308.89 277.353 309.177 278.193 309.177 279.26L308.437 278.22H309.017L308.937 275.48V272.4H311.437V287H308.997V284.78H308.437L309.157 283.74C309.157 284.807 308.87 285.653 308.297 286.28C307.737 286.893 306.963 287.2 305.977 287.2ZM306.917 285.04C307.557 285.04 308.05 284.847 308.397 284.46C308.757 284.073 308.937 283.527 308.937 282.82V280.18C308.937 279.473 308.757 278.927 308.397 278.54C308.05 278.153 307.557 277.96 306.917 277.96C306.277 277.96 305.777 278.133 305.417 278.48C305.07 278.827 304.897 279.36 304.897 280.08V282.92C304.897 283.627 305.07 284.16 305.417 284.52C305.777 284.867 306.277 285.04 306.917 285.04ZM232.523 305.43V293.21H235.825V294.367H233.81V304.273H235.825V305.43H232.523ZM238.875 304V294.51H241.618C242.207 294.51 242.71 294.61 243.126 294.809C243.55 295 243.875 295.281 244.101 295.654C244.335 296.018 244.452 296.456 244.452 296.967C244.452 297.288 244.382 297.591 244.244 297.877C244.105 298.163 243.91 298.406 243.659 298.605C243.407 298.804 243.121 298.934 242.801 298.995V299.034C243.165 299.077 243.485 299.207 243.763 299.424C244.049 299.641 244.27 299.918 244.426 300.256C244.59 300.585 244.673 300.949 244.673 301.348C244.673 301.885 244.556 302.353 244.322 302.752C244.088 303.151 243.754 303.458 243.321 303.675C242.896 303.892 242.389 304 241.8 304H238.875ZM240.136 302.869H241.683C242.211 302.869 242.627 302.73 242.931 302.453C243.234 302.167 243.386 301.781 243.386 301.296C243.386 300.793 243.234 300.386 242.931 300.074C242.627 299.762 242.211 299.606 241.683 299.606H240.136V302.869ZM240.136 298.514H241.605C242.09 298.514 242.471 298.388 242.749 298.137C243.026 297.877 243.165 297.526 243.165 297.084C243.165 296.633 243.026 296.282 242.749 296.031C242.48 295.771 242.103 295.641 241.618 295.641H240.136V298.514ZM248.75 304.13C248.013 304.13 247.428 303.926 246.995 303.519C246.57 303.103 246.358 302.561 246.358 301.894C246.358 301.443 246.457 301.053 246.657 300.724C246.865 300.395 247.151 300.139 247.515 299.957C247.887 299.766 248.312 299.671 248.789 299.671H250.882V299.125C250.882 298.683 250.76 298.354 250.518 298.137C250.275 297.92 249.911 297.812 249.426 297.812C248.992 297.812 248.641 297.894 248.373 298.059C248.113 298.215 247.974 298.436 247.957 298.722H246.683C246.726 298.141 246.99 297.665 247.476 297.292C247.961 296.911 248.611 296.72 249.426 296.72C250.31 296.72 250.986 296.932 251.454 297.357C251.93 297.773 252.169 298.354 252.169 299.099V304H250.895V302.687H250.687L250.895 302.427C250.895 302.774 250.808 303.077 250.635 303.337C250.461 303.588 250.214 303.783 249.894 303.922C249.573 304.061 249.192 304.13 248.75 304.13ZM249.088 303.051C249.634 303.051 250.067 302.921 250.388 302.661C250.717 302.392 250.882 302.028 250.882 301.569V300.62H248.906C248.533 300.62 248.23 300.733 247.996 300.958C247.77 301.175 247.658 301.465 247.658 301.829C247.658 302.202 247.783 302.501 248.035 302.726C248.286 302.943 248.637 303.051 249.088 303.051ZM257.312 304.13C256.731 304.13 256.22 304.022 255.778 303.805C255.344 303.58 255.006 303.263 254.764 302.856C254.53 302.44 254.413 301.946 254.413 301.374V299.476C254.413 298.895 254.53 298.401 254.764 297.994C255.006 297.587 255.344 297.275 255.778 297.058C256.22 296.833 256.731 296.72 257.312 296.72C258.152 296.72 258.828 296.945 259.34 297.396C259.86 297.838 260.133 298.445 260.159 299.216H258.885C258.859 298.783 258.707 298.449 258.43 298.215C258.152 297.981 257.78 297.864 257.312 297.864C256.818 297.864 256.423 298.003 256.129 298.28C255.843 298.549 255.7 298.943 255.7 299.463V301.374C255.7 301.894 255.843 302.293 256.129 302.57C256.423 302.847 256.818 302.986 257.312 302.986C257.78 302.986 258.152 302.869 258.43 302.635C258.707 302.392 258.859 302.059 258.885 301.634H260.159C260.133 302.405 259.86 303.016 259.34 303.467C258.828 303.909 258.152 304.13 257.312 304.13ZM262.312 304V294.51H263.599V299.762H264.912L266.836 296.85H268.292L266.043 300.269L268.409 304H266.927L264.925 300.867H263.599V304H262.312ZM272.797 304.13C272.225 304.13 271.723 304.017 271.289 303.792C270.865 303.558 270.531 303.229 270.288 302.804C270.054 302.371 269.937 301.859 269.937 301.27V299.58C269.937 298.982 270.054 298.471 270.288 298.046C270.531 297.621 270.865 297.296 271.289 297.071C271.723 296.837 272.225 296.72 272.797 296.72C273.369 296.72 273.868 296.833 274.292 297.058C274.726 297.283 275.059 297.604 275.293 298.02C275.536 298.427 275.657 298.913 275.657 299.476V300.75H271.198V301.374C271.198 301.894 271.341 302.301 271.627 302.596C271.922 302.891 272.312 303.038 272.797 303.038C273.205 303.038 273.543 302.96 273.811 302.804C274.089 302.648 274.253 302.431 274.305 302.154H275.592C275.506 302.761 275.207 303.242 274.695 303.597C274.184 303.952 273.551 304.13 272.797 304.13ZM274.396 299.918V299.463C274.396 298.917 274.258 298.497 273.98 298.202C273.703 297.907 273.309 297.76 272.797 297.76C272.286 297.76 271.892 297.912 271.614 298.215C271.337 298.51 271.198 298.93 271.198 299.476V299.801H274.5L274.396 299.918ZM277.836 304V296.85H279.11V298.215H279.409L279.11 298.514C279.11 297.951 279.279 297.513 279.617 297.201C279.964 296.88 280.436 296.72 281.034 296.72C281.745 296.72 282.313 296.945 282.737 297.396C283.162 297.847 283.374 298.453 283.374 299.216V304H282.087V299.424C282.087 298.904 281.957 298.505 281.697 298.228C281.437 297.951 281.082 297.812 280.631 297.812C280.163 297.812 279.795 297.959 279.526 298.254C279.258 298.54 279.123 298.947 279.123 299.476V304H277.836ZM287.906 304.13C287.204 304.13 286.637 303.892 286.203 303.415C285.779 302.93 285.566 302.275 285.566 301.452V299.411C285.566 298.579 285.779 297.925 286.203 297.448C286.628 296.963 287.196 296.72 287.906 296.72C288.513 296.72 288.998 296.893 289.362 297.24C289.726 297.578 289.908 298.037 289.908 298.618L289.596 298.241H289.882L289.856 296.564V294.51H291.143V304H289.869V302.609H289.596L289.895 302.232C289.895 302.821 289.713 303.285 289.349 303.623C288.994 303.961 288.513 304.13 287.906 304.13ZM288.361 303.012C288.829 303.012 289.193 302.869 289.453 302.583C289.722 302.288 289.856 301.885 289.856 301.374V299.476C289.856 298.965 289.722 298.566 289.453 298.28C289.193 297.985 288.829 297.838 288.361 297.838C287.885 297.838 287.512 297.964 287.243 298.215C286.983 298.458 286.853 298.856 286.853 299.411V301.439C286.853 301.985 286.983 302.384 287.243 302.635C287.512 302.886 287.885 303.012 288.361 303.012ZM294.18 305.43V304.273H296.195V294.367H294.18V293.21H297.482V305.43H294.18Z" fill="white"/>
<rect x="44" y="420" width="177" height="75" fill="url(#paint2_linear_431_3)" stroke="white" stroke-width="2"/>
<path d="M83.5352 462.15C82.4852 462.15 81.6502 461.85 81.0302 461.25C80.4202 460.65 80.1152 459.82 80.1152 458.76V454.29C80.1152 453.22 80.4202 452.39 81.0302 451.8C81.6502 451.2 82.4852 450.9 83.5352 450.9C84.5852 450.9 85.4152 451.2 86.0252 451.8C86.6452 452.39 86.9552 453.215 86.9552 454.275V458.76C86.9552 459.82 86.6452 460.65 86.0252 461.25C85.4152 461.85 84.5852 462.15 83.5352 462.15ZM83.5352 460.5C84.0452 460.5 84.4302 460.365 84.6902 460.095C84.9502 459.815 85.0802 459.42 85.0802 458.91V454.14C85.0802 453.62 84.9502 453.225 84.6902 452.955C84.4302 452.685 84.0452 452.55 83.5352 452.55C83.0252 452.55 82.6402 452.685 82.3802 452.955C82.1202 453.225 81.9902 453.62 81.9902 454.14V458.91C81.9902 459.42 82.1202 459.815 82.3802 460.095C82.6502 460.365 83.0352 460.5 83.5352 460.5ZM93.2793 462.15C92.5493 462.15 91.9693 461.92 91.5393 461.46C91.1093 460.99 90.8943 460.355 90.8943 459.555L91.4343 460.335H91.0143V462H89.1843V451.05H91.0593V453.36L90.9993 455.415H91.4343L90.8793 456.195C90.8793 455.395 91.0943 454.765 91.5243 454.305C91.9643 453.835 92.5493 453.6 93.2793 453.6C94.0893 453.6 94.7393 453.885 95.2293 454.455C95.7193 455.025 95.9643 455.795 95.9643 456.765V459C95.9643 459.96 95.7193 460.725 95.2293 461.295C94.7393 461.865 94.0893 462.15 93.2793 462.15ZM92.5743 460.53C93.0543 460.53 93.4243 460.4 93.6843 460.14C93.9543 459.87 94.0893 459.47 94.0893 458.94V456.81C94.0893 456.27 93.9543 455.87 93.6843 455.61C93.4243 455.35 93.0543 455.22 92.5743 455.22C92.0943 455.22 91.7193 455.365 91.4493 455.655C91.1893 455.945 91.0593 456.355 91.0593 456.885V458.865C91.0593 459.395 91.1893 459.805 91.4493 460.095C91.7193 460.385 92.0943 460.53 92.5743 460.53ZM98.2384 464.7V463.005H100.413C100.893 463.005 101.273 462.86 101.553 462.57C101.833 462.29 101.973 461.905 101.973 461.415V455.445H98.1634V453.75H103.848V461.46C103.848 462.46 103.548 463.25 102.948 463.83C102.348 464.41 101.538 464.7 100.518 464.7H98.2384ZM102.813 452.37C102.433 452.37 102.133 452.275 101.913 452.085C101.693 451.885 101.583 451.62 101.583 451.29C101.583 450.96 101.693 450.7 101.913 450.51C102.133 450.31 102.433 450.21 102.813 450.21C103.193 450.21 103.493 450.31 103.713 450.51C103.933 450.7 104.043 450.96 104.043 451.29C104.043 451.62 103.933 451.885 103.713 452.085C103.493 452.275 103.193 452.37 102.813 452.37ZM110.533 462.15C109.833 462.15 109.223 462.015 108.703 461.745C108.183 461.475 107.778 461.095 107.488 460.605C107.208 460.105 107.068 459.52 107.068 458.85V456.9C107.068 456.23 107.208 455.65 107.488 455.16C107.778 454.66 108.183 454.275 108.703 454.005C109.223 453.735 109.833 453.6 110.533 453.6C111.223 453.6 111.823 453.735 112.333 454.005C112.853 454.275 113.253 454.655 113.533 455.145C113.823 455.625 113.968 456.19 113.968 456.84V458.34H108.868V458.91C108.868 459.47 109.013 459.895 109.303 460.185C109.593 460.465 110.003 460.605 110.533 460.605C110.923 460.605 111.253 460.54 111.523 460.41C111.803 460.27 111.968 460.07 112.018 459.81H113.878C113.748 460.52 113.378 461.09 112.768 461.52C112.158 461.94 111.413 462.15 110.533 462.15ZM112.168 457.275V456.825C112.168 456.255 112.028 455.815 111.748 455.505C111.478 455.195 111.073 455.04 110.533 455.04C109.993 455.04 109.578 455.2 109.288 455.52C109.008 455.83 108.868 456.27 108.868 456.84V457.125L112.303 457.11L112.168 457.275ZM119.647 462.15C118.937 462.15 118.317 462.02 117.787 461.76C117.267 461.49 116.862 461.115 116.572 460.635C116.282 460.145 116.137 459.57 116.137 458.91V456.84C116.137 456.17 116.282 455.595 116.572 455.115C116.862 454.635 117.267 454.265 117.787 454.005C118.317 453.735 118.937 453.6 119.647 453.6C120.677 453.6 121.502 453.87 122.122 454.41C122.742 454.94 123.072 455.665 123.112 456.585H121.267C121.237 456.155 121.077 455.825 120.787 455.595C120.497 455.355 120.117 455.235 119.647 455.235C119.137 455.235 118.737 455.375 118.447 455.655C118.157 455.925 118.012 456.315 118.012 456.825V458.91C118.012 459.42 118.157 459.815 118.447 460.095C118.737 460.375 119.137 460.515 119.647 460.515C120.117 460.515 120.497 460.4 120.787 460.17C121.077 459.93 121.237 459.595 121.267 459.165H123.112C123.072 460.085 122.742 460.815 122.122 461.355C121.502 461.885 120.677 462.15 119.647 462.15ZM129.331 462C128.561 462 127.946 461.78 127.486 461.34C127.036 460.89 126.811 460.285 126.811 459.525V455.445H124.531V453.75H126.811V451.425H128.701V453.75H131.986V455.445H128.701V459.48C128.701 459.72 128.766 459.92 128.896 460.08C129.036 460.23 129.226 460.305 129.466 460.305H131.911V462H129.331ZM146.539 462.15C145.799 462.15 145.149 462.02 144.589 461.76C144.039 461.5 143.609 461.125 143.299 460.635C142.999 460.145 142.849 459.57 142.849 458.91H144.694C144.694 459.4 144.859 459.79 145.189 460.08C145.529 460.37 145.979 460.515 146.539 460.515C147.079 460.515 147.504 460.37 147.814 460.08C148.134 459.79 148.294 459.41 148.294 458.94C148.294 458.58 148.194 458.26 147.994 457.98C147.794 457.7 147.499 457.515 147.109 457.425L145.639 457.05C144.849 456.85 144.224 456.475 143.764 455.925C143.304 455.375 143.074 454.72 143.074 453.96C143.074 453.34 143.209 452.8 143.479 452.34C143.759 451.88 144.149 451.525 144.649 451.275C145.159 451.025 145.754 450.9 146.434 450.9C147.124 450.9 147.724 451.025 148.234 451.275C148.744 451.525 149.139 451.88 149.419 452.34C149.709 452.79 149.854 453.32 149.854 453.93H148.024C148.024 453.5 147.879 453.16 147.589 452.91C147.299 452.65 146.914 452.52 146.434 452.52C145.964 452.52 145.589 452.65 145.309 452.91C145.039 453.16 144.904 453.49 144.904 453.9C144.904 454.24 144.999 454.52 145.189 454.74C145.389 454.96 145.664 455.12 146.014 455.22L147.529 455.595C148.339 455.795 148.974 456.195 149.434 456.795C149.904 457.395 150.139 458.11 150.139 458.94C150.139 459.59 149.989 460.155 149.689 460.635C149.399 461.115 148.984 461.49 148.444 461.76C147.904 462.02 147.269 462.15 146.539 462.15ZM156.313 462C155.543 462 154.928 461.78 154.468 461.34C154.018 460.89 153.793 460.285 153.793 459.525V455.445H151.513V453.75H153.793V451.425H155.683V453.75H158.968V455.445H155.683V459.48C155.683 459.72 155.748 459.92 155.878 460.08C156.018 460.23 156.208 460.305 156.448 460.305H158.893V462H156.313ZM164.482 462.135C163.782 462.135 163.172 462 162.652 461.73C162.132 461.46 161.732 461.08 161.452 460.59C161.172 460.09 161.032 459.505 161.032 458.835V456.915C161.032 456.235 161.172 455.65 161.452 455.16C161.732 454.67 162.132 454.29 162.652 454.02C163.172 453.75 163.782 453.615 164.482 453.615C165.192 453.615 165.802 453.75 166.312 454.02C166.832 454.29 167.232 454.67 167.512 455.16C167.792 455.65 167.932 456.235 167.932 456.915V458.835C167.932 459.505 167.792 460.09 167.512 460.59C167.232 461.08 166.832 461.46 166.312 461.73C165.802 462 165.192 462.135 164.482 462.135ZM164.482 460.5C164.982 460.5 165.367 460.365 165.637 460.095C165.917 459.815 166.057 459.415 166.057 458.895V456.855C166.057 456.325 165.917 455.925 165.637 455.655C165.367 455.385 164.982 455.25 164.482 455.25C163.992 455.25 163.607 455.385 163.327 455.655C163.047 455.925 162.907 456.325 162.907 456.855V458.895C162.907 459.415 163.047 459.815 163.327 460.095C163.607 460.365 163.992 460.5 164.482 460.5ZM170.432 462V453.75H172.262V455.415H172.772L172.217 455.865C172.217 455.165 172.422 454.615 172.832 454.215C173.252 453.805 173.822 453.6 174.542 453.6C175.382 453.6 176.037 453.87 176.507 454.41C176.977 454.95 177.212 455.705 177.212 456.675V457.455H175.337V456.765C175.337 456.255 175.207 455.87 174.947 455.61C174.687 455.35 174.317 455.22 173.837 455.22C173.347 455.22 172.967 455.37 172.697 455.67C172.437 455.97 172.307 456.395 172.307 456.945V462H170.432ZM182.486 462.15C181.786 462.15 181.176 462.015 180.656 461.745C180.136 461.475 179.731 461.095 179.441 460.605C179.161 460.105 179.021 459.52 179.021 458.85V456.9C179.021 456.23 179.161 455.65 179.441 455.16C179.731 454.66 180.136 454.275 180.656 454.005C181.176 453.735 181.786 453.6 182.486 453.6C183.176 453.6 183.776 453.735 184.286 454.005C184.806 454.275 185.206 454.655 185.486 455.145C185.776 455.625 185.921 456.19 185.921 456.84V458.34H180.821V458.91C180.821 459.47 180.966 459.895 181.256 460.185C181.546 460.465 181.956 460.605 182.486 460.605C182.876 460.605 183.206 460.54 183.476 460.41C183.756 460.27 183.921 460.07 183.971 459.81H185.831C185.701 460.52 185.331 461.09 184.721 461.52C184.111 461.94 183.366 462.15 182.486 462.15ZM184.121 457.275V456.825C184.121 456.255 183.981 455.815 183.701 455.505C183.431 455.195 183.026 455.04 182.486 455.04C181.946 455.04 181.531 455.2 181.241 455.52C180.961 455.83 180.821 456.27 180.821 456.84V457.125L184.256 457.11L184.121 457.275Z" fill="white"/>
<path d="M247.42 220L249.628 211.24H251.56L253.78 220H252.244L251.764 217.876H249.436L248.956 220H247.42ZM249.712 216.652H251.488L250.96 214.3C250.872 213.908 250.796 213.556 250.732 213.244C250.668 212.924 250.624 212.692 250.6 212.548C250.576 212.692 250.532 212.924 250.468 213.244C250.412 213.556 250.336 213.904 250.24 214.288L249.712 216.652ZM255.119 222.16V213.4H256.583V214.732H256.919L256.487 215.356C256.487 214.716 256.659 214.212 257.003 213.844C257.347 213.468 257.811 213.28 258.395 213.28C258.819 213.28 259.191 213.388 259.511 213.604C259.839 213.812 260.091 214.104 260.267 214.48C260.451 214.856 260.543 215.296 260.543 215.8V217.588C260.543 218.092 260.451 218.536 260.267 218.92C260.091 219.296 259.843 219.592 259.523 219.808C259.203 220.016 258.827 220.12 258.395 220.12C257.811 220.12 257.347 219.932 257.003 219.556C256.659 219.18 256.487 218.676 256.487 218.044L256.919 218.68H256.571L256.619 220.312V222.16H255.119ZM257.831 218.824C258.215 218.824 258.511 218.72 258.719 218.512C258.935 218.296 259.043 217.976 259.043 217.552V215.848C259.043 215.416 258.935 215.096 258.719 214.888C258.511 214.68 258.215 214.576 257.831 214.576C257.447 214.576 257.147 214.692 256.931 214.924C256.723 215.156 256.619 215.484 256.619 215.908V217.492C256.619 217.916 256.723 218.244 256.931 218.476C257.147 218.708 257.447 218.824 257.831 218.824ZM264.259 220.12C263.587 220.12 263.055 219.932 262.663 219.556C262.279 219.172 262.087 218.672 262.087 218.056C262.087 217.624 262.187 217.252 262.387 216.94C262.587 216.628 262.871 216.388 263.239 216.22C263.615 216.044 264.055 215.956 264.559 215.956H266.167V215.488C266.167 215.168 266.067 214.924 265.867 214.756C265.675 214.58 265.387 214.492 265.003 214.492C264.651 214.492 264.367 214.56 264.151 214.696C263.943 214.832 263.831 215.024 263.815 215.272H262.375C262.407 214.672 262.655 214.192 263.119 213.832C263.591 213.464 264.223 213.28 265.015 213.28C265.855 213.28 266.507 213.476 266.971 213.868C267.435 214.26 267.667 214.812 267.667 215.524V220H266.203V218.74H265.963L266.227 218.524C266.227 218.852 266.147 219.136 265.987 219.376C265.827 219.608 265.599 219.792 265.303 219.928C265.007 220.056 264.659 220.12 264.259 220.12ZM264.739 218.896C265.179 218.896 265.527 218.788 265.783 218.572C266.039 218.356 266.167 218.068 266.167 217.708V216.928H264.631C264.303 216.928 264.043 217.02 263.851 217.204C263.659 217.38 263.563 217.616 263.563 217.912C263.563 218.208 263.663 218.448 263.863 218.632C264.071 218.808 264.363 218.896 264.739 218.896ZM272.294 220.12C271.726 220.12 271.23 220.016 270.806 219.808C270.39 219.592 270.066 219.292 269.834 218.908C269.602 218.516 269.486 218.056 269.486 217.528V215.872C269.486 215.336 269.602 214.876 269.834 214.492C270.066 214.108 270.39 213.812 270.806 213.604C271.23 213.388 271.726 213.28 272.294 213.28C273.118 213.28 273.778 213.496 274.274 213.928C274.77 214.352 275.034 214.932 275.066 215.668H273.59C273.566 215.324 273.438 215.06 273.206 214.876C272.974 214.684 272.67 214.588 272.294 214.588C271.886 214.588 271.566 214.7 271.334 214.924C271.102 215.14 270.986 215.452 270.986 215.86V217.528C270.986 217.936 271.102 218.252 271.334 218.476C271.566 218.7 271.886 218.812 272.294 218.812C272.67 218.812 272.974 218.72 273.206 218.536C273.438 218.344 273.566 218.076 273.59 217.732H275.066C275.034 218.468 274.77 219.052 274.274 219.484C273.778 219.908 273.118 220.12 272.294 220.12ZM276.705 220V211.24H278.205V213.4L278.169 214.66H278.577L278.133 215.008C278.141 214.48 278.309 214.06 278.637 213.748C278.965 213.436 279.401 213.28 279.945 213.28C280.593 213.28 281.109 213.496 281.493 213.928C281.885 214.36 282.081 214.94 282.081 215.668V220H280.581V215.848C280.581 215.44 280.477 215.128 280.269 214.912C280.061 214.688 279.773 214.576 279.405 214.576C279.029 214.576 278.733 214.688 278.517 214.912C278.309 215.136 278.205 215.456 278.205 215.872V220H276.705ZM286.589 220.12C286.029 220.12 285.541 220.012 285.125 219.796C284.709 219.58 284.385 219.276 284.153 218.884C283.929 218.484 283.817 218.016 283.817 217.48V215.92C283.817 215.384 283.929 214.92 284.153 214.528C284.385 214.128 284.709 213.82 285.125 213.604C285.541 213.388 286.029 213.28 286.589 213.28C287.141 213.28 287.621 213.388 288.029 213.604C288.445 213.82 288.765 214.124 288.989 214.516C289.221 214.9 289.337 215.352 289.337 215.872V217.072H285.257V217.528C285.257 217.976 285.373 218.316 285.605 218.548C285.837 218.772 286.165 218.884 286.589 218.884C286.901 218.884 287.165 218.832 287.381 218.728C287.605 218.616 287.737 218.456 287.777 218.248H289.265C289.161 218.816 288.865 219.272 288.377 219.616C287.889 219.952 287.293 220.12 286.589 220.12ZM287.897 216.22V215.86C287.897 215.404 287.785 215.052 287.561 214.804C287.345 214.556 287.021 214.432 286.589 214.432C286.157 214.432 285.825 214.56 285.593 214.816C285.369 215.064 285.257 215.416 285.257 215.872V216.1L288.005 216.088L287.897 216.22ZM297.787 220L299.995 211.24H301.927L304.147 220H302.611L302.131 217.876H299.803L299.323 220H297.787ZM300.079 216.652H301.855L301.327 214.3C301.239 213.908 301.163 213.556 301.099 213.244C301.035 212.924 300.991 212.692 300.967 212.548C300.943 212.692 300.899 212.924 300.835 213.244C300.779 213.556 300.703 213.904 300.607 214.288L300.079 216.652ZM305.727 220V213.4H307.191V214.732H307.599L307.155 215.092C307.155 214.532 307.319 214.092 307.646 213.772C307.983 213.444 308.439 213.28 309.015 213.28C309.687 213.28 310.211 213.496 310.587 213.928C310.963 214.36 311.151 214.964 311.151 215.74V216.364H309.651V215.812C309.651 215.404 309.547 215.096 309.339 214.888C309.131 214.68 308.835 214.576 308.451 214.576C308.059 214.576 307.755 214.696 307.539 214.936C307.331 215.176 307.227 215.516 307.227 215.956V220H305.727ZM312.922 220V213.4H314.386V214.732H314.794L314.35 215.092C314.35 214.532 314.514 214.092 314.842 213.772C315.178 213.444 315.634 213.28 316.21 213.28C316.882 213.28 317.406 213.496 317.782 213.928C318.158 214.36 318.346 214.964 318.346 215.74V216.364H316.846V215.812C316.846 215.404 316.742 215.096 316.534 214.888C316.326 214.68 316.03 214.576 315.646 214.576C315.254 214.576 314.95 214.696 314.734 214.936C314.526 215.176 314.422 215.516 314.422 215.956V220H312.922ZM322.553 220.108C321.993 220.108 321.505 220 321.089 219.784C320.673 219.568 320.353 219.264 320.129 218.872C319.905 218.472 319.793 218.004 319.793 217.468V215.932C319.793 215.388 319.905 214.92 320.129 214.528C320.353 214.136 320.673 213.832 321.089 213.616C321.505 213.4 321.993 213.292 322.553 213.292C323.121 213.292 323.609 213.4 324.017 213.616C324.433 213.832 324.753 214.136 324.977 214.528C325.201 214.92 325.313 215.388 325.313 215.932V217.468C325.313 218.004 325.201 218.472 324.977 218.872C324.753 219.264 324.433 219.568 324.017 219.784C323.609 220 323.121 220.108 322.553 220.108ZM322.553 218.8C322.953 218.8 323.261 218.692 323.477 218.476C323.701 218.252 323.813 217.932 323.813 217.516V215.884C323.813 215.46 323.701 215.14 323.477 214.924C323.261 214.708 322.953 214.6 322.553 214.6C322.161 214.6 321.853 214.708 321.629 214.924C321.405 215.14 321.293 215.46 321.293 215.884V217.516C321.293 217.932 321.405 218.252 321.629 218.476C321.853 218.692 322.161 218.8 322.553 218.8ZM327.372 220L326.34 213.4H327.528L328.116 217.444C328.148 217.692 328.176 217.96 328.2 218.248C328.224 218.536 328.244 218.776 328.26 218.968C328.276 218.776 328.292 218.536 328.308 218.248C328.332 217.96 328.368 217.692 328.416 217.444L329.136 213.4H330.384L331.08 217.444C331.128 217.692 331.164 217.964 331.188 218.26C331.22 218.548 331.244 218.788 331.26 218.98C331.276 218.788 331.292 218.548 331.308 218.26C331.332 217.964 331.364 217.692 331.404 217.444L332.004 213.4H333.156L332.1 220H330.552L329.928 215.932C329.896 215.7 329.86 215.44 329.82 215.152C329.788 214.856 329.764 214.62 329.748 214.444C329.748 214.564 329.736 214.712 329.712 214.888C329.688 215.064 329.664 215.244 329.64 215.428C329.616 215.612 329.592 215.78 329.568 215.932L328.92 220H327.372Z" fill="white"/>
<path d="M347.636 375.12C347.044 375.12 346.524 375.016 346.076 374.808C345.636 374.6 345.292 374.3 345.044 373.908C344.804 373.516 344.684 373.056 344.684 372.528H346.16C346.16 372.92 346.292 373.232 346.556 373.464C346.828 373.696 347.188 373.812 347.636 373.812C348.068 373.812 348.408 373.696 348.656 373.464C348.912 373.232 349.04 372.928 349.04 372.552C349.04 372.264 348.96 372.008 348.8 371.784C348.64 371.56 348.404 371.412 348.092 371.34L346.916 371.04C346.284 370.88 345.784 370.58 345.416 370.14C345.048 369.7 344.864 369.176 344.864 368.568C344.864 368.072 344.972 367.64 345.188 367.272C345.412 366.904 345.724 366.62 346.124 366.42C346.532 366.22 347.008 366.12 347.552 366.12C348.104 366.12 348.584 366.22 348.992 366.42C349.4 366.62 349.716 366.904 349.94 367.272C350.172 367.632 350.288 368.056 350.288 368.544H348.824C348.824 368.2 348.708 367.928 348.476 367.728C348.244 367.52 347.936 367.416 347.552 367.416C347.176 367.416 346.876 367.52 346.652 367.728C346.436 367.928 346.328 368.192 346.328 368.52C346.328 368.792 346.404 369.016 346.556 369.192C346.716 369.368 346.936 369.496 347.216 369.576L348.428 369.876C349.076 370.036 349.584 370.356 349.952 370.836C350.328 371.316 350.516 371.888 350.516 372.552C350.516 373.072 350.396 373.524 350.156 373.908C349.924 374.292 349.592 374.592 349.16 374.808C348.728 375.016 348.22 375.12 347.636 375.12ZM355.455 375C354.839 375 354.347 374.824 353.979 374.472C353.619 374.112 353.439 373.628 353.439 373.02V369.756H351.615V368.4H353.439V366.54H354.951V368.4H357.579V369.756H354.951V372.984C354.951 373.176 355.003 373.336 355.107 373.464C355.219 373.584 355.371 373.644 355.563 373.644H357.519V375H355.455ZM361.991 375.108C361.431 375.108 360.943 375 360.527 374.784C360.111 374.568 359.791 374.264 359.567 373.872C359.343 373.472 359.231 373.004 359.231 372.468V370.932C359.231 370.388 359.343 369.92 359.567 369.528C359.791 369.136 360.111 368.832 360.527 368.616C360.943 368.4 361.431 368.292 361.991 368.292C362.559 368.292 363.047 368.4 363.455 368.616C363.871 368.832 364.191 369.136 364.415 369.528C364.639 369.92 364.751 370.388 364.751 370.932V372.468C364.751 373.004 364.639 373.472 364.415 373.872C364.191 374.264 363.871 374.568 363.455 374.784C363.047 375 362.559 375.108 361.991 375.108ZM361.991 373.8C362.391 373.8 362.699 373.692 362.915 373.476C363.139 373.252 363.251 372.932 363.251 372.516V370.884C363.251 370.46 363.139 370.14 362.915 369.924C362.699 369.708 362.391 369.6 361.991 369.6C361.599 369.6 361.291 369.708 361.067 369.924C360.843 370.14 360.731 370.46 360.731 370.884V372.516C360.731 372.932 360.843 373.252 361.067 373.476C361.291 373.692 361.599 373.8 361.991 373.8ZM366.75 375V368.4H368.214V369.732H368.622L368.178 370.092C368.178 369.532 368.342 369.092 368.67 368.772C369.006 368.444 369.462 368.28 370.038 368.28C370.71 368.28 371.234 368.496 371.61 368.928C371.986 369.36 372.174 369.964 372.174 370.74V371.364H370.674V370.812C370.674 370.404 370.57 370.096 370.362 369.888C370.154 369.68 369.858 369.576 369.474 369.576C369.082 369.576 368.778 369.696 368.562 369.936C368.354 370.176 368.25 370.516 368.25 370.956V375H366.75ZM373.693 375V373.644H375.949V369.756H373.933V368.4H377.449V373.644H379.477V375H373.693ZM376.597 367.296C376.293 367.296 376.053 367.22 375.877 367.068C375.701 366.908 375.613 366.696 375.613 366.432C375.613 366.168 375.701 365.96 375.877 365.808C376.053 365.648 376.293 365.568 376.597 365.568C376.901 365.568 377.141 365.648 377.317 365.808C377.493 365.96 377.581 366.168 377.581 366.432C377.581 366.696 377.493 366.908 377.317 367.068C377.141 367.22 376.901 367.296 376.597 367.296ZM380.901 375V368.4H382.365V369.66H382.773L382.329 370.008C382.337 369.48 382.505 369.06 382.833 368.748C383.161 368.436 383.597 368.28 384.141 368.28C384.789 368.28 385.305 368.496 385.689 368.928C386.081 369.36 386.277 369.94 386.277 370.668V375H384.777V370.848C384.777 370.44 384.673 370.128 384.465 369.912C384.257 369.688 383.969 369.576 383.601 369.576C383.225 369.576 382.929 369.688 382.713 369.912C382.505 370.136 382.401 370.456 382.401 370.872V375H380.901ZM388.996 377.16V375.912H390.856C391.208 375.912 391.48 375.816 391.672 375.624C391.864 375.44 391.96 375.188 391.96 374.868V374.472L391.984 373.14H391.66L392.128 372.564C392.128 373.196 391.956 373.696 391.612 374.064C391.268 374.424 390.808 374.604 390.232 374.604C389.56 374.604 389.024 374.38 388.624 373.932C388.232 373.476 388.036 372.86 388.036 372.084V370.8C388.036 370.032 388.232 369.42 388.624 368.964C389.024 368.508 389.56 368.28 390.232 368.28C390.808 368.28 391.268 368.464 391.612 368.832C391.956 369.2 392.128 369.7 392.128 370.332L391.66 369.54H391.984V368.4H393.448V374.904C393.448 375.6 393.216 376.148 392.752 376.548C392.296 376.956 391.672 377.16 390.88 377.16H388.996ZM390.736 373.32C391.12 373.32 391.416 373.208 391.624 372.984C391.84 372.752 391.948 372.432 391.948 372.024V370.872C391.948 370.464 391.84 370.148 391.624 369.924C391.416 369.692 391.12 369.576 390.736 369.576C390.352 369.576 390.056 369.688 389.848 369.912C389.64 370.128 389.536 370.432 389.536 370.824V372.072C389.536 372.464 389.64 372.772 389.848 372.996C390.056 373.212 390.352 373.32 390.736 373.32ZM402.463 375V366.24H405.067C405.659 366.24 406.171 366.352 406.603 366.576C407.043 366.8 407.383 367.116 407.622 367.524C407.863 367.932 407.983 368.416 407.983 368.976V372.252C407.983 372.804 407.863 373.288 407.622 373.704C407.383 374.112 407.043 374.432 406.603 374.664C406.171 374.888 405.659 375 405.067 375H402.463ZM403.963 373.656H405.067C405.499 373.656 405.843 373.528 406.099 373.272C406.355 373.016 406.483 372.676 406.483 372.252V368.976C406.483 368.552 406.355 368.216 406.099 367.968C405.843 367.712 405.499 367.584 405.067 367.584H403.963V373.656ZM411.626 375.12C410.954 375.12 410.422 374.932 410.03 374.556C409.646 374.172 409.454 373.672 409.454 373.056C409.454 372.624 409.554 372.252 409.754 371.94C409.954 371.628 410.238 371.388 410.606 371.22C410.982 371.044 411.422 370.956 411.926 370.956H413.534V370.488C413.534 370.168 413.434 369.924 413.234 369.756C413.042 369.58 412.754 369.492 412.37 369.492C412.018 369.492 411.734 369.56 411.518 369.696C411.31 369.832 411.198 370.024 411.182 370.272H409.742C409.774 369.672 410.022 369.192 410.486 368.832C410.958 368.464 411.59 368.28 412.382 368.28C413.222 368.28 413.874 368.476 414.338 368.868C414.802 369.26 415.034 369.812 415.034 370.524V375H413.57V373.74H413.33L413.594 373.524C413.594 373.852 413.514 374.136 413.354 374.376C413.194 374.608 412.966 374.792 412.67 374.928C412.374 375.056 412.026 375.12 411.626 375.12ZM412.106 373.896C412.546 373.896 412.894 373.788 413.15 373.572C413.406 373.356 413.534 373.068 413.534 372.708V371.928H411.998C411.67 371.928 411.41 372.02 411.218 372.204C411.026 372.38 410.93 372.616 410.93 372.912C410.93 373.208 411.03 373.448 411.23 373.632C411.438 373.808 411.73 373.896 412.106 373.896ZM420.213 375C419.597 375 419.105 374.824 418.737 374.472C418.377 374.112 418.197 373.628 418.197 373.02V369.756H416.373V368.4H418.197V366.54H419.709V368.4H422.337V369.756H419.709V372.984C419.709 373.176 419.761 373.336 419.865 373.464C419.977 373.584 420.129 373.644 420.321 373.644H422.277V375H420.213ZM426.016 375.12C425.344 375.12 424.812 374.932 424.42 374.556C424.036 374.172 423.844 373.672 423.844 373.056C423.844 372.624 423.944 372.252 424.144 371.94C424.344 371.628 424.628 371.388 424.996 371.22C425.372 371.044 425.812 370.956 426.316 370.956H427.924V370.488C427.924 370.168 427.824 369.924 427.624 369.756C427.432 369.58 427.144 369.492 426.76 369.492C426.408 369.492 426.124 369.56 425.908 369.696C425.7 369.832 425.588 370.024 425.572 370.272H424.132C424.164 369.672 424.412 369.192 424.876 368.832C425.348 368.464 425.98 368.28 426.772 368.28C427.612 368.28 428.264 368.476 428.728 368.868C429.192 369.26 429.424 369.812 429.424 370.524V375H427.96V373.74H427.72L427.984 373.524C427.984 373.852 427.904 374.136 427.744 374.376C427.584 374.608 427.356 374.792 427.06 374.928C426.764 375.056 426.416 375.12 426.016 375.12ZM426.496 373.896C426.936 373.896 427.284 373.788 427.54 373.572C427.796 373.356 427.924 373.068 427.924 372.708V371.928H426.388C426.06 371.928 425.8 372.02 425.608 372.204C425.416 372.38 425.32 372.616 425.32 372.912C425.32 373.208 425.42 373.448 425.62 373.632C425.828 373.808 426.12 373.896 426.496 373.896Z" fill="white"/>
<path d="M63.3455 363.16L62.0255 360.988L62.2895 361.108C62.2575 361.108 62.2175 361.108 62.1695 361.108C62.1295 361.116 62.0855 361.12 62.0375 361.12C61.4775 361.12 60.9895 361.012 60.5735 360.796C60.1575 360.58 59.8335 360.276 59.6015 359.884C59.3695 359.484 59.2535 359.024 59.2535 358.504V354.736C59.2535 354.2 59.3695 353.74 59.6015 353.356C59.8335 352.964 60.1575 352.66 60.5735 352.444C60.9895 352.228 61.4775 352.12 62.0375 352.12C62.5975 352.12 63.0855 352.228 63.5015 352.444C63.9175 352.66 64.2415 352.964 64.4735 353.356C64.7055 353.748 64.8215 354.208 64.8215 354.736V358.504C64.8215 359.032 64.7055 359.496 64.4735 359.896C64.2495 360.288 63.9295 360.588 63.5135 360.796L64.9655 363.16H63.3455ZM62.0375 359.8C62.4535 359.8 62.7695 359.688 62.9855 359.464C63.2095 359.232 63.3215 358.912 63.3215 358.504V354.736C63.3215 354.32 63.2055 354 62.9735 353.776C62.7495 353.544 62.4375 353.428 62.0375 353.428C61.6375 353.428 61.3215 353.544 61.0895 353.776C60.8655 354 60.7535 354.32 60.7535 354.736V358.504C60.7535 358.912 60.8655 359.232 61.0895 359.464C61.3135 359.688 61.6295 359.8 62.0375 359.8ZM69.2328 361.12C68.3928 361.12 67.7328 360.888 67.2528 360.424C66.7728 359.952 66.5328 359.312 66.5328 358.504V354.4H68.0328V358.492C68.0328 358.908 68.1368 359.232 68.3448 359.464C68.5528 359.696 68.8488 359.812 69.2328 359.812C69.6088 359.812 69.9008 359.696 70.1088 359.464C70.3248 359.232 70.4328 358.908 70.4328 358.492V354.4H71.9328V358.504C71.9328 359.312 71.6888 359.952 71.2008 360.424C70.7128 360.888 70.0568 361.12 69.2328 361.12ZM76.4401 361.12C75.8801 361.12 75.3921 361.012 74.9761 360.796C74.5601 360.58 74.2361 360.276 74.0041 359.884C73.7801 359.484 73.6681 359.016 73.6681 358.48V356.92C73.6681 356.384 73.7801 355.92 74.0041 355.528C74.2361 355.128 74.5601 354.82 74.9761 354.604C75.3921 354.388 75.8801 354.28 76.4401 354.28C76.9921 354.28 77.4721 354.388 77.8801 354.604C78.2961 354.82 78.6161 355.124 78.8401 355.516C79.0721 355.9 79.1881 356.352 79.1881 356.872V358.072H75.1081V358.528C75.1081 358.976 75.2241 359.316 75.4561 359.548C75.6881 359.772 76.0161 359.884 76.4401 359.884C76.7521 359.884 77.0161 359.832 77.2321 359.728C77.4561 359.616 77.5881 359.456 77.6281 359.248H79.1161C79.0121 359.816 78.7161 360.272 78.2281 360.616C77.7401 360.952 77.1441 361.12 76.4401 361.12ZM77.7481 357.22V356.86C77.7481 356.404 77.6361 356.052 77.4121 355.804C77.1961 355.556 76.8721 355.432 76.4401 355.432C76.0081 355.432 75.6761 355.56 75.4441 355.816C75.2201 356.064 75.1081 356.416 75.1081 356.872V357.1L77.8561 357.088L77.7481 357.22ZM81.1874 361V354.4H82.6514V355.732H83.0594L82.6154 356.092C82.6154 355.532 82.7794 355.092 83.1074 354.772C83.4434 354.444 83.8994 354.28 84.4754 354.28C85.1474 354.28 85.6714 354.496 86.0474 354.928C86.4234 355.36 86.6114 355.964 86.6114 356.74V357.364H85.1114V356.812C85.1114 356.404 85.0074 356.096 84.7994 355.888C84.5914 355.68 84.2954 355.576 83.9114 355.576C83.5194 355.576 83.2154 355.696 82.9994 355.936C82.7914 356.176 82.6874 356.516 82.6874 356.956V361H81.1874ZM89.1988 363.16L90.1348 360.64L87.6508 354.4H89.2348L90.5068 357.772C90.5788 357.972 90.6508 358.192 90.7228 358.432C90.7948 358.664 90.8468 358.88 90.8788 359.08C90.9028 358.88 90.9468 358.664 91.0108 358.432C91.0828 358.192 91.1548 357.972 91.2268 357.772L92.4028 354.4H93.9868L90.7708 363.16H89.1988ZM95.3261 361V359.644H97.5821V355.756H95.5661V354.4H99.0821V359.644H101.11V361H95.3261ZM98.2301 353.296C97.9261 353.296 97.6861 353.22 97.5101 353.068C97.3341 352.908 97.2461 352.696 97.2461 352.432C97.2461 352.168 97.3341 351.96 97.5101 351.808C97.6861 351.648 97.9261 351.568 98.2301 351.568C98.5341 351.568 98.7741 351.648 98.9501 351.808C99.1261 351.96 99.2141 352.168 99.2141 352.432C99.2141 352.696 99.1261 352.908 98.9501 353.068C98.7741 353.22 98.5341 353.296 98.2301 353.296ZM102.533 361V354.4H103.997V355.66H104.405L103.961 356.008C103.969 355.48 104.137 355.06 104.465 354.748C104.793 354.436 105.229 354.28 105.773 354.28C106.421 354.28 106.937 354.496 107.321 354.928C107.713 355.36 107.909 355.94 107.909 356.668V361H106.409V356.848C106.409 356.44 106.305 356.128 106.097 355.912C105.889 355.688 105.601 355.576 105.233 355.576C104.857 355.576 104.561 355.688 104.345 355.912C104.137 356.136 104.033 356.456 104.033 356.872V361H102.533ZM110.629 363.16V361.912H112.489C112.841 361.912 113.113 361.816 113.305 361.624C113.497 361.44 113.593 361.188 113.593 360.868V360.472L113.617 359.14H113.293L113.761 358.564C113.761 359.196 113.589 359.696 113.245 360.064C112.901 360.424 112.441 360.604 111.865 360.604C111.193 360.604 110.657 360.38 110.257 359.932C109.865 359.476 109.669 358.86 109.669 358.084V356.8C109.669 356.032 109.865 355.42 110.257 354.964C110.657 354.508 111.193 354.28 111.865 354.28C112.441 354.28 112.901 354.464 113.245 354.832C113.589 355.2 113.761 355.7 113.761 356.332L113.293 355.54H113.617V354.4H115.081V360.904C115.081 361.6 114.849 362.148 114.385 362.548C113.929 362.956 113.305 363.16 112.513 363.16H110.629ZM112.369 359.32C112.753 359.32 113.049 359.208 113.257 358.984C113.473 358.752 113.581 358.432 113.581 358.024V356.872C113.581 356.464 113.473 356.148 113.257 355.924C113.049 355.692 112.753 355.576 112.369 355.576C111.985 355.576 111.689 355.688 111.481 355.912C111.273 356.128 111.169 356.432 111.169 356.824V358.072C111.169 358.464 111.273 358.772 111.481 358.996C111.689 359.212 111.985 359.32 112.369 359.32ZM4.511 377.12C3.919 377.12 3.399 377.016 2.951 376.808C2.511 376.6 2.167 376.3 1.919 375.908C1.679 375.516 1.559 375.056 1.559 374.528H3.035C3.035 374.92 3.167 375.232 3.431 375.464C3.703 375.696 4.063 375.812 4.511 375.812C4.943 375.812 5.283 375.696 5.531 375.464C5.787 375.232 5.915 374.928 5.915 374.552C5.915 374.264 5.835 374.008 5.675 373.784C5.515 373.56 5.279 373.412 4.967 373.34L3.791 373.04C3.159 372.88 2.659 372.58 2.291 372.14C1.923 371.7 1.739 371.176 1.739 370.568C1.739 370.072 1.847 369.64 2.063 369.272C2.287 368.904 2.599 368.62 2.999 368.42C3.407 368.22 3.883 368.12 4.427 368.12C4.979 368.12 5.459 368.22 5.867 368.42C6.275 368.62 6.591 368.904 6.815 369.272C7.047 369.632 7.163 370.056 7.163 370.544H5.699C5.699 370.2 5.583 369.928 5.351 369.728C5.119 369.52 4.811 369.416 4.427 369.416C4.051 369.416 3.751 369.52 3.527 369.728C3.311 369.928 3.203 370.192 3.203 370.52C3.203 370.792 3.279 371.016 3.431 371.192C3.591 371.368 3.811 371.496 4.091 371.576L5.303 371.876C5.951 372.036 6.459 372.356 6.827 372.836C7.203 373.316 7.391 373.888 7.391 374.552C7.391 375.072 7.271 375.524 7.031 375.908C6.799 376.292 6.467 376.592 6.035 376.808C5.603 377.016 5.095 377.12 4.511 377.12ZM12.3303 377C11.7143 377 11.2223 376.824 10.8543 376.472C10.4943 376.112 10.3143 375.628 10.3143 375.02V371.756H8.49031V370.4H10.3143V368.54H11.8263V370.4H14.4543V371.756H11.8263V374.984C11.8263 375.176 11.8783 375.336 11.9823 375.464C12.0943 375.584 12.2463 375.644 12.4383 375.644H14.3943V377H12.3303ZM18.1336 377.12C17.4616 377.12 16.9296 376.932 16.5376 376.556C16.1536 376.172 15.9616 375.672 15.9616 375.056C15.9616 374.624 16.0616 374.252 16.2616 373.94C16.4616 373.628 16.7456 373.388 17.1136 373.22C17.4896 373.044 17.9296 372.956 18.4336 372.956H20.0416V372.488C20.0416 372.168 19.9416 371.924 19.7416 371.756C19.5496 371.58 19.2616 371.492 18.8776 371.492C18.5256 371.492 18.2416 371.56 18.0256 371.696C17.8176 371.832 17.7056 372.024 17.6896 372.272H16.2496C16.2816 371.672 16.5296 371.192 16.9936 370.832C17.4656 370.464 18.0976 370.28 18.8896 370.28C19.7296 370.28 20.3816 370.476 20.8456 370.868C21.3096 371.26 21.5416 371.812 21.5416 372.524V377H20.0776V375.74H19.8376L20.1016 375.524C20.1016 375.852 20.0216 376.136 19.8616 376.376C19.7016 376.608 19.4736 376.792 19.1776 376.928C18.8816 377.056 18.5336 377.12 18.1336 377.12ZM18.6136 375.896C19.0536 375.896 19.4016 375.788 19.6576 375.572C19.9136 375.356 20.0416 375.068 20.0416 374.708V373.928H18.5056C18.1776 373.928 17.9176 374.02 17.7256 374.204C17.5336 374.38 17.4376 374.616 17.4376 374.912C17.4376 375.208 17.5376 375.448 17.7376 375.632C17.9456 375.808 18.2376 375.896 18.6136 375.896ZM26.7209 377C26.1049 377 25.6129 376.824 25.2449 376.472C24.8849 376.112 24.7049 375.628 24.7049 375.02V371.756H22.8809V370.4H24.7049V368.54H26.2169V370.4H28.8449V371.756H26.2169V374.984C26.2169 375.176 26.2689 375.336 26.3729 375.464C26.4849 375.584 26.6369 375.644 26.8289 375.644H28.7849V377H26.7209ZM33.2683 377.12C32.7083 377.12 32.2203 377.012 31.8043 376.796C31.3883 376.58 31.0643 376.276 30.8323 375.884C30.6083 375.484 30.4963 375.016 30.4963 374.48V372.92C30.4963 372.384 30.6083 371.92 30.8323 371.528C31.0643 371.128 31.3883 370.82 31.8043 370.604C32.2203 370.388 32.7083 370.28 33.2683 370.28C33.8203 370.28 34.3003 370.388 34.7083 370.604C35.1243 370.82 35.4443 371.124 35.6683 371.516C35.9003 371.9 36.0163 372.352 36.0163 372.872V374.072H31.9363V374.528C31.9363 374.976 32.0523 375.316 32.2843 375.548C32.5163 375.772 32.8443 375.884 33.2683 375.884C33.5803 375.884 33.8443 375.832 34.0603 375.728C34.2843 375.616 34.4163 375.456 34.4563 375.248H35.9443C35.8403 375.816 35.5443 376.272 35.0563 376.616C34.5683 376.952 33.9723 377.12 33.2683 377.12ZM34.5763 373.22V372.86C34.5763 372.404 34.4643 372.052 34.2403 371.804C34.0243 371.556 33.7003 371.432 33.2683 371.432C32.8363 371.432 32.5043 371.56 32.2723 371.816C32.0483 372.064 31.9363 372.416 31.9363 372.872V373.1L34.6843 373.088L34.5763 373.22ZM44.6949 377V368.24H46.6509L47.6349 372.008L48.6309 368.24H50.5989V377H49.1949V373.316C49.1949 372.812 49.2069 372.292 49.2309 371.756C49.2629 371.212 49.2989 370.688 49.3389 370.184C49.3789 369.672 49.4229 369.208 49.4709 368.792L48.2349 373.196H46.9989L45.8109 368.9C45.8589 369.268 45.9029 369.684 45.9429 370.148C45.9909 370.612 46.0269 371.112 46.0509 371.648C46.0829 372.184 46.0989 372.74 46.0989 373.316V377H44.6949ZM54.1102 377.12C53.4382 377.12 52.9062 376.932 52.5142 376.556C52.1302 376.172 51.9382 375.672 51.9382 375.056C51.9382 374.624 52.0382 374.252 52.2382 373.94C52.4382 373.628 52.7222 373.388 53.0902 373.22C53.4662 373.044 53.9062 372.956 54.4102 372.956H56.0182V372.488C56.0182 372.168 55.9182 371.924 55.7182 371.756C55.5262 371.58 55.2382 371.492 54.8542 371.492C54.5022 371.492 54.2182 371.56 54.0022 371.696C53.7942 371.832 53.6822 372.024 53.6662 372.272H52.2262C52.2582 371.672 52.5062 371.192 52.9702 370.832C53.4422 370.464 54.0742 370.28 54.8662 370.28C55.7062 370.28 56.3582 370.476 56.8222 370.868C57.2862 371.26 57.5182 371.812 57.5182 372.524V377H56.0542V375.74H55.8142L56.0782 375.524C56.0782 375.852 55.9982 376.136 55.8382 376.376C55.6782 376.608 55.4502 376.792 55.1542 376.928C54.8582 377.056 54.5102 377.12 54.1102 377.12ZM54.5902 375.896C55.0302 375.896 55.3782 375.788 55.6342 375.572C55.8902 375.356 56.0182 375.068 56.0182 374.708V373.928H54.4822C54.1542 373.928 53.8942 374.02 53.7022 374.204C53.5102 374.38 53.4142 374.616 53.4142 374.912C53.4142 375.208 53.5142 375.448 53.7142 375.632C53.9222 375.808 54.2142 375.896 54.5902 375.896ZM59.3615 377V370.4H60.8255V371.66H61.2335L60.7895 372.008C60.7975 371.48 60.9655 371.06 61.2935 370.748C61.6215 370.436 62.0575 370.28 62.6015 370.28C63.2495 370.28 63.7655 370.496 64.1495 370.928C64.5415 371.36 64.7375 371.94 64.7375 372.668V377H63.2375V372.848C63.2375 372.44 63.1335 372.128 62.9255 371.912C62.7175 371.688 62.4295 371.576 62.0615 371.576C61.6855 371.576 61.3895 371.688 61.1735 371.912C60.9655 372.136 60.8615 372.456 60.8615 372.872V377H59.3615ZM68.5008 377.12C67.8288 377.12 67.2968 376.932 66.9048 376.556C66.5208 376.172 66.3288 375.672 66.3288 375.056C66.3288 374.624 66.4288 374.252 66.6288 373.94C66.8288 373.628 67.1128 373.388 67.4808 373.22C67.8568 373.044 68.2968 372.956 68.8008 372.956H70.4088V372.488C70.4088 372.168 70.3088 371.924 70.1088 371.756C69.9168 371.58 69.6288 371.492 69.2448 371.492C68.8928 371.492 68.6088 371.56 68.3928 371.696C68.1848 371.832 68.0728 372.024 68.0568 372.272H66.6168C66.6488 371.672 66.8968 371.192 67.3608 370.832C67.8328 370.464 68.4648 370.28 69.2568 370.28C70.0968 370.28 70.7488 370.476 71.2128 370.868C71.6768 371.26 71.9088 371.812 71.9088 372.524V377H70.4448V375.74H70.2048L70.4688 375.524C70.4688 375.852 70.3888 376.136 70.2288 376.376C70.0688 376.608 69.8408 376.792 69.5448 376.928C69.2488 377.056 68.9008 377.12 68.5008 377.12ZM68.9808 375.896C69.4208 375.896 69.7688 375.788 70.0248 375.572C70.2808 375.356 70.4088 375.068 70.4088 374.708V373.928H68.8728C68.5448 373.928 68.2848 374.02 68.0928 374.204C67.9008 374.38 67.8048 374.616 67.8048 374.912C67.8048 375.208 67.9048 375.448 68.1048 375.632C68.3128 375.808 68.6048 375.896 68.9808 375.896ZM74.6521 379.16V377.912H76.5121C76.8641 377.912 77.1361 377.816 77.3281 377.624C77.5201 377.44 77.6161 377.188 77.6161 376.868V376.472L77.6401 375.14H77.3161L77.7841 374.564C77.7841 375.196 77.6121 375.696 77.2681 376.064C76.9241 376.424 76.4641 376.604 75.8881 376.604C75.2161 376.604 74.6801 376.38 74.2801 375.932C73.8881 375.476 73.6921 374.86 73.6921 374.084V372.8C73.6921 372.032 73.8881 371.42 74.2801 370.964C74.6801 370.508 75.2161 370.28 75.8881 370.28C76.4641 370.28 76.9241 370.464 77.2681 370.832C77.6121 371.2 77.7841 371.7 77.7841 372.332L77.3161 371.54H77.6401V370.4H79.1041V376.904C79.1041 377.6 78.8721 378.148 78.4081 378.548C77.9521 378.956 77.3281 379.16 76.5361 379.16H74.6521ZM76.3921 375.32C76.7761 375.32 77.0721 375.208 77.2801 374.984C77.4961 374.752 77.6041 374.432 77.6041 374.024V372.872C77.6041 372.464 77.4961 372.148 77.2801 371.924C77.0721 371.692 76.7761 371.576 76.3921 371.576C76.0081 371.576 75.7121 371.688 75.5041 371.912C75.2961 372.128 75.1921 372.432 75.1921 372.824V374.072C75.1921 374.464 75.2961 374.772 75.5041 374.996C75.7121 375.212 76.0081 375.32 76.3921 375.32ZM83.6354 377.12C83.0754 377.12 82.5874 377.012 82.1714 376.796C81.7554 376.58 81.4314 376.276 81.1994 375.884C80.9754 375.484 80.8634 375.016 80.8634 374.48V372.92C80.8634 372.384 80.9754 371.92 81.1994 371.528C81.4314 371.128 81.7554 370.82 82.1714 370.604C82.5874 370.388 83.0754 370.28 83.6354 370.28C84.1874 370.28 84.6674 370.388 85.0754 370.604C85.4914 370.82 85.8114 371.124 86.0354 371.516C86.2674 371.9 86.3834 372.352 86.3834 372.872V374.072H82.3034V374.528C82.3034 374.976 82.4194 375.316 82.6514 375.548C82.8834 375.772 83.2114 375.884 83.6354 375.884C83.9474 375.884 84.2114 375.832 84.4274 375.728C84.6514 375.616 84.7834 375.456 84.8234 375.248H86.3114C86.2074 375.816 85.9114 376.272 85.4234 376.616C84.9354 376.952 84.3394 377.12 83.6354 377.12ZM84.9434 373.22V372.86C84.9434 372.404 84.8314 372.052 84.6074 371.804C84.3914 371.556 84.0674 371.432 83.6354 371.432C83.2034 371.432 82.8714 371.56 82.6394 371.816C82.4154 372.064 82.3034 372.416 82.3034 372.872V373.1L85.0514 373.088L84.9434 373.22ZM87.7828 377V370.4H89.0308V371.36H89.2828L89.0548 371.528C89.0548 371.16 89.1548 370.86 89.3548 370.628C89.5548 370.396 89.8228 370.28 90.1588 370.28C90.5188 370.28 90.8108 370.42 91.0348 370.7C91.2668 370.972 91.3828 371.328 91.3828 371.768L91.0948 371.336H91.5028L91.3108 371.528C91.3188 371.144 91.4268 370.84 91.6348 370.616C91.8428 370.392 92.1188 370.28 92.4628 370.28C92.8708 370.28 93.2028 370.436 93.4588 370.748C93.7228 371.06 93.8548 371.468 93.8548 371.972V377H92.5348V372.08C92.5348 371.864 92.4828 371.696 92.3788 371.576C92.2828 371.448 92.1428 371.384 91.9588 371.384C91.7828 371.384 91.6468 371.448 91.5508 371.576C91.4628 371.696 91.4188 371.864 91.4188 372.08V377H90.2188V372.08C90.2188 371.864 90.1708 371.696 90.0748 371.576C89.9868 371.448 89.8548 371.384 89.6788 371.384C89.4948 371.384 89.3508 371.448 89.2468 371.576C89.1508 371.696 89.1028 371.864 89.1028 372.08V377H87.7828ZM98.0261 377.12C97.4661 377.12 96.9781 377.012 96.5621 376.796C96.1461 376.58 95.8221 376.276 95.5901 375.884C95.3661 375.484 95.2541 375.016 95.2541 374.48V372.92C95.2541 372.384 95.3661 371.92 95.5901 371.528C95.8221 371.128 96.1461 370.82 96.5621 370.604C96.9781 370.388 97.4661 370.28 98.0261 370.28C98.5781 370.28 99.0581 370.388 99.4661 370.604C99.8821 370.82 100.202 371.124 100.426 371.516C100.658 371.9 100.774 372.352 100.774 372.872V374.072H96.6941V374.528C96.6941 374.976 96.8101 375.316 97.0421 375.548C97.2741 375.772 97.6021 375.884 98.0261 375.884C98.3381 375.884 98.6021 375.832 98.8181 375.728C99.0421 375.616 99.1741 375.456 99.2141 375.248H100.702C100.598 375.816 100.302 376.272 99.8141 376.616C99.3261 376.952 98.7301 377.12 98.0261 377.12ZM99.3341 373.22V372.86C99.3341 372.404 99.2221 372.052 98.9981 371.804C98.7821 371.556 98.4581 371.432 98.0261 371.432C97.5941 371.432 97.2621 371.56 97.0301 371.816C96.8061 372.064 96.6941 372.416 96.6941 372.872V373.1L99.4421 373.088L99.3341 373.22ZM102.533 377V370.4H103.997V371.66H104.405L103.961 372.008C103.969 371.48 104.137 371.06 104.465 370.748C104.793 370.436 105.229 370.28 105.773 370.28C106.421 370.28 106.937 370.496 107.321 370.928C107.713 371.36 107.909 371.94 107.909 372.668V377H106.409V372.848C106.409 372.44 106.305 372.128 106.097 371.912C105.889 371.688 105.601 371.576 105.233 371.576C104.857 371.576 104.561 371.688 104.345 371.912C104.137 372.136 104.033 372.456 104.033 372.872V377H102.533ZM113.065 377C112.449 377 111.957 376.824 111.589 376.472C111.229 376.112 111.049 375.628 111.049 375.02V371.756H109.225V370.4H111.049V368.54H112.561V370.4H115.189V371.756H112.561V374.984C112.561 375.176 112.613 375.336 112.717 375.464C112.829 375.584 112.981 375.644 113.173 375.644H115.129V377H113.065ZM37.9076 393V384.24H43.1636V385.56H39.3836V387.84H42.7436V389.112H39.3836V391.68H43.1636V393H37.9076ZM46.6989 393L44.4789 386.4H46.0509L47.3229 390.408C47.4029 390.648 47.4749 390.892 47.5389 391.14C47.6029 391.38 47.6429 391.588 47.6589 391.764C47.6909 391.588 47.7349 391.38 47.7909 391.14C47.8469 390.892 47.9069 390.652 47.9709 390.42L49.2309 386.4H50.8149L48.6069 393H46.6989ZM54.8542 393.12C54.2942 393.12 53.8062 393.012 53.3902 392.796C52.9742 392.58 52.6502 392.276 52.4182 391.884C52.1942 391.484 52.0822 391.016 52.0822 390.48V388.92C52.0822 388.384 52.1942 387.92 52.4182 387.528C52.6502 387.128 52.9742 386.82 53.3902 386.604C53.8062 386.388 54.2942 386.28 54.8542 386.28C55.4062 386.28 55.8862 386.388 56.2942 386.604C56.7102 386.82 57.0302 387.124 57.2542 387.516C57.4862 387.9 57.6022 388.352 57.6022 388.872V390.072H53.5222V390.528C53.5222 390.976 53.6382 391.316 53.8702 391.548C54.1022 391.772 54.4302 391.884 54.8542 391.884C55.1662 391.884 55.4302 391.832 55.6462 391.728C55.8702 391.616 56.0022 391.456 56.0422 391.248H57.5302C57.4262 391.816 57.1302 392.272 56.6422 392.616C56.1542 392.952 55.5582 393.12 54.8542 393.12ZM56.1622 389.22V388.86C56.1622 388.404 56.0502 388.052 55.8262 387.804C55.6102 387.556 55.2862 387.432 54.8542 387.432C54.4222 387.432 54.0902 387.56 53.8582 387.816C53.6342 388.064 53.5222 388.416 53.5222 388.872V389.1L56.2702 389.088L56.1622 389.22ZM59.3615 393V386.4H60.8255V387.66H61.2335L60.7895 388.008C60.7975 387.48 60.9655 387.06 61.2935 386.748C61.6215 386.436 62.0575 386.28 62.6015 386.28C63.2495 386.28 63.7655 386.496 64.1495 386.928C64.5415 387.36 64.7375 387.94 64.7375 388.668V393H63.2375V388.848C63.2375 388.44 63.1335 388.128 62.9255 387.912C62.7175 387.688 62.4295 387.576 62.0615 387.576C61.6855 387.576 61.3895 387.688 61.1735 387.912C60.9655 388.136 60.8615 388.456 60.8615 388.872V393H59.3615ZM69.8928 393C69.2768 393 68.7848 392.824 68.4168 392.472C68.0568 392.112 67.8768 391.628 67.8768 391.02V387.756H66.0528V386.4H67.8768V384.54H69.3888V386.4H72.0168V387.756H69.3888V390.984C69.3888 391.176 69.4408 391.336 69.5448 391.464C69.6568 391.584 69.8088 391.644 70.0008 391.644H71.9568V393H69.8928ZM84.9314 395.16L83.6114 392.988L83.8754 393.108C83.8434 393.108 83.8034 393.108 83.7554 393.108C83.7154 393.116 83.6714 393.12 83.6234 393.12C83.0634 393.12 82.5754 393.012 82.1594 392.796C81.7434 392.58 81.4194 392.276 81.1874 391.884C80.9554 391.484 80.8394 391.024 80.8394 390.504V386.736C80.8394 386.2 80.9554 385.74 81.1874 385.356C81.4194 384.964 81.7434 384.66 82.1594 384.444C82.5754 384.228 83.0634 384.12 83.6234 384.12C84.1834 384.12 84.6714 384.228 85.0874 384.444C85.5034 384.66 85.8274 384.964 86.0594 385.356C86.2914 385.748 86.4074 386.208 86.4074 386.736V390.504C86.4074 391.032 86.2914 391.496 86.0594 391.896C85.8354 392.288 85.5154 392.588 85.0994 392.796L86.5514 395.16H84.9314ZM83.6234 391.8C84.0394 391.8 84.3554 391.688 84.5714 391.464C84.7954 391.232 84.9074 390.912 84.9074 390.504V386.736C84.9074 386.32 84.7914 386 84.5594 385.776C84.3354 385.544 84.0234 385.428 83.6234 385.428C83.2234 385.428 82.9074 385.544 82.6754 385.776C82.4514 386 82.3394 386.32 82.3394 386.736V390.504C82.3394 390.912 82.4514 391.232 82.6754 391.464C82.8994 391.688 83.2154 391.8 83.6234 391.8ZM90.8188 393.12C89.9788 393.12 89.3188 392.888 88.8388 392.424C88.3588 391.952 88.1188 391.312 88.1188 390.504V386.4H89.6188V390.492C89.6188 390.908 89.7228 391.232 89.9308 391.464C90.1388 391.696 90.4348 391.812 90.8188 391.812C91.1948 391.812 91.4868 391.696 91.6948 391.464C91.9108 391.232 92.0188 390.908 92.0188 390.492V386.4H93.5188V390.504C93.5188 391.312 93.2748 391.952 92.7868 392.424C92.2988 392.888 91.6428 393.12 90.8188 393.12ZM98.0261 393.12C97.4661 393.12 96.9781 393.012 96.5621 392.796C96.1461 392.58 95.8221 392.276 95.5901 391.884C95.3661 391.484 95.2541 391.016 95.2541 390.48V388.92C95.2541 388.384 95.3661 387.92 95.5901 387.528C95.8221 387.128 96.1461 386.82 96.5621 386.604C96.9781 386.388 97.4661 386.28 98.0261 386.28C98.5781 386.28 99.0581 386.388 99.4661 386.604C99.8821 386.82 100.202 387.124 100.426 387.516C100.658 387.9 100.774 388.352 100.774 388.872V390.072H96.6941V390.528C96.6941 390.976 96.8101 391.316 97.0421 391.548C97.2741 391.772 97.6021 391.884 98.0261 391.884C98.3381 391.884 98.6021 391.832 98.8181 391.728C99.0421 391.616 99.1741 391.456 99.2141 391.248H100.702C100.598 391.816 100.302 392.272 99.8141 392.616C99.3261 392.952 98.7301 393.12 98.0261 393.12ZM99.3341 389.22V388.86C99.3341 388.404 99.2221 388.052 98.9981 387.804C98.7821 387.556 98.4581 387.432 98.0261 387.432C97.5941 387.432 97.2621 387.56 97.0301 387.816C96.8061 388.064 96.6941 388.416 96.6941 388.872V389.1L99.4421 389.088L99.3341 389.22ZM105.209 393.12C104.369 393.12 103.709 392.888 103.229 392.424C102.749 391.952 102.509 391.312 102.509 390.504V386.4H104.009V390.492C104.009 390.908 104.113 391.232 104.321 391.464C104.529 391.696 104.825 391.812 105.209 391.812C105.585 391.812 105.877 391.696 106.085 391.464C106.301 391.232 106.409 390.908 106.409 390.492V386.4H107.909V390.504C107.909 391.312 107.665 391.952 107.177 392.424C106.689 392.888 106.033 393.12 105.209 393.12ZM112.417 393.12C111.857 393.12 111.369 393.012 110.953 392.796C110.537 392.58 110.213 392.276 109.981 391.884C109.757 391.484 109.645 391.016 109.645 390.48V388.92C109.645 388.384 109.757 387.92 109.981 387.528C110.213 387.128 110.537 386.82 110.953 386.604C111.369 386.388 111.857 386.28 112.417 386.28C112.969 386.28 113.449 386.388 113.857 386.604C114.273 386.82 114.593 387.124 114.817 387.516C115.049 387.9 115.165 388.352 115.165 388.872V390.072H111.085V390.528C111.085 390.976 111.201 391.316 111.433 391.548C111.665 391.772 111.993 391.884 112.417 391.884C112.729 391.884 112.993 391.832 113.209 391.728C113.433 391.616 113.565 391.456 113.605 391.248H115.093C114.989 391.816 114.693 392.272 114.205 392.616C113.717 392.952 113.121 393.12 112.417 393.12ZM113.725 389.22V388.86C113.725 388.404 113.613 388.052 113.389 387.804C113.173 387.556 112.849 387.432 112.417 387.432C111.985 387.432 111.653 387.56 111.421 387.816C111.197 388.064 111.085 388.416 111.085 388.872V389.1L113.833 389.088L113.725 389.22Z" fill="white"/>
<rect x="238" y="420" width="177" height="75" fill="url(#paint3_linear_431_3)" stroke="white" stroke-width="2"/>
<path d="M292.148 462V451.05H295.403C296.143 451.05 296.783 451.19 297.323 451.47C297.873 451.75 298.298 452.145 298.598 452.655C298.898 453.165 299.048 453.77 299.048 454.47V458.565C299.048 459.255 298.898 459.86 298.598 460.38C298.298 460.89 297.873 461.29 297.323 461.58C296.783 461.86 296.143 462 295.403 462H292.148ZM294.023 460.32H295.403C295.943 460.32 296.373 460.16 296.693 459.84C297.013 459.52 297.173 459.095 297.173 458.565V454.47C297.173 453.94 297.013 453.52 296.693 453.21C296.373 452.89 295.943 452.73 295.403 452.73H294.023V460.32ZM303.603 462.15C302.763 462.15 302.098 461.915 301.608 461.445C301.128 460.965 300.888 460.34 300.888 459.57C300.888 459.03 301.013 458.565 301.263 458.175C301.513 457.785 301.868 457.485 302.328 457.275C302.798 457.055 303.348 456.945 303.978 456.945H305.988V456.36C305.988 455.96 305.863 455.655 305.613 455.445C305.373 455.225 305.013 455.115 304.533 455.115C304.093 455.115 303.738 455.2 303.468 455.37C303.208 455.54 303.068 455.78 303.048 456.09H301.248C301.288 455.34 301.598 454.74 302.178 454.29C302.768 453.83 303.558 453.6 304.548 453.6C305.598 453.6 306.413 453.845 306.993 454.335C307.573 454.825 307.863 455.515 307.863 456.405V462H306.033V460.425H305.733L306.063 460.155C306.063 460.565 305.963 460.92 305.763 461.22C305.563 461.51 305.278 461.74 304.908 461.91C304.538 462.07 304.103 462.15 303.603 462.15ZM304.203 460.62C304.753 460.62 305.188 460.485 305.508 460.215C305.828 459.945 305.988 459.585 305.988 459.135V458.16H304.068C303.658 458.16 303.333 458.275 303.093 458.505C302.853 458.725 302.733 459.02 302.733 459.39C302.733 459.76 302.858 460.06 303.108 460.29C303.368 460.51 303.733 460.62 304.203 460.62ZM314.337 462C313.567 462 312.952 461.78 312.492 461.34C312.042 460.89 311.817 460.285 311.817 459.525V455.445H309.537V453.75H311.817V451.425H313.707V453.75H316.992V455.445H313.707V459.48C313.707 459.72 313.772 459.92 313.902 460.08C314.042 460.23 314.232 460.305 314.472 460.305H316.917V462H314.337ZM321.591 462.15C320.751 462.15 320.086 461.915 319.596 461.445C319.116 460.965 318.876 460.34 318.876 459.57C318.876 459.03 319.001 458.565 319.251 458.175C319.501 457.785 319.856 457.485 320.316 457.275C320.786 457.055 321.336 456.945 321.966 456.945H323.976V456.36C323.976 455.96 323.851 455.655 323.601 455.445C323.361 455.225 323.001 455.115 322.521 455.115C322.081 455.115 321.726 455.2 321.456 455.37C321.196 455.54 321.056 455.78 321.036 456.09H319.236C319.276 455.34 319.586 454.74 320.166 454.29C320.756 453.83 321.546 453.6 322.536 453.6C323.586 453.6 324.401 453.845 324.981 454.335C325.561 454.825 325.851 455.515 325.851 456.405V462H324.021V460.425H323.721L324.051 460.155C324.051 460.565 323.951 460.92 323.751 461.22C323.551 461.51 323.266 461.74 322.896 461.91C322.526 462.07 322.091 462.15 321.591 462.15ZM322.191 460.62C322.741 460.62 323.176 460.485 323.496 460.215C323.816 459.945 323.976 459.585 323.976 459.135V458.16H322.056C321.646 458.16 321.321 458.275 321.081 458.505C320.841 458.725 320.721 459.02 320.721 459.39C320.721 459.76 320.846 460.06 321.096 460.29C321.356 460.51 321.721 460.62 322.191 460.62ZM332.25 462.15C331.52 462.15 330.94 461.92 330.51 461.46C330.08 460.99 329.865 460.355 329.865 459.555L330.405 460.335H329.985V462H328.155V451.05H330.03V453.36L329.97 455.415H330.405L329.85 456.195C329.85 455.395 330.065 454.765 330.495 454.305C330.935 453.835 331.52 453.6 332.25 453.6C333.06 453.6 333.71 453.885 334.2 454.455C334.69 455.025 334.935 455.795 334.935 456.765V459C334.935 459.96 334.69 460.725 334.2 461.295C333.71 461.865 333.06 462.15 332.25 462.15ZM331.545 460.53C332.025 460.53 332.395 460.4 332.655 460.14C332.925 459.87 333.06 459.47 333.06 458.94V456.81C333.06 456.27 332.925 455.87 332.655 455.61C332.395 455.35 332.025 455.22 331.545 455.22C331.065 455.22 330.69 455.365 330.42 455.655C330.16 455.945 330.03 456.355 330.03 456.885V458.865C330.03 459.395 330.16 459.805 330.42 460.095C330.69 460.385 331.065 460.53 331.545 460.53ZM339.579 462.15C338.739 462.15 338.074 461.915 337.584 461.445C337.104 460.965 336.864 460.34 336.864 459.57C336.864 459.03 336.989 458.565 337.239 458.175C337.489 457.785 337.844 457.485 338.304 457.275C338.774 457.055 339.324 456.945 339.954 456.945H341.964V456.36C341.964 455.96 341.839 455.655 341.589 455.445C341.349 455.225 340.989 455.115 340.509 455.115C340.069 455.115 339.714 455.2 339.444 455.37C339.184 455.54 339.044 455.78 339.024 456.09H337.224C337.264 455.34 337.574 454.74 338.154 454.29C338.744 453.83 339.534 453.6 340.524 453.6C341.574 453.6 342.389 453.845 342.969 454.335C343.549 454.825 343.839 455.515 343.839 456.405V462H342.009V460.425H341.709L342.039 460.155C342.039 460.565 341.939 460.92 341.739 461.22C341.539 461.51 341.254 461.74 340.884 461.91C340.514 462.07 340.079 462.15 339.579 462.15ZM340.179 460.62C340.729 460.62 341.164 460.485 341.484 460.215C341.804 459.945 341.964 459.585 341.964 459.135V458.16H340.044C339.634 458.16 339.309 458.275 339.069 458.505C338.829 458.725 338.709 459.02 338.709 459.39C338.709 459.76 338.834 460.06 339.084 460.29C339.344 460.51 339.709 460.62 340.179 460.62ZM349.143 462.135C348.493 462.135 347.928 462.035 347.448 461.835C346.978 461.635 346.613 461.35 346.353 460.98C346.093 460.61 345.963 460.17 345.963 459.66H347.808C347.808 459.98 347.923 460.225 348.153 460.395C348.393 460.565 348.723 460.65 349.143 460.65H349.803C350.253 460.65 350.598 460.565 350.838 460.395C351.088 460.215 351.213 459.97 351.213 459.66C351.213 459.36 351.128 459.135 350.958 458.985C350.788 458.835 350.528 458.74 350.178 458.7L348.123 458.43C347.463 458.35 346.953 458.095 346.593 457.665C346.243 457.235 346.068 456.69 346.068 456.03C346.068 455.25 346.328 454.655 346.848 454.245C347.368 453.825 348.118 453.615 349.098 453.615H349.788C350.708 453.615 351.448 453.825 352.008 454.245C352.568 454.665 352.858 455.225 352.878 455.925H351.018C351.008 455.665 350.893 455.46 350.673 455.31C350.453 455.15 350.158 455.07 349.788 455.07H349.098C348.698 455.07 348.393 455.155 348.183 455.325C347.973 455.485 347.868 455.705 347.868 455.985C347.868 456.235 347.943 456.42 348.093 456.54C348.253 456.65 348.483 456.725 348.783 456.765L350.718 457.035C351.478 457.135 352.048 457.41 352.428 457.86C352.818 458.3 353.013 458.89 353.013 459.63C353.013 460.43 352.738 461.05 352.188 461.49C351.648 461.92 350.853 462.135 349.803 462.135H349.143ZM358.497 462.15C357.797 462.15 357.187 462.015 356.667 461.745C356.147 461.475 355.742 461.095 355.452 460.605C355.172 460.105 355.032 459.52 355.032 458.85V456.9C355.032 456.23 355.172 455.65 355.452 455.16C355.742 454.66 356.147 454.275 356.667 454.005C357.187 453.735 357.797 453.6 358.497 453.6C359.187 453.6 359.787 453.735 360.297 454.005C360.817 454.275 361.217 454.655 361.497 455.145C361.787 455.625 361.932 456.19 361.932 456.84V458.34H356.832V458.91C356.832 459.47 356.977 459.895 357.267 460.185C357.557 460.465 357.967 460.605 358.497 460.605C358.887 460.605 359.217 460.54 359.487 460.41C359.767 460.27 359.932 460.07 359.982 459.81H361.842C361.712 460.52 361.342 461.09 360.732 461.52C360.122 461.94 359.377 462.15 358.497 462.15ZM360.132 457.275V456.825C360.132 456.255 359.992 455.815 359.712 455.505C359.442 455.195 359.037 455.04 358.497 455.04C357.957 455.04 357.542 455.2 357.252 455.52C356.972 455.83 356.832 456.27 356.832 456.84V457.125L360.267 457.11L360.132 457.275Z" fill="white"/>
<path d="M230 183L221.34 198H238.66L230 183ZM230 250L238.66 235H221.34L230 250ZM230 196.5H228.5V236.5H230H231.5V196.5H230Z" fill="white"/>
<path d="M82.7369 26V24.192H85.0889V16.128H82.7369V14.32H89.4569V16.128H87.1049V24.192H89.4569V26H82.7369ZM92.1226 26V17.2H94.0746V18.88H94.6186L94.0266 19.344C94.0373 18.64 94.2613 18.08 94.6986 17.664C95.136 17.248 95.7173 17.04 96.4426 17.04C97.3066 17.04 97.9946 17.328 98.5066 17.904C99.0293 18.48 99.2906 19.2533 99.2906 20.224V26H97.2906V20.464C97.2906 19.92 97.152 19.504 96.8746 19.216C96.5973 18.9173 96.2133 18.768 95.7226 18.768C95.2213 18.768 94.8266 18.9173 94.5386 19.216C94.2613 19.5147 94.1226 19.9413 94.1226 20.496V26H92.1226ZM102.916 28.88V27.216H105.396C105.866 27.216 106.228 27.088 106.484 26.832C106.74 26.5867 106.868 26.2507 106.868 25.824V25.296L106.9 23.52H106.468L107.092 22.752C107.092 23.5947 106.863 24.2613 106.404 24.752C105.946 25.232 105.332 25.472 104.564 25.472C103.668 25.472 102.954 25.1733 102.42 24.576C101.898 23.968 101.636 23.1467 101.636 22.112V20.4C101.636 19.376 101.898 18.56 102.42 17.952C102.954 17.344 103.668 17.04 104.564 17.04C105.332 17.04 105.946 17.2853 106.404 17.776C106.863 18.2667 107.092 18.9333 107.092 19.776L106.468 18.72H106.9V17.2H108.852V25.872C108.852 26.8 108.543 27.5307 107.924 28.064C107.316 28.608 106.484 28.88 105.428 28.88H102.916ZM105.236 23.76C105.748 23.76 106.143 23.6107 106.42 23.312C106.708 23.0027 106.852 22.576 106.852 22.032V20.496C106.852 19.952 106.708 19.5307 106.42 19.232C106.143 18.9227 105.748 18.768 105.236 18.768C104.724 18.768 104.33 18.9173 104.052 19.216C103.775 19.504 103.636 19.9093 103.636 20.432V22.096C103.636 22.6187 103.775 23.0293 104.052 23.328C104.33 23.616 104.724 23.76 105.236 23.76ZM114.894 26.16C114.147 26.16 113.497 26.016 112.942 25.728C112.387 25.44 111.955 25.0347 111.646 24.512C111.347 23.9787 111.198 23.3547 111.198 22.64V20.56C111.198 19.8453 111.347 19.2267 111.646 18.704C111.955 18.1707 112.387 17.76 112.942 17.472C113.497 17.184 114.147 17.04 114.894 17.04C115.63 17.04 116.27 17.184 116.814 17.472C117.369 17.76 117.795 18.1653 118.094 18.688C118.403 19.2 118.558 19.8027 118.558 20.496V22.096H113.118V22.704C113.118 23.3013 113.273 23.7547 113.582 24.064C113.891 24.3627 114.329 24.512 114.894 24.512C115.31 24.512 115.662 24.4427 115.95 24.304C116.249 24.1547 116.425 23.9413 116.478 23.664H118.462C118.323 24.4213 117.929 25.0293 117.278 25.488C116.627 25.936 115.833 26.16 114.894 26.16ZM116.638 20.96V20.48C116.638 19.872 116.489 19.4027 116.19 19.072C115.902 18.7413 115.47 18.576 114.894 18.576C114.318 18.576 113.875 18.7467 113.566 19.088C113.267 19.4187 113.118 19.888 113.118 20.496V20.8L116.782 20.784L116.638 20.96ZM124.104 26.144C123.411 26.144 122.808 26.0373 122.296 25.824C121.795 25.6107 121.405 25.3067 121.128 24.912C120.851 24.5173 120.712 24.048 120.712 23.504H122.68C122.68 23.8453 122.803 24.1067 123.048 24.288C123.304 24.4693 123.656 24.56 124.104 24.56H124.808C125.288 24.56 125.656 24.4693 125.912 24.288C126.179 24.096 126.312 23.8347 126.312 23.504C126.312 23.184 126.221 22.944 126.04 22.784C125.859 22.624 125.581 22.5227 125.208 22.48L123.016 22.192C122.312 22.1067 121.768 21.8347 121.384 21.376C121.011 20.9173 120.824 20.336 120.824 19.632C120.824 18.8 121.101 18.1653 121.656 17.728C122.211 17.28 123.011 17.056 124.056 17.056H124.792C125.773 17.056 126.563 17.28 127.16 17.728C127.757 18.176 128.067 18.7733 128.088 19.52H126.104C126.093 19.2427 125.971 19.024 125.736 18.864C125.501 18.6933 125.187 18.608 124.792 18.608H124.056C123.629 18.608 123.304 18.6987 123.08 18.88C122.856 19.0507 122.744 19.2853 122.744 19.584C122.744 19.8507 122.824 20.048 122.984 20.176C123.155 20.2933 123.4 20.3733 123.72 20.416L125.784 20.704C126.595 20.8107 127.203 21.104 127.608 21.584C128.024 22.0533 128.232 22.6827 128.232 23.472C128.232 24.3253 127.939 24.9867 127.352 25.456C126.776 25.9147 125.928 26.144 124.808 26.144H124.104ZM134.946 26C134.124 26 133.468 25.7653 132.978 25.296C132.498 24.816 132.258 24.1707 132.258 23.36V19.008H129.826V17.2H132.258V14.72H134.274V17.2H137.778V19.008H134.274V23.312C134.274 23.568 134.343 23.7813 134.482 23.952C134.631 24.112 134.834 24.192 135.09 24.192H137.698V26H134.946ZM140.075 26V24.192H143.083V19.008H140.395V17.2H145.083V24.192H147.787V26H140.075ZM143.947 15.728C143.542 15.728 143.222 15.6267 142.987 15.424C142.753 15.2107 142.635 14.928 142.635 14.576C142.635 14.224 142.753 13.9467 142.987 13.744C143.222 13.5307 143.542 13.424 143.947 13.424C144.353 13.424 144.673 13.5307 144.907 13.744C145.142 13.9467 145.259 14.224 145.259 14.576C145.259 14.928 145.142 15.2107 144.907 15.424C144.673 15.6267 144.353 15.728 143.947 15.728ZM153.253 26.144C152.506 26.144 151.856 26 151.301 25.712C150.746 25.424 150.32 25.0187 150.021 24.496C149.722 23.9627 149.573 23.3387 149.573 22.624V20.576C149.573 19.8507 149.722 19.2267 150.021 18.704C150.32 18.1813 150.746 17.776 151.301 17.488C151.856 17.2 152.506 17.056 153.253 17.056C154.01 17.056 154.661 17.2 155.205 17.488C155.76 17.776 156.186 18.1813 156.485 18.704C156.784 19.2267 156.933 19.8507 156.933 20.576V22.624C156.933 23.3387 156.784 23.9627 156.485 24.496C156.186 25.0187 155.76 25.424 155.205 25.712C154.661 26 154.01 26.144 153.253 26.144ZM153.253 24.4C153.786 24.4 154.197 24.256 154.485 23.968C154.784 23.6693 154.933 23.2427 154.933 22.688V20.512C154.933 19.9467 154.784 19.52 154.485 19.232C154.197 18.944 153.786 18.8 153.253 18.8C152.73 18.8 152.32 18.944 152.021 19.232C151.722 19.52 151.573 19.9467 151.573 20.512V22.688C151.573 23.2427 151.722 23.6693 152.021 23.968C152.32 24.256 152.73 24.4 153.253 24.4ZM159.279 26V17.2H161.231V18.88H161.775L161.183 19.344C161.194 18.64 161.418 18.08 161.855 17.664C162.292 17.248 162.874 17.04 163.599 17.04C164.463 17.04 165.151 17.328 165.663 17.904C166.186 18.48 166.447 19.2533 166.447 20.224V26H164.447V20.464C164.447 19.92 164.308 19.504 164.031 19.216C163.754 18.9173 163.37 18.768 162.879 18.768C162.378 18.768 161.983 18.9173 161.695 19.216C161.418 19.5147 161.279 19.9413 161.279 20.496V26H159.279ZM182.034 21.92C181.586 21.92 181.224 21.7867 180.946 21.52C180.68 21.2427 180.546 20.8853 180.546 20.448C180.546 20 180.68 19.6427 180.946 19.376C181.224 19.0987 181.586 18.96 182.034 18.96C182.482 18.96 182.84 19.0987 183.106 19.376C183.384 19.6427 183.522 20 183.522 20.448C183.522 20.8853 183.384 21.2427 183.106 21.52C182.84 21.7867 182.482 21.92 182.034 21.92ZM197.654 26V14.32H201.334C202.113 14.32 202.785 14.464 203.35 14.752C203.926 15.04 204.374 15.4453 204.694 15.968C205.014 16.48 205.174 17.088 205.174 17.792C205.174 18.56 204.982 19.2373 204.598 19.824C204.214 20.4107 203.697 20.8267 203.046 21.072L205.334 26H203.142L201.094 21.36H199.638V26H197.654ZM199.638 19.6H201.334C201.899 19.6 202.342 19.4453 202.662 19.136C202.982 18.8267 203.142 18.4 203.142 17.856C203.142 17.3013 202.982 16.8693 202.662 16.56C202.342 16.24 201.899 16.08 201.334 16.08H199.638V19.6ZM210.832 26.16C210.085 26.16 209.434 26.016 208.88 25.728C208.325 25.44 207.893 25.0347 207.584 24.512C207.285 23.9787 207.136 23.3547 207.136 22.64V20.56C207.136 19.8453 207.285 19.2267 207.584 18.704C207.893 18.1707 208.325 17.76 208.88 17.472C209.434 17.184 210.085 17.04 210.832 17.04C211.568 17.04 212.208 17.184 212.752 17.472C213.306 17.76 213.733 18.1653 214.032 18.688C214.341 19.2 214.496 19.8027 214.496 20.496V22.096H209.056V22.704C209.056 23.3013 209.21 23.7547 209.52 24.064C209.829 24.3627 210.266 24.512 210.832 24.512C211.248 24.512 211.6 24.4427 211.888 24.304C212.186 24.1547 212.362 23.9413 212.416 23.664H214.4C214.261 24.4213 213.866 25.0293 213.216 25.488C212.565 25.936 211.77 26.16 210.832 26.16ZM212.576 20.96V20.48C212.576 19.872 212.426 19.4027 212.128 19.072C211.84 18.7413 211.408 18.576 210.832 18.576C210.256 18.576 209.813 18.7467 209.504 19.088C209.205 19.4187 209.056 19.888 209.056 20.496V20.8L212.72 20.784L212.576 20.96ZM221.289 26C220.468 26 219.812 25.7653 219.321 25.296C218.841 24.816 218.601 24.1707 218.601 23.36V19.008H216.169V17.2H218.601V14.72H220.617V17.2H224.121V19.008H220.617V23.312C220.617 23.568 220.687 23.7813 220.825 23.952C220.975 24.112 221.177 24.192 221.433 24.192H224.041V26H221.289ZM226.755 26V17.2H228.707V18.976H229.251L228.659 19.456C228.659 18.7093 228.878 18.1227 229.315 17.696C229.763 17.2587 230.371 17.04 231.139 17.04C232.035 17.04 232.734 17.328 233.235 17.904C233.736 18.48 233.987 19.2853 233.987 20.32V21.152H231.987V20.416C231.987 19.872 231.848 19.4613 231.571 19.184C231.294 18.9067 230.899 18.768 230.387 18.768C229.864 18.768 229.459 18.928 229.171 19.248C228.894 19.568 228.755 20.0213 228.755 20.608V26H226.755ZM236.013 26V24.192H239.021V19.008H236.333V17.2H241.021V24.192H243.725V26H236.013ZM239.885 15.728C239.48 15.728 239.16 15.6267 238.925 15.424C238.69 15.2107 238.573 14.928 238.573 14.576C238.573 14.224 238.69 13.9467 238.925 13.744C239.16 13.5307 239.48 13.424 239.885 13.424C240.29 13.424 240.61 13.5307 240.845 13.744C241.08 13.9467 241.197 14.224 241.197 14.576C241.197 14.928 241.08 15.2107 240.845 15.424C240.61 15.6267 240.29 15.728 239.885 15.728ZM249.207 26.16C248.46 26.16 247.809 26.016 247.255 25.728C246.7 25.44 246.268 25.0347 245.959 24.512C245.66 23.9787 245.511 23.3547 245.511 22.64V20.56C245.511 19.8453 245.66 19.2267 245.959 18.704C246.268 18.1707 246.7 17.76 247.255 17.472C247.809 17.184 248.46 17.04 249.207 17.04C249.943 17.04 250.583 17.184 251.127 17.472C251.681 17.76 252.108 18.1653 252.407 18.688C252.716 19.2 252.871 19.8027 252.871 20.496V22.096H247.431V22.704C247.431 23.3013 247.585 23.7547 247.895 24.064C248.204 24.3627 248.641 24.512 249.207 24.512C249.623 24.512 249.975 24.4427 250.263 24.304C250.561 24.1547 250.737 23.9413 250.791 23.664H252.775C252.636 24.4213 252.241 25.0293 251.591 25.488C250.94 25.936 250.145 26.16 249.207 26.16ZM250.951 20.96V20.48C250.951 19.872 250.801 19.4027 250.503 19.072C250.215 18.7413 249.783 18.576 249.207 18.576C248.631 18.576 248.188 18.7467 247.879 19.088C247.58 19.4187 247.431 19.888 247.431 20.496V20.8L251.095 20.784L250.951 20.96ZM257.52 26L254.56 17.2H256.656L258.352 22.544C258.459 22.864 258.555 23.1893 258.64 23.52C258.726 23.84 258.779 24.1173 258.8 24.352C258.843 24.1173 258.902 23.84 258.976 23.52C259.051 23.1893 259.131 22.8693 259.216 22.56L260.896 17.2H263.008L260.064 26H257.52ZM267.402 26.16C266.506 26.16 265.797 25.9093 265.274 25.408C264.762 24.896 264.506 24.2293 264.506 23.408C264.506 22.832 264.639 22.336 264.906 21.92C265.173 21.504 265.551 21.184 266.042 20.96C266.543 20.7253 267.13 20.608 267.802 20.608H269.946V19.984C269.946 19.5573 269.813 19.232 269.546 19.008C269.29 18.7733 268.906 18.656 268.394 18.656C267.925 18.656 267.546 18.7467 267.258 18.928C266.981 19.1093 266.831 19.3653 266.81 19.696H264.89C264.933 18.896 265.263 18.256 265.882 17.776C266.511 17.2853 267.354 17.04 268.41 17.04C269.53 17.04 270.399 17.3013 271.018 17.824C271.637 18.3467 271.946 19.0827 271.946 20.032V26H269.994V24.32H269.674L270.026 24.032C270.026 24.4693 269.919 24.848 269.706 25.168C269.493 25.4773 269.189 25.7227 268.794 25.904C268.399 26.0747 267.935 26.16 267.402 26.16ZM268.042 24.528C268.629 24.528 269.093 24.384 269.434 24.096C269.775 23.808 269.946 23.424 269.946 22.944V21.904H267.898C267.461 21.904 267.114 22.0267 266.858 22.272C266.602 22.5067 266.474 22.8213 266.474 23.216C266.474 23.6107 266.607 23.9307 266.874 24.176C267.151 24.4107 267.541 24.528 268.042 24.528ZM279.396 26C278.82 26 278.313 25.8827 277.876 25.648C277.449 25.4133 277.113 25.0827 276.868 24.656C276.623 24.2187 276.5 23.7173 276.5 23.152V16.128H273.604V14.32H278.5V23.104C278.5 23.4347 278.591 23.7013 278.772 23.904C278.964 24.096 279.22 24.192 279.54 24.192H282.116V26H279.396ZM297.159 21.92C296.711 21.92 296.349 21.7867 296.071 21.52C295.805 21.2427 295.671 20.8853 295.671 20.448C295.671 20 295.805 19.6427 296.071 19.376C296.349 19.0987 296.711 18.96 297.159 18.96C297.607 18.96 297.965 19.0987 298.231 19.376C298.509 19.6427 298.647 20 298.647 20.448C298.647 20.8853 298.509 21.2427 298.231 21.52C297.965 21.7867 297.607 21.92 297.159 21.92ZM318.091 28.88L316.331 25.984L316.683 26.144C316.64 26.144 316.587 26.144 316.523 26.144C316.47 26.1547 316.411 26.16 316.347 26.16C315.6 26.16 314.95 26.016 314.395 25.728C313.84 25.44 313.408 25.0347 313.099 24.512C312.79 23.9787 312.635 23.3653 312.635 22.672V17.648C312.635 16.9333 312.79 16.32 313.099 15.808C313.408 15.2853 313.84 14.88 314.395 14.592C314.95 14.304 315.6 14.16 316.347 14.16C317.094 14.16 317.744 14.304 318.299 14.592C318.854 14.88 319.286 15.2853 319.595 15.808C319.904 16.3307 320.059 16.944 320.059 17.648V22.672C320.059 23.376 319.904 23.9947 319.595 24.528C319.296 25.0507 318.87 25.4507 318.315 25.728L320.251 28.88H318.091ZM316.347 24.4C316.902 24.4 317.323 24.2507 317.611 23.952C317.91 23.6427 318.059 23.216 318.059 22.672V17.648C318.059 17.0933 317.904 16.6667 317.595 16.368C317.296 16.0587 316.88 15.904 316.347 15.904C315.814 15.904 315.392 16.0587 315.083 16.368C314.784 16.6667 314.635 17.0933 314.635 17.648V22.672C314.635 23.216 314.784 23.6427 315.083 23.952C315.382 24.2507 315.803 24.4 316.347 24.4ZM325.941 26.16C324.821 26.16 323.941 25.8507 323.301 25.232C322.661 24.6027 322.341 23.7493 322.341 22.672V17.2H324.341V22.656C324.341 23.2107 324.479 23.6427 324.757 23.952C325.034 24.2613 325.429 24.416 325.941 24.416C326.442 24.416 326.831 24.2613 327.109 23.952C327.397 23.6427 327.541 23.2107 327.541 22.656V17.2H329.541V22.672C329.541 23.7493 329.215 24.6027 328.565 25.232C327.914 25.8507 327.039 26.16 325.941 26.16ZM335.55 26.16C334.804 26.16 334.153 26.016 333.598 25.728C333.044 25.44 332.612 25.0347 332.302 24.512C332.004 23.9787 331.854 23.3547 331.854 22.64V20.56C331.854 19.8453 332.004 19.2267 332.302 18.704C332.612 18.1707 333.044 17.76 333.598 17.472C334.153 17.184 334.804 17.04 335.55 17.04C336.286 17.04 336.926 17.184 337.47 17.472C338.025 17.76 338.452 18.1653 338.75 18.688C339.06 19.2 339.214 19.8027 339.214 20.496V22.096H333.774V22.704C333.774 23.3013 333.929 23.7547 334.238 24.064C334.548 24.3627 334.985 24.512 335.55 24.512C335.966 24.512 336.318 24.4427 336.606 24.304C336.905 24.1547 337.081 23.9413 337.134 23.664H339.118C338.98 24.4213 338.585 25.0293 337.934 25.488C337.284 25.936 336.489 26.16 335.55 26.16ZM337.294 20.96V20.48C337.294 19.872 337.145 19.4027 336.846 19.072C336.558 18.7413 336.126 18.576 335.55 18.576C334.974 18.576 334.532 18.7467 334.222 19.088C333.924 19.4187 333.774 19.888 333.774 20.496V20.8L337.438 20.784L337.294 20.96ZM341.88 26V17.2H343.832V18.976H344.376L343.784 19.456C343.784 18.7093 344.003 18.1227 344.44 17.696C344.888 17.2587 345.496 17.04 346.264 17.04C347.16 17.04 347.859 17.328 348.36 17.904C348.861 18.48 349.112 19.2853 349.112 20.32V21.152H347.112V20.416C347.112 19.872 346.973 19.4613 346.696 19.184C346.419 18.9067 346.024 18.768 345.512 18.768C344.989 18.768 344.584 18.928 344.296 19.248C344.019 19.568 343.88 20.0213 343.88 20.608V26H341.88ZM351.138 26V24.192H354.146V19.008H351.458V17.2H356.146V24.192H358.85V26H351.138ZM355.01 15.728C354.605 15.728 354.285 15.6267 354.05 15.424C353.815 15.2107 353.698 14.928 353.698 14.576C353.698 14.224 353.815 13.9467 354.05 13.744C354.285 13.5307 354.605 13.424 355.01 13.424C355.415 13.424 355.735 13.5307 355.97 13.744C356.205 13.9467 356.322 14.224 356.322 14.576C356.322 14.928 356.205 15.2107 355.97 15.424C355.735 15.6267 355.415 15.728 355.01 15.728ZM364.332 26.16C363.585 26.16 362.934 26.016 362.38 25.728C361.825 25.44 361.393 25.0347 361.084 24.512C360.785 23.9787 360.636 23.3547 360.636 22.64V20.56C360.636 19.8453 360.785 19.2267 361.084 18.704C361.393 18.1707 361.825 17.76 362.38 17.472C362.934 17.184 363.585 17.04 364.332 17.04C365.068 17.04 365.708 17.184 366.252 17.472C366.806 17.76 367.233 18.1653 367.532 18.688C367.841 19.2 367.996 19.8027 367.996 20.496V22.096H362.556V22.704C362.556 23.3013 362.71 23.7547 363.02 24.064C363.329 24.3627 363.766 24.512 364.332 24.512C364.748 24.512 365.1 24.4427 365.388 24.304C365.686 24.1547 365.862 23.9413 365.916 23.664H367.9C367.761 24.4213 367.366 25.0293 366.716 25.488C366.065 25.936 365.27 26.16 364.332 26.16ZM366.076 20.96V20.48C366.076 19.872 365.926 19.4027 365.628 19.072C365.34 18.7413 364.908 18.576 364.332 18.576C363.756 18.576 363.313 18.7467 363.004 19.088C362.705 19.4187 362.556 19.888 362.556 20.496V20.8L366.22 20.784L366.076 20.96ZM373.541 26.144C372.848 26.144 372.245 26.0373 371.733 25.824C371.232 25.6107 370.843 25.3067 370.565 24.912C370.288 24.5173 370.149 24.048 370.149 23.504H372.117C372.117 23.8453 372.24 24.1067 372.485 24.288C372.741 24.4693 373.093 24.56 373.541 24.56H374.245C374.725 24.56 375.093 24.4693 375.349 24.288C375.616 24.096 375.749 23.8347 375.749 23.504C375.749 23.184 375.659 22.944 375.477 22.784C375.296 22.624 375.019 22.5227 374.645 22.48L372.453 22.192C371.749 22.1067 371.205 21.8347 370.821 21.376C370.448 20.9173 370.261 20.336 370.261 19.632C370.261 18.8 370.539 18.1653 371.093 17.728C371.648 17.28 372.448 17.056 373.493 17.056H374.229C375.211 17.056 376 17.28 376.597 17.728C377.195 18.176 377.504 18.7733 377.525 19.52H375.541C375.531 19.2427 375.408 19.024 375.173 18.864C374.939 18.6933 374.624 18.608 374.229 18.608H373.493C373.067 18.608 372.741 18.6987 372.517 18.88C372.293 19.0507 372.181 19.2853 372.181 19.584C372.181 19.8507 372.261 20.048 372.421 20.176C372.592 20.2933 372.837 20.3733 373.157 20.416L375.221 20.704C376.032 20.8107 376.64 21.104 377.045 21.584C377.461 22.0533 377.669 22.6827 377.669 23.472C377.669 24.3253 377.376 24.9867 376.789 25.456C376.213 25.9147 375.365 26.144 374.245 26.144H373.541Z" fill="white"/>
<path d="M230 35L221.34 50H238.66L230 35ZM230 102L238.66 87H221.34L230 102ZM230 48.5H228.5V88.5H230H231.5V48.5H230Z" fill="white"/>
<path d="M133 328L124.34 343H141.66L133 328ZM133 417.5L141.66 402.5H124.34L133 417.5ZM133 341.5H131.5V404H133H134.5V341.5H133Z" fill="white"/>
<path d="M327 328L318.34 343H335.66L327 328ZM327 417.5L335.66 402.5H318.34L327 417.5ZM327 341.5H325.5V404H327H328.5V341.5H327Z" fill="white"/>
<defs>
<linearGradient id="paint0_linear_431_3" x1="43" y1="140.5" x2="416" y2="140.5" gradientUnits="userSpaceOnUse">
<stop stop-color="#0C495D"/>
<stop offset="0.514423" stop-color="#1A99C3"/>
<stop offset="1" stop-color="#0C495D"/>
</linearGradient>
<linearGradient id="paint1_linear_431_3" x1="43" y1="288.5" x2="416" y2="288.5" gradientUnits="userSpaceOnUse">
<stop stop-color="#571A53"/>
<stop offset="0.504808" stop-color="#BD38B4"/>
<stop offset="1" stop-color="#571A53"/>
</linearGradient>
<linearGradient id="paint2_linear_431_3" x1="132.5" y1="419" x2="133" y2="496" gradientUnits="userSpaceOnUse">
<stop stop-color="#1C1C1C"/>
<stop offset="1" stop-color="#3B3B3B"/>
</linearGradient>
<linearGradient id="paint3_linear_431_3" x1="326.5" y1="419" x2="326.5" y2="496" gradientUnits="userSpaceOnUse">
<stop stop-color="#1C1C1C"/>
<stop offset="1" stop-color="#3B3B3B"/>
</linearGradient>
</defs>
</svg>
