<svg width="690" height="255" viewBox="0 0 690 255" fill="none" xmlns="http://www.w3.org/2000/svg">
<path d="M30.54 90V75.4H35.14C36.1133 75.4 36.9533 75.58 37.66 75.94C38.38 76.3 38.94 76.8067 39.34 77.46C39.74 78.1 39.94 78.86 39.94 79.74C39.94 80.7 39.7 81.5467 39.22 82.28C38.74 83.0133 38.0933 83.5333 37.28 83.84L40.14 90H37.4L34.84 84.2H33.02V90H30.54ZM33.02 82H35.14C35.8467 82 36.4 81.8067 36.8 81.42C37.2 81.0333 37.4 80.5 37.4 79.82C37.4 79.1267 37.2 78.5867 36.8 78.2C36.4 77.8 35.8467 77.6 35.14 77.6H33.02V82ZM46.9922 90.18C46.0589 90.18 45.2455 90 44.5522 89.64C43.8589 89.28 43.3255 88.7733 42.9522 88.12C42.5789 87.4533 42.3922 86.6733 42.3922 85.78V83.22C42.3922 82.3133 42.5789 81.5333 42.9522 80.88C43.3255 80.2267 43.8589 79.72 44.5522 79.36C45.2455 79 46.0589 78.82 46.9922 78.82C47.9389 78.82 48.7522 79 49.4322 79.36C50.1255 79.72 50.6589 80.2267 51.0322 80.88C51.4055 81.5333 51.5922 82.3133 51.5922 83.22V85.78C51.5922 86.6733 51.4055 87.4533 51.0322 88.12C50.6589 88.7733 50.1255 89.28 49.4322 89.64C48.7522 90 47.9389 90.18 46.9922 90.18ZM46.9922 88C47.6589 88 48.1722 87.82 48.5322 87.46C48.9055 87.0867 49.0922 86.5533 49.0922 85.86V83.14C49.0922 82.4333 48.9055 81.9 48.5322 81.54C48.1722 81.18 47.6589 81 46.9922 81C46.3389 81 45.8255 81.18 45.4522 81.54C45.0789 81.9 44.8922 82.4333 44.8922 83.14V85.86C44.8922 86.5533 45.0789 87.0867 45.4522 87.46C45.8255 87.82 46.3389 88 46.9922 88ZM59.9844 90.2C59.011 90.2 58.2377 89.8933 57.6644 89.28C57.091 88.6533 56.8044 87.8067 56.8044 86.74L57.5244 87.78H56.9644V90H54.5244V75.4H57.0244V78.48L56.9444 81.22H57.5244L56.7844 82.26C56.7844 81.1933 57.071 80.3533 57.6444 79.74C58.231 79.1133 59.011 78.8 59.9844 78.8C61.0644 78.8 61.931 79.18 62.5844 79.94C63.2377 80.7 63.5644 81.7267 63.5644 83.02V86C63.5644 87.28 63.2377 88.3 62.5844 89.06C61.931 89.82 61.0644 90.2 59.9844 90.2ZM59.0444 88.04C59.6844 88.04 60.1777 87.8667 60.5244 87.52C60.8844 87.16 61.0644 86.6267 61.0644 85.92V83.08C61.0644 82.36 60.8844 81.8267 60.5244 81.48C60.1777 81.1333 59.6844 80.96 59.0444 80.96C58.4044 80.96 57.9044 81.1533 57.5444 81.54C57.1977 81.9267 57.0244 82.4733 57.0244 83.18V85.82C57.0244 86.5267 57.1977 87.0733 57.5444 87.46C57.9044 87.8467 58.4044 88.04 59.0444 88.04ZM70.9766 90.18C70.0432 90.18 69.2299 90 68.5366 89.64C67.8432 89.28 67.3099 88.7733 66.9366 88.12C66.5632 87.4533 66.3766 86.6733 66.3766 85.78V83.22C66.3766 82.3133 66.5632 81.5333 66.9366 80.88C67.3099 80.2267 67.8432 79.72 68.5366 79.36C69.2299 79 70.0432 78.82 70.9766 78.82C71.9232 78.82 72.7366 79 73.4166 79.36C74.1099 79.72 74.6432 80.2267 75.0166 80.88C75.3899 81.5333 75.5766 82.3133 75.5766 83.22V85.78C75.5766 86.6733 75.3899 87.4533 75.0166 88.12C74.6432 88.7733 74.1099 89.28 73.4166 89.64C72.7366 90 71.9232 90.18 70.9766 90.18ZM70.9766 88C71.6432 88 72.1566 87.82 72.5166 87.46C72.8899 87.0867 73.0766 86.5533 73.0766 85.86V83.14C73.0766 82.4333 72.8899 81.9 72.5166 81.54C72.1566 81.18 71.6432 81 70.9766 81C70.3232 81 69.8099 81.18 69.4366 81.54C69.0632 81.9 68.8766 82.4333 68.8766 83.14V85.86C68.8766 86.5533 69.0632 87.0867 69.4366 87.46C69.8099 87.82 70.3232 88 70.9766 88ZM84.0688 90C83.0421 90 82.2221 89.7067 81.6088 89.12C81.0088 88.52 80.7088 87.7133 80.7088 86.7V81.26H77.6688V79H80.7088V75.9H83.2288V79H87.6088V81.26H83.2288V86.64C83.2288 86.96 83.3154 87.2267 83.4888 87.44C83.6754 87.64 83.9288 87.74 84.2488 87.74H87.5088V90H84.0688Z" fill="white"/>
<path d="M182 58.5V57.5M207.875 36H254V129H182V57.5M207.875 36L182 57.5M207.875 36V57.5H182" stroke="white" stroke-width="2"/>
<rect x="348" y="37" width="170" height="91" fill="url(#paint0_linear_433_3)" stroke="white" stroke-width="2"/>
<path d="M185.625 169.18C185.169 169.18 184.803 169.048 184.527 168.784C184.263 168.52 184.131 168.166 184.131 167.722C184.131 167.254 184.263 166.882 184.527 166.606C184.803 166.33 185.169 166.192 185.625 166.192C186.081 166.192 186.441 166.33 186.705 166.606C186.981 166.882 187.119 167.254 187.119 167.722C187.119 168.166 186.981 168.52 186.705 168.784C186.441 169.048 186.081 169.18 185.625 169.18ZM196.49 169.18C195.698 169.18 195.002 169.03 194.402 168.73C193.814 168.43 193.358 167.998 193.034 167.434C192.71 166.858 192.548 166.18 192.548 165.4V162.7C192.548 161.908 192.71 161.23 193.034 160.666C193.358 160.102 193.814 159.67 194.402 159.37C195.002 159.07 195.698 158.92 196.49 158.92C197.63 158.92 198.548 159.226 199.244 159.838C199.94 160.45 200.306 161.284 200.342 162.34H198.722C198.686 161.704 198.47 161.218 198.074 160.882C197.69 160.534 197.162 160.36 196.49 160.36C195.782 160.36 195.218 160.564 194.798 160.972C194.378 161.368 194.168 161.938 194.168 162.682V165.4C194.168 166.144 194.378 166.72 194.798 167.128C195.218 167.536 195.782 167.74 196.49 167.74C197.162 167.74 197.69 167.566 198.074 167.218C198.47 166.87 198.686 166.384 198.722 165.76H200.342C200.306 166.816 199.94 167.65 199.244 168.262C198.548 168.874 197.63 169.18 196.49 169.18ZM207.193 169.18C206.053 169.18 205.141 168.844 204.457 168.172C203.773 167.488 203.431 166.564 203.431 165.4V159.1H205.051V165.4C205.051 166.144 205.243 166.726 205.627 167.146C206.011 167.554 206.533 167.758 207.193 167.758C207.865 167.758 208.393 167.554 208.777 167.146C209.173 166.726 209.371 166.144 209.371 165.4V159.1H210.991V165.4C210.991 166.564 210.643 167.488 209.947 168.172C209.251 168.844 208.333 169.18 207.193 169.18ZM217.698 169.144C217.026 169.144 216.438 169.042 215.934 168.838C215.442 168.622 215.046 168.322 214.746 167.938C214.458 167.554 214.284 167.098 214.224 166.57H215.844C215.916 166.918 216.108 167.194 216.42 167.398C216.744 167.602 217.17 167.704 217.698 167.704H218.454C219.09 167.704 219.564 167.578 219.876 167.326C220.188 167.062 220.344 166.714 220.344 166.282C220.344 165.862 220.2 165.532 219.912 165.292C219.636 165.04 219.222 164.872 218.67 164.788L217.338 164.572C216.366 164.404 215.64 164.104 215.16 163.672C214.692 163.228 214.458 162.586 214.458 161.746C214.458 160.858 214.74 160.174 215.304 159.694C215.868 159.202 216.714 158.956 217.842 158.956H218.526C219.474 158.956 220.236 159.178 220.812 159.622C221.388 160.066 221.736 160.666 221.856 161.422H220.236C220.164 161.11 219.984 160.864 219.696 160.684C219.408 160.492 219.018 160.396 218.526 160.396H217.842C217.23 160.396 216.78 160.51 216.492 160.738C216.216 160.966 216.078 161.308 216.078 161.764C216.078 162.172 216.198 162.472 216.438 162.664C216.678 162.856 217.056 162.994 217.572 163.078L218.904 163.294C219.972 163.462 220.746 163.774 221.226 164.23C221.718 164.686 221.964 165.346 221.964 166.21C221.964 167.122 221.67 167.842 221.082 168.37C220.506 168.886 219.63 169.144 218.454 169.144H217.698ZM229.876 169C229.024 169 228.358 168.772 227.878 168.316C227.41 167.86 227.176 167.218 227.176 166.39V160.576H224.386V159.1H227.176V156.31H228.796V159.1H232.756V160.576H228.796V166.39C228.796 167.146 229.156 167.524 229.876 167.524H232.576V169H229.876ZM239.589 169.144C238.797 169.144 238.113 168.994 237.537 168.694C236.961 168.394 236.511 167.962 236.187 167.398C235.875 166.822 235.719 166.144 235.719 165.364V162.736C235.719 161.944 235.875 161.266 236.187 160.702C236.511 160.138 236.961 159.706 237.537 159.406C238.113 159.106 238.797 158.956 239.589 158.956C240.381 158.956 241.065 159.106 241.641 159.406C242.217 159.706 242.661 160.138 242.973 160.702C243.297 161.266 243.459 161.938 243.459 162.718V165.364C243.459 166.144 243.297 166.822 242.973 167.398C242.661 167.962 242.217 168.394 241.641 168.694C241.065 168.994 240.381 169.144 239.589 169.144ZM239.589 167.704C240.297 167.704 240.849 167.506 241.245 167.11C241.641 166.714 241.839 166.132 241.839 165.364V162.736C241.839 161.968 241.641 161.386 241.245 160.99C240.849 160.594 240.297 160.396 239.589 160.396C238.893 160.396 238.341 160.594 237.933 160.99C237.537 161.386 237.339 161.968 237.339 162.736V165.364C237.339 166.132 237.537 166.714 237.933 167.11C238.341 167.506 238.893 167.704 239.589 167.704ZM246.17 169V159.1H247.592V160.288H247.916L247.664 160.72C247.664 160.168 247.808 159.73 248.096 159.406C248.396 159.082 248.798 158.92 249.302 158.92C249.854 158.92 250.28 159.124 250.58 159.532C250.88 159.94 251.03 160.516 251.03 161.26L250.544 160.288H251.3L250.958 160.72C250.958 160.168 251.108 159.73 251.408 159.406C251.72 159.082 252.128 158.92 252.632 158.92C253.256 158.92 253.736 159.154 254.072 159.622C254.42 160.09 254.594 160.708 254.594 161.476V169H253.1V161.458C253.1 161.05 253.01 160.732 252.83 160.504C252.662 160.276 252.41 160.162 252.074 160.162C251.75 160.162 251.492 160.276 251.3 160.504C251.12 160.72 251.03 161.032 251.03 161.44V169H249.734V161.458C249.734 161.038 249.638 160.72 249.446 160.504C249.266 160.276 249.008 160.162 248.672 160.162C248.336 160.162 248.084 160.276 247.916 160.504C247.748 160.72 247.664 161.032 247.664 161.44V169H246.17ZM196.418 193.18C195.962 193.18 195.596 193.048 195.32 192.784C195.056 192.52 194.924 192.166 194.924 191.722C194.924 191.254 195.056 190.882 195.32 190.606C195.596 190.33 195.962 190.192 196.418 190.192C196.874 190.192 197.234 190.33 197.498 190.606C197.774 190.882 197.912 191.254 197.912 191.722C197.912 192.166 197.774 192.52 197.498 192.784C197.234 193.048 196.874 193.18 196.418 193.18ZM202.999 193V183.1H204.421V184.288H204.745L204.493 184.72C204.493 184.168 204.637 183.73 204.925 183.406C205.225 183.082 205.627 182.92 206.131 182.92C206.683 182.92 207.109 183.124 207.409 183.532C207.709 183.94 207.859 184.516 207.859 185.26L207.373 184.288H208.129L207.787 184.72C207.787 184.168 207.937 183.73 208.237 183.406C208.549 183.082 208.957 182.92 209.461 182.92C210.085 182.92 210.565 183.154 210.901 183.622C211.249 184.09 211.423 184.708 211.423 185.476V193H209.929V185.458C209.929 185.05 209.839 184.732 209.659 184.504C209.491 184.276 209.239 184.162 208.903 184.162C208.579 184.162 208.321 184.276 208.129 184.504C207.949 184.72 207.859 185.032 207.859 185.44V193H206.563V185.458C206.563 185.038 206.467 184.72 206.275 184.504C206.095 184.276 205.837 184.162 205.501 184.162C205.165 184.162 204.913 184.276 204.745 184.504C204.577 184.72 204.493 185.032 204.493 185.44V193H202.999ZM218.076 193.18C217.284 193.18 216.588 193.03 215.988 192.73C215.4 192.43 214.944 191.998 214.62 191.434C214.296 190.858 214.134 190.18 214.134 189.4V186.7C214.134 185.908 214.296 185.23 214.62 184.666C214.944 184.102 215.4 183.67 215.988 183.37C216.588 183.07 217.284 182.92 218.076 182.92C219.216 182.92 220.134 183.226 220.83 183.838C221.526 184.45 221.892 185.284 221.928 186.34H220.308C220.272 185.704 220.056 185.218 219.66 184.882C219.276 184.534 218.748 184.36 218.076 184.36C217.368 184.36 216.804 184.564 216.384 184.972C215.964 185.368 215.754 185.938 215.754 186.682V189.4C215.754 190.144 215.964 190.72 216.384 191.128C216.804 191.536 217.368 191.74 218.076 191.74C218.748 191.74 219.276 191.566 219.66 191.218C220.056 190.87 220.272 190.384 220.308 189.76H221.928C221.892 190.816 221.526 191.65 220.83 192.262C220.134 192.874 219.216 193.18 218.076 193.18ZM227.932 193.18C226.888 193.18 226.066 192.916 225.466 192.388C224.866 191.848 224.566 191.122 224.566 190.21C224.566 189.286 224.866 188.56 225.466 188.032C226.066 187.504 226.876 187.24 227.896 187.24H230.956V186.25C230.956 185.638 230.77 185.17 230.398 184.846C230.038 184.51 229.522 184.342 228.85 184.342C228.262 184.342 227.77 184.468 227.374 184.72C226.978 184.96 226.75 185.29 226.69 185.71H225.07C225.178 184.858 225.58 184.18 226.276 183.676C226.972 183.172 227.842 182.92 228.886 182.92C230.026 182.92 230.926 183.214 231.586 183.802C232.246 184.39 232.576 185.188 232.576 186.196V193H230.992V191.11H230.722L230.992 190.84C230.992 191.56 230.71 192.13 230.146 192.55C229.594 192.97 228.856 193.18 227.932 193.18ZM228.328 191.902C229.096 191.902 229.726 191.71 230.218 191.326C230.71 190.942 230.956 190.45 230.956 189.85V188.446H227.932C227.392 188.446 226.966 188.596 226.654 188.896C226.342 189.196 226.186 189.604 226.186 190.12C226.186 190.672 226.372 191.11 226.744 191.434C227.128 191.746 227.656 191.902 228.328 191.902ZM235.845 196.24V183.1H237.465V184.99H237.789L237.465 185.368C237.465 184.612 237.711 184.018 238.203 183.586C238.707 183.142 239.367 182.92 240.183 182.92C241.179 182.92 241.971 183.25 242.559 183.91C243.159 184.558 243.459 185.452 243.459 186.592V189.49C243.459 190.246 243.321 190.9 243.045 191.452C242.781 192.004 242.403 192.43 241.911 192.73C241.431 193.03 240.855 193.18 240.183 193.18C239.379 193.18 238.725 192.958 238.221 192.514C237.717 192.07 237.465 191.476 237.465 190.732L237.789 191.11H237.429L237.465 193.36V196.24H235.845ZM239.643 191.776C240.327 191.776 240.861 191.572 241.245 191.164C241.641 190.756 241.839 190.168 241.839 189.4V186.7C241.839 185.932 241.641 185.344 241.245 184.936C240.861 184.528 240.327 184.324 239.643 184.324C238.983 184.324 238.455 184.534 238.059 184.954C237.663 185.374 237.465 185.956 237.465 186.7V189.4C237.465 190.144 237.663 190.726 238.059 191.146C238.455 191.566 238.983 191.776 239.643 191.776ZM201.814 217.18C201.358 217.18 200.992 217.048 200.716 216.784C200.452 216.52 200.32 216.166 200.32 215.722C200.32 215.254 200.452 214.882 200.716 214.606C200.992 214.33 201.358 214.192 201.814 214.192C202.27 214.192 202.63 214.33 202.894 214.606C203.17 214.882 203.308 215.254 203.308 215.722C203.308 216.166 203.17 216.52 202.894 216.784C202.63 217.048 202.27 217.18 201.814 217.18ZM212.031 217.18C211.047 217.18 210.249 216.85 209.637 216.19C209.037 215.53 208.737 214.636 208.737 213.508V210.61C208.737 209.47 209.037 208.57 209.637 207.91C210.237 207.25 211.035 206.92 212.031 206.92C212.847 206.92 213.501 207.142 213.993 207.586C214.485 208.03 214.731 208.624 214.731 209.368L214.407 208.99H214.767L214.731 206.74V203.86H216.351V217H214.731V215.11H214.407L214.731 214.732C214.731 215.488 214.485 216.088 213.993 216.532C213.501 216.964 212.847 217.18 212.031 217.18ZM212.571 215.776C213.243 215.776 213.771 215.566 214.155 215.146C214.539 214.726 214.731 214.144 214.731 213.4V210.7C214.731 209.956 214.539 209.374 214.155 208.954C213.771 208.534 213.243 208.324 212.571 208.324C211.887 208.324 211.347 208.528 210.951 208.936C210.555 209.344 210.357 209.932 210.357 210.7V213.4C210.357 214.168 210.555 214.756 210.951 215.164C211.347 215.572 211.887 215.776 212.571 215.776ZM223.976 217.18C223.16 217.18 222.506 216.964 222.014 216.532C221.522 216.088 221.276 215.488 221.276 214.732L221.6 215.11H221.276V217H219.656V203.86H221.276V206.74L221.24 208.99H221.6L221.276 209.368C221.276 208.624 221.522 208.03 222.014 207.586C222.518 207.142 223.172 206.92 223.976 206.92C224.972 206.92 225.77 207.25 226.37 207.91C226.97 208.57 227.27 209.47 227.27 210.61V213.508C227.27 214.636 226.97 215.53 226.37 216.19C225.77 216.85 224.972 217.18 223.976 217.18ZM223.436 215.776C224.12 215.776 224.66 215.572 225.056 215.164C225.452 214.756 225.65 214.168 225.65 213.4V210.7C225.65 209.932 225.452 209.344 225.056 208.936C224.66 208.528 224.12 208.324 223.436 208.324C222.776 208.324 222.248 208.534 221.852 208.954C221.468 209.374 221.276 209.956 221.276 210.7V213.4C221.276 214.144 221.468 214.726 221.852 215.146C222.248 215.566 222.776 215.776 223.436 215.776ZM233.995 217.18C233.203 217.18 232.507 217.024 231.907 216.712C231.319 216.388 230.863 215.944 230.539 215.38C230.215 214.816 230.053 214.156 230.053 213.4H231.673C231.673 214.132 231.877 214.708 232.285 215.128C232.705 215.536 233.281 215.74 234.013 215.74C234.757 215.74 235.333 215.524 235.741 215.092C236.149 214.66 236.353 214.096 236.353 213.4V212.464C236.353 211.72 236.149 211.144 235.741 210.736C235.333 210.328 234.757 210.124 234.013 210.124H232.663V208.504L235.921 205.336H230.593V203.86H237.559V205.48L234.049 208.882V208.684C235.249 208.684 236.203 209.026 236.911 209.71C237.619 210.394 237.973 211.312 237.973 212.464V213.4C237.973 214.156 237.805 214.816 237.469 215.38C237.145 215.944 236.683 216.388 236.083 216.712C235.483 217.024 234.787 217.18 233.995 217.18ZM201.814 241.18C201.358 241.18 200.992 241.048 200.716 240.784C200.452 240.52 200.32 240.166 200.32 239.722C200.32 239.254 200.452 238.882 200.716 238.606C200.992 238.33 201.358 238.192 201.814 238.192C202.27 238.192 202.63 238.33 202.894 238.606C203.17 238.882 203.308 239.254 203.308 239.722C203.308 240.166 203.17 240.52 202.894 240.784C202.63 241.048 202.27 241.18 201.814 241.18ZM213.183 241.18C212.367 241.18 211.713 240.964 211.221 240.532C210.729 240.088 210.483 239.488 210.483 238.732L210.807 239.11H210.483V241H208.863V227.86H210.483V230.74L210.447 232.99H210.807L210.483 233.368C210.483 232.624 210.729 232.03 211.221 231.586C211.725 231.142 212.379 230.92 213.183 230.92C214.179 230.92 214.977 231.25 215.577 231.91C216.177 232.57 216.477 233.47 216.477 234.61V237.508C216.477 238.636 216.177 239.53 215.577 240.19C214.977 240.85 214.179 241.18 213.183 241.18ZM212.643 239.776C213.327 239.776 213.867 239.572 214.263 239.164C214.659 238.756 214.857 238.168 214.857 237.4V234.7C214.857 233.932 214.659 233.344 214.263 232.936C213.867 232.528 213.327 232.324 212.643 232.324C211.983 232.324 211.455 232.534 211.059 232.954C210.675 233.374 210.483 233.956 210.483 234.7V237.4C210.483 238.144 210.675 238.726 211.059 239.146C211.455 239.566 211.983 239.776 212.643 239.776ZM222.536 241.18C221.492 241.18 220.67 240.916 220.07 240.388C219.47 239.848 219.17 239.122 219.17 238.21C219.17 237.286 219.47 236.56 220.07 236.032C220.67 235.504 221.48 235.24 222.5 235.24H225.56V234.25C225.56 233.638 225.374 233.17 225.002 232.846C224.642 232.51 224.126 232.342 223.454 232.342C222.866 232.342 222.374 232.468 221.978 232.72C221.582 232.96 221.354 233.29 221.294 233.71H219.674C219.782 232.858 220.184 232.18 220.88 231.676C221.576 231.172 222.446 230.92 223.49 230.92C224.63 230.92 225.53 231.214 226.19 231.802C226.85 232.39 227.18 233.188 227.18 234.196V241H225.596V239.11H225.326L225.596 238.84C225.596 239.56 225.314 240.13 224.75 240.55C224.198 240.97 223.46 241.18 222.536 241.18ZM222.932 239.902C223.7 239.902 224.33 239.71 224.822 239.326C225.314 238.942 225.56 238.45 225.56 237.85V236.446H222.536C221.996 236.446 221.57 236.596 221.258 236.896C220.946 237.196 220.79 237.604 220.79 238.12C220.79 238.672 220.976 239.11 221.348 239.434C221.732 239.746 222.26 239.902 222.932 239.902ZM231.691 244.24V242.764H234.841C235.345 242.764 235.711 242.65 235.939 242.422C236.179 242.194 236.299 241.84 236.299 241.36V240.1L236.335 238.3H236.011L236.317 238.03C236.317 238.75 236.077 239.32 235.597 239.74C235.117 240.16 234.475 240.37 233.671 240.37C232.651 240.37 231.847 240.04 231.259 239.38C230.671 238.708 230.377 237.808 230.377 236.68V234.592C230.377 233.464 230.671 232.57 231.259 231.91C231.847 231.25 232.651 230.92 233.671 230.92C234.475 230.92 235.117 231.13 235.597 231.55C236.077 231.97 236.317 232.54 236.317 233.26L236.011 232.99H236.317V231.1H237.919V241.36C237.919 242.248 237.643 242.95 237.091 243.466C236.551 243.982 235.795 244.24 234.823 244.24H231.691ZM234.157 238.966C234.829 238.966 235.357 238.756 235.741 238.336C236.125 237.916 236.317 237.334 236.317 236.59V234.7C236.317 233.956 236.125 233.374 235.741 232.954C235.357 232.534 234.829 232.324 234.157 232.324C233.473 232.324 232.939 232.528 232.555 232.936C232.183 233.344 231.997 233.932 231.997 234.7V236.59C231.997 237.358 232.183 237.946 232.555 238.354C232.939 238.762 233.473 238.966 234.157 238.966Z" fill="#898989"/>
<path d="M202.612 90V75.4H204.412V88.36H211.012V90H202.612ZM218.004 90.16C217.124 90.16 216.357 89.9867 215.704 89.64C215.064 89.2933 214.564 88.7933 214.204 88.14C213.857 87.4733 213.684 86.68 213.684 85.76V83.24C213.684 82.3067 213.857 81.5133 214.204 80.86C214.564 80.2067 215.064 79.7067 215.704 79.36C216.357 79.0133 217.124 78.84 218.004 78.84C218.897 78.84 219.664 79.0133 220.304 79.36C220.944 79.7067 221.437 80.2067 221.784 80.86C222.144 81.5133 222.324 82.3067 222.324 83.24V85.76C222.324 86.68 222.144 87.4733 221.784 88.14C221.437 88.7933 220.937 89.2933 220.284 89.64C219.644 89.9867 218.884 90.16 218.004 90.16ZM218.004 88.56C218.791 88.56 219.404 88.34 219.844 87.9C220.297 87.46 220.524 86.8133 220.524 85.96V83.04C220.524 82.1867 220.297 81.54 219.844 81.1C219.404 80.66 218.791 80.44 218.004 80.44C217.231 80.44 216.617 80.66 216.164 81.1C215.711 81.54 215.484 82.1867 215.484 83.04V85.96C215.484 86.8133 215.711 87.46 216.164 87.9C216.617 88.34 217.231 88.56 218.004 88.56ZM227.216 93.6V91.96H230.316C230.943 91.96 231.436 91.78 231.796 91.42C232.156 91.0733 232.336 90.6 232.336 90V89L232.376 87.2H232.016L232.356 86.7C232.356 87.5 232.089 88.1267 231.556 88.58C231.023 89.02 230.309 89.24 229.416 89.24C228.283 89.24 227.389 88.88 226.736 88.16C226.083 87.44 225.756 86.4533 225.756 85.2V82.88C225.756 81.6267 226.083 80.6333 226.736 79.9C227.389 79.1667 228.283 78.8 229.416 78.8C230.309 78.8 231.023 79.0333 231.556 79.5C232.089 79.9667 232.356 80.6 232.356 81.4L232.016 80.9H232.356V79H234.136V90C234.136 91.1067 233.789 91.98 233.096 92.62C232.416 93.2733 231.483 93.6 230.296 93.6H227.216ZM229.956 87.74C230.703 87.74 231.289 87.5067 231.716 87.04C232.143 86.5733 232.356 85.9267 232.356 85.1V83C232.356 82.1733 232.143 81.5267 231.716 81.06C231.289 80.5933 230.703 80.36 229.956 80.36C229.196 80.36 228.603 80.58 228.176 81.02C227.763 81.46 227.556 82.0533 227.556 82.8V85.3C227.556 86.0467 227.763 86.64 228.176 87.08C228.603 87.52 229.196 87.74 229.956 87.74Z" fill="white"/>
<path d="M361.786 171.17C361.038 171.17 360.386 171.028 359.831 170.745C359.287 170.462 358.862 170.054 358.556 169.521C358.261 168.977 358.114 168.337 358.114 167.6V161.99C358.114 161.242 358.261 160.602 358.556 160.069C358.862 159.536 359.287 159.128 359.831 158.845C360.386 158.562 361.038 158.42 361.786 158.42C362.534 158.42 363.18 158.567 363.724 158.862C364.268 159.145 364.687 159.553 364.982 160.086C365.276 160.619 365.424 161.253 365.424 161.99H363.894C363.894 161.287 363.707 160.749 363.333 160.375C362.97 159.99 362.454 159.797 361.786 159.797C361.117 159.797 360.59 159.99 360.205 160.375C359.831 160.749 359.644 161.287 359.644 161.99V167.6C359.644 168.303 359.831 168.847 360.205 169.232C360.59 169.606 361.117 169.793 361.786 169.793C362.454 169.793 362.97 169.606 363.333 169.232C363.707 168.847 363.894 168.303 363.894 167.6H365.424C365.424 168.325 365.276 168.96 364.982 169.504C364.687 170.037 364.268 170.45 363.724 170.745C363.18 171.028 362.534 171.17 361.786 171.17ZM371.843 171.136C371.095 171.136 370.443 170.989 369.888 170.694C369.344 170.399 368.919 169.974 368.613 169.419C368.318 168.852 368.171 168.178 368.171 167.396V165.254C368.171 164.461 368.318 163.786 368.613 163.231C368.919 162.676 369.344 162.251 369.888 161.956C370.443 161.661 371.095 161.514 371.843 161.514C372.602 161.514 373.254 161.661 373.798 161.956C374.342 162.251 374.761 162.676 375.056 163.231C375.362 163.786 375.515 164.461 375.515 165.254V167.396C375.515 168.178 375.362 168.852 375.056 169.419C374.761 169.974 374.336 170.399 373.781 170.694C373.237 170.989 372.591 171.136 371.843 171.136ZM371.843 169.776C372.512 169.776 373.033 169.589 373.407 169.215C373.792 168.841 373.985 168.291 373.985 167.566V165.084C373.985 164.359 373.792 163.809 373.407 163.435C373.033 163.061 372.512 162.874 371.843 162.874C371.186 162.874 370.664 163.061 370.279 163.435C369.894 163.809 369.701 164.359 369.701 165.084V167.566C369.701 168.291 369.894 168.841 370.279 169.215C370.664 169.589 371.186 169.776 371.843 169.776ZM378.501 171V161.65H380.031V163.435H380.354L380.031 163.792C380.031 163.055 380.252 162.489 380.694 162.092C381.136 161.684 381.748 161.48 382.53 161.48C383.47 161.48 384.218 161.769 384.774 162.347C385.329 162.925 385.607 163.713 385.607 164.71V171H384.077V164.982C384.077 164.268 383.895 163.724 383.533 163.35C383.181 162.965 382.7 162.772 382.088 162.772C381.453 162.772 380.949 162.97 380.575 163.367C380.212 163.764 380.031 164.325 380.031 165.05V171H378.501ZM391.227 171L388.048 161.65H389.697L391.737 167.94C391.862 168.314 391.969 168.677 392.06 169.028C392.151 169.368 392.219 169.634 392.264 169.827C392.321 169.634 392.389 169.368 392.468 169.028C392.547 168.677 392.644 168.314 392.757 167.94L394.797 161.65H396.412L393.233 171H391.227ZM402.423 171.17C401.687 171.17 401.041 171.023 400.485 170.728C399.941 170.422 399.516 169.991 399.21 169.436C398.904 168.869 398.751 168.201 398.751 167.43V165.22C398.751 164.438 398.904 163.769 399.21 163.214C399.516 162.659 399.941 162.234 400.485 161.939C401.041 161.633 401.687 161.48 402.423 161.48C403.16 161.48 403.8 161.627 404.344 161.922C404.9 162.217 405.33 162.63 405.636 163.163C405.942 163.696 406.095 164.325 406.095 165.05V166.716H400.247V167.6C400.247 168.291 400.446 168.841 400.842 169.249C401.239 169.646 401.766 169.844 402.423 169.844C402.99 169.844 403.455 169.736 403.817 169.521C404.191 169.294 404.418 168.994 404.497 168.62H406.027C405.925 169.402 405.546 170.025 404.888 170.49C404.231 170.943 403.409 171.17 402.423 171.17ZM404.599 165.679V165.05C404.599 164.313 404.407 163.747 404.021 163.35C403.647 162.942 403.115 162.738 402.423 162.738C401.732 162.738 401.194 162.942 400.808 163.35C400.434 163.747 400.247 164.313 400.247 165.05V165.526H404.718L404.599 165.679ZM409.421 171V161.65H410.951V163.435H411.274L410.951 163.843C410.951 163.118 411.172 162.545 411.614 162.126C412.067 161.695 412.69 161.48 413.484 161.48C414.458 161.48 415.206 161.775 415.728 162.364C416.26 162.942 416.527 163.769 416.527 164.846V165.645H414.997V164.846C414.997 164.155 414.827 163.645 414.487 163.316C414.147 162.976 413.654 162.806 413.008 162.806C412.339 162.806 411.829 162.999 411.478 163.384C411.126 163.769 410.951 164.325 410.951 165.05V171H409.421ZM423.745 171C422.974 171 422.357 170.779 421.892 170.337C421.427 169.884 421.195 169.283 421.195 168.535V163.044H418.509V161.65H421.195V159.015H422.725V161.65H426.55V163.044H422.725V168.535C422.725 168.852 422.816 169.113 422.997 169.317C423.19 169.51 423.439 169.606 423.745 169.606H426.465V171H423.745ZM432.629 171.136C431.938 171.136 431.343 171.034 430.844 170.83C430.357 170.615 429.983 170.309 429.722 169.912C429.473 169.504 429.348 169.011 429.348 168.433H430.878C430.878 168.864 431.031 169.204 431.337 169.453C431.643 169.691 432.074 169.81 432.629 169.81H433.377C433.944 169.81 434.38 169.685 434.686 169.436C435.004 169.187 435.162 168.835 435.162 168.382C435.162 167.974 435.072 167.657 434.89 167.43C434.709 167.203 434.431 167.067 434.057 167.022L431.473 166.648C430.839 166.557 430.346 166.297 429.994 165.866C429.643 165.424 429.467 164.846 429.467 164.132C429.467 163.316 429.745 162.676 430.3 162.211C430.867 161.746 431.643 161.514 432.629 161.514H433.377C434.284 161.514 435.021 161.741 435.587 162.194C436.165 162.636 436.477 163.22 436.522 163.945H434.975C434.953 163.616 434.794 163.344 434.499 163.129C434.216 162.914 433.842 162.806 433.377 162.806H432.629C432.108 162.806 431.7 162.925 431.405 163.163C431.111 163.401 430.963 163.724 430.963 164.132C430.963 164.449 431.037 164.704 431.184 164.897C431.343 165.09 431.57 165.209 431.864 165.254L434.278 165.594C435.072 165.707 435.667 165.996 436.063 166.461C436.46 166.926 436.658 167.566 436.658 168.382C436.658 169.255 436.369 169.935 435.791 170.422C435.225 170.898 434.42 171.136 433.377 171.136H432.629ZM453.526 171.17C452.778 171.17 452.121 171.028 451.554 170.745C450.999 170.462 450.562 170.054 450.245 169.521C449.939 168.977 449.786 168.337 449.786 167.6V165.05C449.786 164.302 449.939 163.662 450.245 163.129C450.562 162.596 450.999 162.188 451.554 161.905C452.121 161.622 452.778 161.48 453.526 161.48C454.603 161.48 455.47 161.769 456.127 162.347C456.796 162.925 457.147 163.713 457.181 164.71H455.651C455.617 164.109 455.413 163.65 455.039 163.333C454.665 163.004 454.161 162.84 453.526 162.84C452.857 162.84 452.319 163.033 451.911 163.418C451.514 163.792 451.316 164.33 451.316 165.033V167.6C451.316 168.303 451.514 168.847 451.911 169.232C452.319 169.617 452.857 169.81 453.526 169.81C454.161 169.81 454.665 169.646 455.039 169.317C455.413 168.988 455.617 168.529 455.651 167.94H457.181C457.147 168.937 456.796 169.725 456.127 170.303C455.47 170.881 454.603 171.17 453.526 171.17ZM463.566 171.17C462.49 171.17 461.628 170.853 460.982 170.218C460.336 169.572 460.013 168.699 460.013 167.6V161.65H461.543V167.6C461.543 168.28 461.725 168.824 462.087 169.232C462.45 169.629 462.943 169.827 463.566 169.827C464.201 169.827 464.7 169.629 465.062 169.232C465.436 168.824 465.623 168.28 465.623 167.6V161.65H467.153V167.6C467.153 168.699 466.825 169.572 466.167 170.218C465.51 170.853 464.643 171.17 463.566 171.17ZM473.403 171.136C472.711 171.136 472.116 171.034 471.618 170.83C471.13 170.615 470.756 170.309 470.496 169.912C470.246 169.504 470.122 169.011 470.122 168.433H471.652C471.652 168.864 471.805 169.204 472.111 169.453C472.417 169.691 472.847 169.81 473.403 169.81H474.151C474.717 169.81 475.154 169.685 475.46 169.436C475.777 169.187 475.936 168.835 475.936 168.382C475.936 167.974 475.845 167.657 475.664 167.43C475.482 167.203 475.205 167.067 474.831 167.022L472.247 166.648C471.612 166.557 471.119 166.297 470.768 165.866C470.416 165.424 470.241 164.846 470.241 164.132C470.241 163.316 470.518 162.676 471.074 162.211C471.64 161.746 472.417 161.514 473.403 161.514H474.151C475.057 161.514 475.794 161.741 476.361 162.194C476.939 162.636 477.25 163.22 477.296 163.945H475.749C475.726 163.616 475.567 163.344 475.273 163.129C474.989 162.914 474.615 162.806 474.151 162.806H473.403C472.881 162.806 472.473 162.925 472.179 163.163C471.884 163.401 471.737 163.724 471.737 164.132C471.737 164.449 471.81 164.704 471.958 164.897C472.116 165.09 472.343 165.209 472.638 165.254L475.052 165.594C475.845 165.707 476.44 165.996 476.837 166.461C477.233 166.926 477.432 167.566 477.432 168.382C477.432 169.255 477.143 169.935 476.565 170.422C475.998 170.898 475.193 171.136 474.151 171.136H473.403ZM484.905 171C484.134 171 483.517 170.779 483.052 170.337C482.587 169.884 482.355 169.283 482.355 168.535V163.044H479.669V161.65H482.355V159.015H483.885V161.65H487.71V163.044H483.885V168.535C483.885 168.852 483.976 169.113 484.157 169.317C484.35 169.51 484.599 169.606 484.905 169.606H487.625V171H484.905ZM494.163 171.136C493.415 171.136 492.764 170.989 492.208 170.694C491.664 170.399 491.239 169.974 490.933 169.419C490.639 168.852 490.491 168.178 490.491 167.396V165.254C490.491 164.461 490.639 163.786 490.933 163.231C491.239 162.676 491.664 162.251 492.208 161.956C492.764 161.661 493.415 161.514 494.163 161.514C494.923 161.514 495.574 161.661 496.118 161.956C496.662 162.251 497.082 162.676 497.376 163.231C497.682 163.786 497.835 164.461 497.835 165.254V167.396C497.835 168.178 497.682 168.852 497.376 169.419C497.082 169.974 496.657 170.399 496.101 170.694C495.557 170.989 494.911 171.136 494.163 171.136ZM494.163 169.776C494.832 169.776 495.353 169.589 495.727 169.215C496.113 168.841 496.305 168.291 496.305 167.566V165.084C496.305 164.359 496.113 163.809 495.727 163.435C495.353 163.061 494.832 162.874 494.163 162.874C493.506 162.874 492.985 163.061 492.599 163.435C492.214 163.809 492.021 164.359 492.021 165.084V167.566C492.021 168.291 492.214 168.841 492.599 169.215C492.985 169.589 493.506 169.776 494.163 169.776ZM500.277 171V161.65H501.603V162.891H501.943L501.62 163.18C501.62 162.681 501.762 162.273 502.045 161.956C502.34 161.639 502.725 161.48 503.201 161.48C503.745 161.48 504.176 161.684 504.493 162.092C504.81 162.5 504.969 163.033 504.969 163.69L504.51 162.806H505.224L504.833 163.18C504.844 162.659 504.997 162.245 505.292 161.939C505.587 161.633 505.978 161.48 506.465 161.48C507.066 161.48 507.542 161.707 507.893 162.16C508.256 162.602 508.437 163.18 508.437 163.894V171H507.009V163.877C507.009 163.503 506.918 163.208 506.737 162.993C506.556 162.766 506.306 162.653 505.989 162.653C505.683 162.653 505.439 162.761 505.258 162.976C505.077 163.191 504.986 163.486 504.986 163.86V171H503.728V163.877C503.728 163.503 503.637 163.208 503.456 162.993C503.275 162.766 503.031 162.653 502.725 162.653C502.408 162.653 502.158 162.761 501.977 162.976C501.796 163.191 501.705 163.486 501.705 163.86V171H500.277ZM393.165 193C392.394 193 391.777 192.779 391.312 192.337C390.847 191.884 390.615 191.283 390.615 190.535V185.044H387.929V183.65H390.615V181.015H392.145V183.65H395.97V185.044H392.145V190.535C392.145 190.852 392.236 191.113 392.417 191.317C392.61 191.51 392.859 191.606 393.165 191.606H395.885V193H393.165ZM400.349 196.06L401.726 192.422L398.241 183.65H399.89L402.1 189.43C402.191 189.657 402.276 189.895 402.355 190.144C402.435 190.393 402.491 190.609 402.525 190.79C402.559 190.609 402.616 190.393 402.695 190.144C402.775 189.895 402.854 189.657 402.933 189.43L404.99 183.65H406.605L401.947 196.06H400.349ZM409.081 196.06V183.65H410.611V185.435H410.917L410.611 185.792C410.611 185.078 410.843 184.517 411.308 184.109C411.772 183.69 412.39 183.48 413.161 183.48C413.784 183.48 414.322 183.622 414.776 183.905C415.24 184.177 415.597 184.574 415.847 185.095C416.107 185.616 416.238 186.234 416.238 186.948V189.685C416.238 190.399 416.113 191.017 415.864 191.538C415.614 192.059 415.257 192.462 414.793 192.745C414.339 193.028 413.795 193.17 413.161 193.17C412.401 193.17 411.784 192.96 411.308 192.541C410.843 192.122 410.611 191.561 410.611 190.858L410.917 191.215H410.577L410.611 193.34V196.06H409.081ZM412.651 191.844C413.297 191.844 413.801 191.674 414.164 191.334C414.526 190.994 414.708 190.444 414.708 189.685V186.965C414.708 186.194 414.526 185.645 414.164 185.316C413.801 184.976 413.297 184.806 412.651 184.806C412.027 184.806 411.529 185.004 411.155 185.401C410.792 185.798 410.611 186.347 410.611 187.05V189.6C410.611 190.303 410.792 190.852 411.155 191.249C411.529 191.646 412.027 191.844 412.651 191.844ZM422.81 193.17C422.073 193.17 421.427 193.023 420.872 192.728C420.328 192.422 419.903 191.991 419.597 191.436C419.291 190.869 419.138 190.201 419.138 189.43V187.22C419.138 186.438 419.291 185.769 419.597 185.214C419.903 184.659 420.328 184.234 420.872 183.939C421.427 183.633 422.073 183.48 422.81 183.48C423.547 183.48 424.187 183.627 424.731 183.922C425.286 184.217 425.717 184.63 426.023 185.163C426.329 185.696 426.482 186.325 426.482 187.05V188.716H420.634V189.6C420.634 190.291 420.832 190.841 421.229 191.249C421.626 191.646 422.153 191.844 422.81 191.844C423.377 191.844 423.841 191.736 424.204 191.521C424.578 191.294 424.805 190.994 424.884 190.62H426.414C426.312 191.402 425.932 192.025 425.275 192.49C424.618 192.943 423.796 193.17 422.81 193.17ZM424.986 187.679V187.05C424.986 186.313 424.793 185.747 424.408 185.35C424.034 184.942 423.501 184.738 422.81 184.738C422.119 184.738 421.58 184.942 421.195 185.35C420.821 185.747 420.634 186.313 420.634 187.05V187.526H425.105L424.986 187.679ZM432.629 193.136C431.938 193.136 431.343 193.034 430.844 192.83C430.357 192.615 429.983 192.309 429.722 191.912C429.473 191.504 429.348 191.011 429.348 190.433H430.878C430.878 190.864 431.031 191.204 431.337 191.453C431.643 191.691 432.074 191.81 432.629 191.81H433.377C433.944 191.81 434.38 191.685 434.686 191.436C435.004 191.187 435.162 190.835 435.162 190.382C435.162 189.974 435.072 189.657 434.89 189.43C434.709 189.203 434.431 189.067 434.057 189.022L431.473 188.648C430.839 188.557 430.346 188.297 429.994 187.866C429.643 187.424 429.467 186.846 429.467 186.132C429.467 185.316 429.745 184.676 430.3 184.211C430.867 183.746 431.643 183.514 432.629 183.514H433.377C434.284 183.514 435.021 183.741 435.587 184.194C436.165 184.636 436.477 185.22 436.522 185.945H434.975C434.953 185.616 434.794 185.344 434.499 185.129C434.216 184.914 433.842 184.806 433.377 184.806H432.629C432.108 184.806 431.7 184.925 431.405 185.163C431.111 185.401 430.963 185.724 430.963 186.132C430.963 186.449 431.037 186.704 431.184 186.897C431.343 187.09 431.57 187.209 431.864 187.254L434.278 187.594C435.072 187.707 435.667 187.996 436.063 188.461C436.46 188.926 436.658 189.566 436.658 190.382C436.658 191.255 436.369 191.935 435.791 192.422C435.225 192.898 434.42 193.136 433.377 193.136H432.629ZM454.325 193C453.554 193 452.937 192.779 452.472 192.337C452.007 191.884 451.775 191.283 451.775 190.535V185.044H449.089V183.65H451.775V181.015H453.305V183.65H457.13V185.044H453.305V190.535C453.305 190.852 453.396 191.113 453.577 191.317C453.77 191.51 454.019 191.606 454.325 191.606H457.045V193H454.325ZM463.583 193.136C462.835 193.136 462.184 192.989 461.628 192.694C461.084 192.399 460.659 191.974 460.353 191.419C460.059 190.852 459.911 190.178 459.911 189.396V187.254C459.911 186.461 460.059 185.786 460.353 185.231C460.659 184.676 461.084 184.251 461.628 183.956C462.184 183.661 462.835 183.514 463.583 183.514C464.343 183.514 464.994 183.661 465.538 183.956C466.082 184.251 466.502 184.676 466.796 185.231C467.102 185.786 467.255 186.461 467.255 187.254V189.396C467.255 190.178 467.102 190.852 466.796 191.419C466.502 191.974 466.077 192.399 465.521 192.694C464.977 192.989 464.331 193.136 463.583 193.136ZM463.583 191.776C464.252 191.776 464.773 191.589 465.147 191.215C465.533 190.841 465.725 190.291 465.725 189.566V187.084C465.725 186.359 465.533 185.809 465.147 185.435C464.773 185.061 464.252 184.874 463.583 184.874C462.926 184.874 462.405 185.061 462.019 185.435C461.634 185.809 461.441 186.359 461.441 187.084V189.566C461.441 190.291 461.634 190.841 462.019 191.215C462.405 191.589 462.926 191.776 463.583 191.776ZM352.677 215V202.59H354.938L356.519 207.962L358.168 202.59H360.429V215H358.95V209.135C358.95 208.58 358.956 207.945 358.967 207.231C358.99 206.506 359.018 205.775 359.052 205.038C359.086 204.301 359.126 203.638 359.171 203.049L357.165 209.458H355.839L353.918 203.202C353.986 203.757 354.037 204.352 354.071 204.987C354.105 205.622 354.128 206.285 354.139 206.976C354.15 207.667 354.156 208.387 354.156 209.135V215H352.677ZM366.746 215.136C365.998 215.136 365.347 214.989 364.791 214.694C364.247 214.399 363.822 213.974 363.516 213.419C363.222 212.852 363.074 212.178 363.074 211.396V209.254C363.074 208.461 363.222 207.786 363.516 207.231C363.822 206.676 364.247 206.251 364.791 205.956C365.347 205.661 365.998 205.514 366.746 205.514C367.506 205.514 368.157 205.661 368.701 205.956C369.245 206.251 369.665 206.676 369.959 207.231C370.265 207.786 370.418 208.461 370.418 209.254V211.396C370.418 212.178 370.265 212.852 369.959 213.419C369.665 213.974 369.24 214.399 368.684 214.694C368.14 214.989 367.494 215.136 366.746 215.136ZM366.746 213.776C367.415 213.776 367.936 213.589 368.31 213.215C368.696 212.841 368.888 212.291 368.888 211.566V209.084C368.888 208.359 368.696 207.809 368.31 207.435C367.936 207.061 367.415 206.874 366.746 206.874C366.089 206.874 365.568 207.061 365.182 207.435C364.797 207.809 364.604 208.359 364.604 209.084V211.566C364.604 212.291 364.797 212.841 365.182 213.215C365.568 213.589 366.089 213.776 366.746 213.776ZM376.566 215.136C375.875 215.136 375.28 215.034 374.781 214.83C374.294 214.615 373.92 214.309 373.659 213.912C373.41 213.504 373.285 213.011 373.285 212.433H374.815C374.815 212.864 374.968 213.204 375.274 213.453C375.58 213.691 376.011 213.81 376.566 213.81H377.314C377.881 213.81 378.317 213.685 378.623 213.436C378.94 213.187 379.099 212.835 379.099 212.382C379.099 211.974 379.008 211.657 378.827 211.43C378.646 211.203 378.368 211.067 377.994 211.022L375.41 210.648C374.775 210.557 374.282 210.297 373.931 209.866C373.58 209.424 373.404 208.846 373.404 208.132C373.404 207.316 373.682 206.676 374.237 206.211C374.804 205.746 375.58 205.514 376.566 205.514H377.314C378.221 205.514 378.957 205.741 379.524 206.194C380.102 206.636 380.414 207.22 380.459 207.945H378.912C378.889 207.616 378.731 207.344 378.436 207.129C378.153 206.914 377.779 206.806 377.314 206.806H376.566C376.045 206.806 375.637 206.925 375.342 207.163C375.047 207.401 374.9 207.724 374.9 208.132C374.9 208.449 374.974 208.704 375.121 208.897C375.28 209.09 375.506 209.209 375.801 209.254L378.215 209.594C379.008 209.707 379.603 209.996 380 210.461C380.397 210.926 380.595 211.566 380.595 212.382C380.595 213.255 380.306 213.935 379.728 214.422C379.161 214.898 378.357 215.136 377.314 215.136H376.566ZM386.317 215.17C385.354 215.17 384.589 214.904 384.022 214.371C383.456 213.827 383.172 213.119 383.172 212.246C383.172 211.668 383.303 211.164 383.563 210.733C383.824 210.302 384.187 209.968 384.651 209.73C385.116 209.481 385.649 209.356 386.249 209.356H389.139V208.625C389.139 208.013 388.975 207.56 388.646 207.265C388.318 206.959 387.819 206.806 387.15 206.806C386.561 206.806 386.085 206.914 385.722 207.129C385.36 207.344 385.167 207.645 385.144 208.03H383.614C383.671 207.293 384.011 206.687 384.634 206.211C385.269 205.724 386.108 205.48 387.15 205.48C388.284 205.48 389.151 205.752 389.751 206.296C390.363 206.84 390.669 207.599 390.669 208.574V215H389.156V213.3H388.901L389.139 212.96C389.139 213.413 389.026 213.804 388.799 214.133C388.573 214.462 388.25 214.717 387.83 214.898C387.411 215.079 386.907 215.17 386.317 215.17ZM386.691 213.878C387.439 213.878 388.034 213.697 388.476 213.334C388.918 212.971 389.139 212.478 389.139 211.855V210.546H386.419C385.921 210.546 385.513 210.699 385.195 211.005C384.889 211.3 384.736 211.696 384.736 212.195C384.736 212.716 384.906 213.13 385.246 213.436C385.598 213.731 386.079 213.878 386.691 213.878ZM393.672 215V213.606H396.987V207.044H394.012V205.65H398.517V213.606H401.662V215H393.672ZM397.582 203.967C397.208 203.967 396.913 203.871 396.698 203.678C396.482 203.485 396.375 203.225 396.375 202.896C396.375 202.556 396.482 202.29 396.698 202.097C396.913 201.893 397.208 201.791 397.582 201.791C397.956 201.791 398.25 201.893 398.466 202.097C398.681 202.29 398.789 202.556 398.789 202.896C398.789 203.225 398.681 203.485 398.466 203.678C398.25 203.871 397.956 203.967 397.582 203.967ZM407.656 215.17C406.908 215.17 406.251 215.028 405.684 214.745C405.129 214.462 404.692 214.054 404.375 213.521C404.069 212.977 403.916 212.337 403.916 211.6V209.05C403.916 208.302 404.069 207.662 404.375 207.129C404.692 206.596 405.129 206.188 405.684 205.905C406.251 205.622 406.908 205.48 407.656 205.48C408.733 205.48 409.6 205.769 410.257 206.347C410.926 206.925 411.277 207.713 411.311 208.71H409.781C409.747 208.109 409.543 207.65 409.169 207.333C408.795 207.004 408.291 206.84 407.656 206.84C406.987 206.84 406.449 207.033 406.041 207.418C405.644 207.792 405.446 208.33 405.446 209.033V211.6C405.446 212.303 405.644 212.847 406.041 213.232C406.449 213.617 406.987 213.81 407.656 213.81C408.291 213.81 408.795 213.646 409.169 213.317C409.543 212.988 409.747 212.529 409.781 211.94H411.311C411.277 212.937 410.926 213.725 410.257 214.303C409.6 214.881 408.733 215.17 407.656 215.17ZM417.713 215.136C416.965 215.136 416.314 214.989 415.758 214.694C415.214 214.399 414.789 213.974 414.483 213.419C414.189 212.852 414.041 212.178 414.041 211.396V209.254C414.041 208.461 414.189 207.786 414.483 207.231C414.789 206.676 415.214 206.251 415.758 205.956C416.314 205.661 416.965 205.514 417.713 205.514C418.473 205.514 419.124 205.661 419.668 205.956C420.212 206.251 420.632 206.676 420.926 207.231C421.232 207.786 421.385 208.461 421.385 209.254V211.396C421.385 212.178 421.232 212.852 420.926 213.419C420.632 213.974 420.207 214.399 419.651 214.694C419.107 214.989 418.461 215.136 417.713 215.136ZM417.713 213.776C418.382 213.776 418.903 213.589 419.277 213.215C419.663 212.841 419.855 212.291 419.855 211.566V209.084C419.855 208.359 419.663 207.809 419.277 207.435C418.903 207.061 418.382 206.874 417.713 206.874C417.056 206.874 416.535 207.061 416.149 207.435C415.764 207.809 415.571 208.359 415.571 209.084V211.566C415.571 212.291 415.764 212.841 416.149 213.215C416.535 213.589 417.056 213.776 417.713 213.776ZM438.1 215.17C436.989 215.17 436.111 214.847 435.465 214.201C434.819 213.555 434.496 212.631 434.496 211.43V206.16C434.496 204.959 434.819 204.035 435.465 203.389C436.111 202.743 436.989 202.42 438.1 202.42C439.211 202.42 440.089 202.743 440.735 203.389C441.381 204.035 441.704 204.953 441.704 206.143V211.43C441.704 212.631 441.381 213.555 440.735 214.201C440.089 214.847 439.211 215.17 438.1 215.17ZM438.1 213.793C438.769 213.793 439.279 213.606 439.63 213.232C439.993 212.847 440.174 212.303 440.174 211.6V205.99C440.174 205.287 439.993 204.749 439.63 204.375C439.279 203.99 438.769 203.797 438.1 203.797C437.443 203.797 436.933 203.99 436.57 204.375C436.207 204.749 436.026 205.287 436.026 205.99V211.6C436.026 212.303 436.207 212.847 436.57 213.232C436.933 213.606 437.443 213.793 438.1 213.793ZM444.757 215V205.65H446.287V207.435H446.61L446.287 207.792C446.287 207.055 446.508 206.489 446.95 206.092C447.392 205.684 448.004 205.48 448.786 205.48C449.727 205.48 450.475 205.769 451.03 206.347C451.586 206.925 451.863 207.713 451.863 208.71V215H450.333V208.982C450.333 208.268 450.152 207.724 449.789 207.35C449.438 206.965 448.956 206.772 448.344 206.772C447.71 206.772 447.205 206.97 446.831 207.367C446.469 207.764 446.287 208.325 446.287 209.05V215H444.757ZM459.422 215C458.651 215 458.033 214.779 457.569 214.337C457.104 213.884 456.872 213.283 456.872 212.535V207.044H454.186V205.65H456.872V203.015H458.402V205.65H462.227V207.044H458.402V212.535C458.402 212.852 458.492 213.113 458.674 213.317C458.866 213.51 459.116 213.606 459.422 213.606H462.142V215H459.422ZM468.68 215.136C467.932 215.136 467.28 214.989 466.725 214.694C466.181 214.399 465.756 213.974 465.45 213.419C465.155 212.852 465.008 212.178 465.008 211.396V209.254C465.008 208.461 465.155 207.786 465.45 207.231C465.756 206.676 466.181 206.251 466.725 205.956C467.28 205.661 467.932 205.514 468.68 205.514C469.439 205.514 470.091 205.661 470.635 205.956C471.179 206.251 471.598 206.676 471.893 207.231C472.199 207.786 472.352 208.461 472.352 209.254V211.396C472.352 212.178 472.199 212.852 471.893 213.419C471.598 213.974 471.173 214.399 470.618 214.694C470.074 214.989 469.428 215.136 468.68 215.136ZM468.68 213.776C469.349 213.776 469.87 213.589 470.244 213.215C470.629 212.841 470.822 212.291 470.822 211.566V209.084C470.822 208.359 470.629 207.809 470.244 207.435C469.87 207.061 469.349 206.874 468.68 206.874C468.023 206.874 467.501 207.061 467.116 207.435C466.731 207.809 466.538 208.359 466.538 209.084V211.566C466.538 212.291 466.731 212.841 467.116 213.215C467.501 213.589 468.023 213.776 468.68 213.776ZM480.233 215C479.689 215 479.213 214.892 478.805 214.677C478.397 214.462 478.08 214.156 477.853 213.759C477.627 213.362 477.513 212.898 477.513 212.365V203.984H474.283V202.59H479.043V212.365C479.043 212.75 479.151 213.056 479.366 213.283C479.582 213.498 479.871 213.606 480.233 213.606H483.123V215H480.233ZM489.067 215.136C488.319 215.136 487.667 214.989 487.112 214.694C486.568 214.399 486.143 213.974 485.837 213.419C485.542 212.852 485.395 212.178 485.395 211.396V209.254C485.395 208.461 485.542 207.786 485.837 207.231C486.143 206.676 486.568 206.251 487.112 205.956C487.667 205.661 488.319 205.514 489.067 205.514C489.826 205.514 490.478 205.661 491.022 205.956C491.566 206.251 491.985 206.676 492.28 207.231C492.586 207.786 492.739 208.461 492.739 209.254V211.396C492.739 212.178 492.586 212.852 492.28 213.419C491.985 213.974 491.56 214.399 491.005 214.694C490.461 214.989 489.815 215.136 489.067 215.136ZM489.067 213.776C489.735 213.776 490.257 213.589 490.631 213.215C491.016 212.841 491.209 212.291 491.209 211.566V209.084C491.209 208.359 491.016 207.809 490.631 207.435C490.257 207.061 489.735 206.874 489.067 206.874C488.409 206.874 487.888 207.061 487.503 207.435C487.117 207.809 486.925 208.359 486.925 209.084V211.566C486.925 212.291 487.117 212.841 487.503 213.215C487.888 213.589 488.409 213.776 489.067 213.776ZM496.897 218.06V216.666H499.532C500.065 216.666 500.484 216.513 500.79 216.207C501.096 215.912 501.249 215.51 501.249 215V214.15L501.283 212.62H500.977L501.266 212.195C501.266 212.875 501.039 213.408 500.586 213.793C500.133 214.167 499.526 214.354 498.767 214.354C497.804 214.354 497.044 214.048 496.489 213.436C495.934 212.824 495.656 211.985 495.656 210.92V208.948C495.656 207.883 495.934 207.038 496.489 206.415C497.044 205.792 497.804 205.48 498.767 205.48C499.526 205.48 500.133 205.678 500.586 206.075C501.039 206.472 501.266 207.01 501.266 207.69L500.977 207.265H501.266V205.65H502.779V215C502.779 215.941 502.484 216.683 501.895 217.227C501.317 217.782 500.524 218.06 499.515 218.06H496.897ZM499.226 213.079C499.861 213.079 500.359 212.881 500.722 212.484C501.085 212.087 501.266 211.538 501.266 210.835V209.05C501.266 208.347 501.085 207.798 500.722 207.401C500.359 207.004 499.861 206.806 499.226 206.806C498.58 206.806 498.076 206.993 497.713 207.367C497.362 207.741 497.186 208.245 497.186 208.88V211.005C497.186 211.64 497.362 212.144 497.713 212.518C498.076 212.892 498.58 213.079 499.226 213.079ZM507.38 218.06L508.757 214.422L505.272 205.65H506.921L509.131 211.43C509.221 211.657 509.306 211.895 509.386 212.144C509.465 212.393 509.522 212.609 509.556 212.79C509.59 212.609 509.646 212.393 509.726 212.144C509.805 211.895 509.884 211.657 509.964 211.43L512.021 205.65H513.636L508.978 218.06H507.38Z" fill="#898989"/>
<path fill-rule="evenodd" clip-rule="evenodd" d="M389 75.2642L404.869 66.1021C405.371 65.8121 406 66.1745 406 66.7544V99.6343C406 100.214 405.372 100.577 404.869 100.287L376.396 83.8472L389 91.1236L401.604 83.8472C402.107 83.557 402.107 82.8316 401.604 82.5415L389 75.2642Z" fill="white"/>
<path fill-rule="evenodd" clip-rule="evenodd" d="M372 66.7544C372 66.1745 372.629 65.8121 373.131 66.1021L401.604 82.5415C401.824 82.6684 401.948 82.8787 401.976 83.0991V83.1001C401.964 83.0054 401.934 82.9128 401.887 82.8277C401.855 82.7711 401.817 82.7176 401.77 82.6695C401.746 82.6452 401.72 82.6225 401.692 82.6011C401.665 82.5798 401.636 82.5596 401.604 82.5415L389 75.2642L376.396 82.5415C375.893 82.8316 375.893 83.5571 376.396 83.8472L389 91.1236L401.604 83.8472C401.636 83.8292 401.665 83.8098 401.692 83.7886C401.665 83.8097 401.636 83.8292 401.604 83.8472L373.131 100.287C372.628 100.577 372 100.214 372 99.6343V66.7544Z" fill="white"/>
<path fill-rule="evenodd" clip-rule="evenodd" d="M652.526 55.1663C653.344 54.6939 654.367 55.2841 654.367 56.2288V109.771C654.367 110.716 653.344 111.306 652.526 110.833L606.157 84.0628C606.106 84.0333 606.058 84.0008 606.013 83.9661C606.058 84.0009 606.106 84.0332 606.158 84.0628L626.683 95.9134L647.21 84.0628C648.028 83.5903 648.028 82.4092 647.21 81.9368L626.683 70.0862L606.158 81.9368H606.157L652.526 55.1663Z" fill="white"/>
<path fill-rule="evenodd" clip-rule="evenodd" d="M599 56.229C599 55.2843 600.023 54.6943 600.841 55.1665L647.21 81.937L626.683 70.0864L606.157 81.937C605.339 82.4094 605.339 83.5906 606.157 84.063L626.683 95.9135L647.21 84.063L600.841 110.833C600.023 111.306 599 110.716 599 109.771V56.229Z" fill="white"/>
<path d="M421.319 78V76.3435H423.474V68.9553H421.319V67.2989H427.476V68.9553H425.321V76.3435H427.476V78H421.319ZM429.918 78V69.9375H431.707V71.4767H432.205L431.663 71.9018C431.673 71.2568 431.878 70.7437 432.279 70.3626C432.679 69.9815 433.212 69.7909 433.876 69.7909C434.668 69.7909 435.298 70.0548 435.767 70.5825C436.246 71.1102 436.486 71.8187 436.486 72.7081V78H434.653V72.928C434.653 72.4295 434.526 72.0484 434.272 71.7845C434.018 71.5109 433.666 71.3741 433.217 71.3741C432.757 71.3741 432.396 71.5109 432.132 71.7845C431.878 72.0582 431.751 72.4491 431.751 72.9573V78H429.918ZM439.808 80.6386V79.1141H442.08C442.51 79.1141 442.842 78.9968 443.077 78.7623C443.311 78.5375 443.428 78.2297 443.428 77.8387V77.355L443.458 75.7278H443.062L443.634 75.0242C443.634 75.7962 443.424 76.407 443.003 76.8566C442.583 77.2964 442.021 77.5162 441.318 77.5162C440.497 77.5162 439.842 77.2426 439.353 76.6953C438.874 76.1383 438.635 75.3858 438.635 74.4378V72.8693C438.635 71.9311 438.874 71.1835 439.353 70.6265C439.842 70.0694 440.497 69.7909 441.318 69.7909C442.021 69.7909 442.583 70.0157 443.003 70.4652C443.424 70.9148 443.634 71.5256 443.634 72.2976L443.062 71.3301H443.458V69.9375H445.246V77.8827C445.246 78.733 444.963 79.4024 444.396 79.891C443.839 80.3894 443.077 80.6386 442.109 80.6386H439.808ZM441.933 75.9477C442.402 75.9477 442.764 75.8109 443.018 75.5373C443.282 75.2539 443.414 74.863 443.414 74.3645V72.9573C443.414 72.4589 443.282 72.0728 443.018 71.7992C442.764 71.5158 442.402 71.3741 441.933 71.3741C441.464 71.3741 441.103 71.5109 440.848 71.7845C440.594 72.0484 440.467 72.4198 440.467 72.8986V74.4232C440.467 74.902 440.594 75.2783 440.848 75.5519C441.103 75.8158 441.464 75.9477 441.933 75.9477ZM450.782 78.1466C450.097 78.1466 449.501 78.0147 448.993 77.7508C448.485 77.4869 448.089 77.1156 447.806 76.6367C447.532 76.1481 447.395 75.5764 447.395 74.9216V73.0159C447.395 72.3611 447.532 71.7943 447.806 71.3155C448.089 70.8268 448.485 70.4506 448.993 70.1867C449.501 69.9228 450.097 69.7909 450.782 69.7909C451.456 69.7909 452.042 69.9228 452.541 70.1867C453.049 70.4506 453.44 70.8219 453.713 71.3008C453.997 71.7699 454.139 72.322 454.139 72.9573V74.4232H449.154V74.9802C449.154 75.5275 449.296 75.9428 449.58 76.2262C449.863 76.4999 450.264 76.6367 450.782 76.6367C451.163 76.6367 451.485 76.5732 451.749 76.4461C452.023 76.3093 452.184 76.1139 452.233 75.8598H454.051C453.924 76.5536 453.562 77.1107 452.966 77.5309C452.37 77.9414 451.642 78.1466 450.782 78.1466ZM452.379 73.3824V72.9426C452.379 72.3856 452.243 71.9556 451.969 71.6526C451.705 71.3497 451.309 71.1982 450.782 71.1982C450.254 71.1982 449.848 71.3545 449.565 71.6673C449.291 71.9702 449.154 72.4002 449.154 72.9573V73.2358L452.511 73.2211L452.379 73.3824ZM459.219 78.1319C458.584 78.1319 458.032 78.0342 457.563 77.8387C457.104 77.6433 456.747 77.3648 456.493 77.0032C456.239 76.6416 456.112 76.2116 456.112 75.7132H457.915C457.915 76.0259 458.027 76.2653 458.252 76.4315C458.487 76.5976 458.809 76.6807 459.219 76.6807H459.864C460.304 76.6807 460.641 76.5976 460.876 76.4315C461.12 76.2556 461.242 76.0161 461.242 75.7132C461.242 75.42 461.159 75.2001 460.993 75.0535C460.827 74.9069 460.573 74.8141 460.231 74.775L458.223 74.5111C457.578 74.433 457.079 74.1837 456.727 73.7635C456.385 73.3433 456.214 72.8107 456.214 72.1657C456.214 71.4034 456.468 70.8219 456.977 70.4212C457.485 70.0108 458.218 69.8056 459.176 69.8056H459.85C460.749 69.8056 461.472 70.0108 462.019 70.4212C462.567 70.8317 462.85 71.379 462.87 72.0631H461.052C461.042 71.809 460.93 71.6086 460.715 71.462C460.5 71.3057 460.211 71.2275 459.85 71.2275H459.176C458.785 71.2275 458.487 71.3106 458.281 71.4767C458.076 71.6331 457.973 71.8481 457.973 72.1217C457.973 72.366 458.047 72.5468 458.193 72.6641C458.35 72.7716 458.574 72.8449 458.868 72.884L460.759 73.1478C461.501 73.2456 462.058 73.5143 462.43 73.9541C462.811 74.3841 463.002 74.9607 463.002 75.6839C463.002 76.4657 462.733 77.0716 462.195 77.5016C461.668 77.9218 460.891 78.1319 459.864 78.1319H459.219ZM469.153 78C468.4 78 467.799 77.785 467.35 77.355C466.91 76.9152 466.69 76.324 466.69 75.5812V71.594H464.462V69.9375H466.69V67.6653H468.537V69.9375H471.747V71.594H468.537V75.5373C468.537 75.7718 468.6 75.9673 468.728 76.1236C468.864 76.2702 469.05 76.3435 469.285 76.3435H471.674V78H469.153ZM473.852 78V76.3435H476.608V71.594H474.146V69.9375H478.441V76.3435H480.918V78H473.852ZM477.4 68.5889C477.029 68.5889 476.735 68.496 476.52 68.3103C476.305 68.1149 476.198 67.8559 476.198 67.5334C476.198 67.2109 476.305 66.9568 476.52 66.7711C476.735 66.5757 477.029 66.478 477.4 66.478C477.771 66.478 478.065 66.5757 478.28 66.7711C478.495 66.9568 478.602 67.2109 478.602 67.5334C478.602 67.8559 478.495 68.1149 478.28 68.3103C478.065 68.496 477.771 68.5889 477.4 68.5889ZM485.926 78.1319C485.242 78.1319 484.646 78 484.137 77.7361C483.629 77.4723 483.238 77.1009 482.965 76.622C482.691 76.1334 482.554 75.5617 482.554 74.9069V73.0306C482.554 72.366 482.691 71.7943 482.965 71.3155C483.238 70.8366 483.629 70.4652 484.137 70.2014C484.646 69.9375 485.242 69.8056 485.926 69.8056C486.62 69.8056 487.216 69.9375 487.714 70.2014C488.222 70.4652 488.613 70.8366 488.887 71.3155C489.161 71.7943 489.297 72.366 489.297 73.0306V74.9069C489.297 75.5617 489.161 76.1334 488.887 76.622C488.613 77.1009 488.222 77.4723 487.714 77.7361C487.216 78 486.62 78.1319 485.926 78.1319ZM485.926 76.5341C486.414 76.5341 486.791 76.4022 487.055 76.1383C487.328 75.8647 487.465 75.4737 487.465 74.9656V72.9719C487.465 72.454 487.328 72.0631 487.055 71.7992C486.791 71.5353 486.414 71.4034 485.926 71.4034C485.447 71.4034 485.071 71.5353 484.797 71.7992C484.523 72.0631 484.387 72.454 484.387 72.9719V74.9656C484.387 75.4737 484.523 75.8647 484.797 76.1383C485.071 76.4022 485.447 76.5341 485.926 76.5341ZM491.447 78V69.9375H493.235V71.4767H493.733L493.191 71.9018C493.201 71.2568 493.406 70.7437 493.807 70.3626C494.207 69.9815 494.74 69.7909 495.405 69.7909C496.196 69.7909 496.826 70.0548 497.296 70.5825C497.774 71.1102 498.014 71.8187 498.014 72.7081V78H496.181V72.928C496.181 72.4295 496.054 72.0484 495.8 71.7845C495.546 71.5109 495.194 71.3741 494.745 71.3741C494.286 71.3741 493.924 71.5109 493.66 71.7845C493.406 72.0582 493.279 72.4491 493.279 72.9573V78H491.447ZM424.442 97.1466C423.719 97.1466 423.083 97.0195 422.536 96.7655C421.999 96.5114 421.578 96.1449 421.275 95.666C420.982 95.1872 420.836 94.6252 420.836 93.9802H422.639C422.639 94.4591 422.8 94.8402 423.122 95.1236C423.455 95.407 423.894 95.5487 424.442 95.5487C424.969 95.5487 425.385 95.407 425.688 95.1236C426 94.8402 426.157 94.4689 426.157 94.0095C426.157 93.6577 426.059 93.345 425.864 93.0714C425.668 92.7977 425.38 92.6169 424.999 92.529L423.562 92.1625C422.79 91.967 422.179 91.6006 421.73 91.0631C421.28 90.5256 421.055 89.8855 421.055 89.1427C421.055 88.5368 421.187 88.0091 421.451 87.5595C421.725 87.11 422.106 86.7631 422.595 86.5187C423.093 86.2744 423.675 86.1523 424.339 86.1523C425.013 86.1523 425.6 86.2744 426.098 86.5187C426.597 86.7631 426.983 87.11 427.256 87.5595C427.54 87.9993 427.681 88.5173 427.681 89.1134H425.893C425.893 88.6932 425.751 88.3609 425.468 88.1166C425.184 87.8625 424.808 87.7355 424.339 87.7355C423.88 87.7355 423.513 87.8625 423.24 88.1166C422.976 88.3609 422.844 88.6834 422.844 89.0841C422.844 89.4164 422.937 89.69 423.122 89.905C423.318 90.12 423.587 90.2764 423.929 90.3741L425.409 90.7406C426.201 90.936 426.821 91.3269 427.271 91.9133C427.73 92.4997 427.96 93.1984 427.96 94.0095C427.96 94.6448 427.813 95.1969 427.52 95.666C427.237 96.1351 426.831 96.5016 426.303 96.7655C425.776 97.0195 425.155 97.1466 424.442 97.1466ZM433.319 97.1466C432.626 97.1466 432.02 97.0195 431.502 96.7655C430.993 96.5016 430.598 96.1351 430.314 95.666C430.031 95.1872 429.889 94.6252 429.889 93.9802V91.9573C429.889 91.3025 430.031 90.7406 430.314 90.2715C430.598 89.8024 430.993 89.4408 431.502 89.1867C432.02 88.9228 432.626 88.7909 433.319 88.7909C434.326 88.7909 435.132 89.0548 435.738 89.5825C436.344 90.1005 436.667 90.809 436.706 91.7081H434.903C434.873 91.2878 434.717 90.9653 434.433 90.7406C434.15 90.506 433.779 90.3887 433.319 90.3887C432.821 90.3887 432.43 90.5256 432.147 90.7992C431.863 91.0631 431.722 91.4442 431.722 91.9426V93.9802C431.722 94.4786 431.863 94.8647 432.147 95.1383C432.43 95.4119 432.821 95.5487 433.319 95.5487C433.779 95.5487 434.15 95.4364 434.433 95.2116C434.717 94.977 434.873 94.6497 434.903 94.2294H436.706C436.667 95.1285 436.344 95.8419 435.738 96.3697C435.132 96.8876 434.326 97.1466 433.319 97.1466ZM439.001 97V88.9375H440.79V90.5647H441.288L440.746 91.0044C440.746 90.3203 440.946 89.7828 441.347 89.3919C441.757 88.9912 442.314 88.7909 443.018 88.7909C443.839 88.7909 444.479 89.0548 444.938 89.5825C445.398 90.1102 445.627 90.8481 445.627 91.796V92.5583H443.795V91.884C443.795 91.3856 443.668 91.0093 443.414 90.7552C443.16 90.5011 442.798 90.3741 442.329 90.3741C441.85 90.3741 441.479 90.5207 441.215 90.8139C440.961 91.107 440.834 91.5224 440.834 92.0599V97H439.001ZM447.483 97V95.3435H450.239V90.594H447.776V88.9375H452.072V95.3435H454.549V97H447.483ZM451.031 87.5889C450.659 87.5889 450.366 87.496 450.151 87.3103C449.936 87.1149 449.829 86.8559 449.829 86.5334C449.829 86.2109 449.936 85.9568 450.151 85.7711C450.366 85.5757 450.659 85.478 451.031 85.478C451.402 85.478 451.695 85.5757 451.91 85.7711C452.125 85.9568 452.233 86.2109 452.233 86.5334C452.233 86.8559 452.125 87.1149 451.91 87.3103C451.695 87.496 451.402 87.5889 451.031 87.5889ZM456.288 99.6386V88.9375H458.076V90.5647H458.487L457.959 91.3269C457.959 90.5451 458.169 89.9294 458.589 89.4799C459.009 89.0206 459.576 88.7909 460.29 88.7909C460.808 88.7909 461.262 88.9228 461.653 89.1867C462.054 89.4408 462.361 89.7975 462.576 90.2568C462.801 90.7161 462.914 91.2536 462.914 91.8693V94.0535C462.914 94.6692 462.801 95.2116 462.576 95.6807C462.361 96.14 462.058 96.5016 461.668 96.7655C461.277 97.0195 460.817 97.1466 460.29 97.1466C459.576 97.1466 459.009 96.9169 458.589 96.4576C458.169 95.9983 457.959 95.3826 457.959 94.6106L458.487 95.3875H458.061L458.12 97.3811V99.6386H456.288ZM459.601 95.5634C460.07 95.5634 460.431 95.4364 460.685 95.1823C460.949 94.9184 461.081 94.5275 461.081 94.0095V91.928C461.081 91.4002 460.949 91.0093 460.685 90.7552C460.431 90.5011 460.07 90.3741 459.601 90.3741C459.132 90.3741 458.765 90.5158 458.501 90.7992C458.247 91.0826 458.12 91.4833 458.12 92.0012V93.9362C458.12 94.4542 458.247 94.8549 458.501 95.1383C458.765 95.4217 459.132 95.5634 459.601 95.5634ZM469.153 97C468.4 97 467.799 96.785 467.35 96.355C466.91 95.9152 466.69 95.324 466.69 94.5812V90.594H464.462V88.9375H466.69V86.6653H468.537V88.9375H471.747V90.594H468.537V94.5373C468.537 94.7718 468.6 94.9673 468.728 95.1236C468.864 95.2702 469.05 95.3435 469.285 95.3435H471.674V97H469.153Z" fill="white"/>
<path d="M178 83.5L168 77.7265V89.2735L178 83.5ZM342.5 83.5L332.5 77.7265V89.2735L342.5 83.5ZM108 83.5V84.5H169V83.5V82.5H108V83.5ZM259 83.5V84.5H333.5V83.5V82.5H259V83.5Z" fill="white"/>
<path d="M594.5 83.5L584.5 77.7265V89.2735L594.5 83.5ZM520.5 83.5V84.5H585.5V83.5V82.5H520.5V83.5Z" fill="white"/>
<defs>
<linearGradient id="paint0_linear_433_3" x1="333" y1="91" x2="528.263" y2="91" gradientUnits="userSpaceOnUse">
<stop stop-color="#1A99C3"/>
<stop offset="1" stop-color="#BD38B4"/>
</linearGradient>
</defs>
</svg>
