<svg width="2201" height="443" viewBox="0 0 2201 443" fill="none" xmlns="http://www.w3.org/2000/svg">
<path d="M919.36 318H868.36V228.92C868.36 214.867 865.527 204.893 859.86 199C854.193 193.107 843.993 190.16 829.26 190.16C813.847 190.16 803.307 193.447 797.64 200.02C792.2 206.593 789.48 217.247 789.48 231.98H783.02L778.94 200.02H788.8C790.16 190.273 793.107 181.207 797.64 172.82C802.4 164.433 809.313 157.633 818.38 152.42C827.673 146.98 839.573 144.26 854.08 144.26C868.813 144.26 880.94 147.207 890.46 153.1C900.207 158.993 907.46 167.04 912.22 177.24C916.98 187.44 919.36 199 919.36 211.92V318ZM659.6 318H608.6V147.66H655.86V200.7L659.6 202.4V318ZM789.48 318H738.48V228.92C738.48 214.867 735.647 204.893 729.98 199C724.313 193.107 714.113 190.16 699.38 190.16C683.74 190.16 673.2 193.447 667.76 200.02C662.32 206.593 659.6 217.247 659.6 231.98H653.14L649.4 199.34H658.58C660.167 189.82 663.227 180.98 667.76 172.82C672.293 164.433 678.98 157.633 687.82 152.42C696.66 146.98 708.22 144.26 722.5 144.26C737.233 144.26 749.247 147.32 758.54 153.44C768.06 159.56 775.087 167.72 779.62 177.92C784.153 188.12 786.42 199.453 786.42 211.92H789.48V318ZM1036.06 321.4C1016.79 321.4 999.793 317.773 985.06 310.52C970.553 303.267 959.22 293.067 951.06 279.92C942.9 266.547 938.82 250.907 938.82 233C938.82 214.867 942.9 199.227 951.06 186.08C959.22 172.707 970.553 162.393 985.06 155.14C999.793 147.887 1016.79 144.26 1036.06 144.26C1055.55 144.26 1072.55 147.887 1087.06 155.14C1101.57 162.393 1112.9 172.707 1121.06 186.08C1129.22 199.227 1133.3 214.867 1133.3 233C1133.3 250.907 1129.22 266.547 1121.06 279.92C1112.9 293.067 1101.57 303.267 1087.06 310.52C1072.55 317.773 1055.55 321.4 1036.06 321.4ZM1036.06 276.18C1053.29 276.18 1065.3 272.78 1072.1 265.98C1079.13 258.953 1082.64 247.96 1082.64 233C1082.64 217.813 1079.13 206.707 1072.1 199.68C1065.3 192.653 1053.29 189.14 1036.06 189.14C1018.83 189.14 1006.71 192.653 999.68 199.68C992.88 206.707 989.48 217.813 989.48 233C989.48 247.96 992.88 258.953 999.68 265.98C1006.71 272.78 1018.83 276.18 1036.06 276.18ZM1240.15 321.4C1211.59 321.4 1189.6 316.073 1174.19 305.42C1158.77 294.54 1151.07 279.24 1151.07 259.52V258.5H1202.07V261.56C1202.07 269.267 1204.79 274.48 1210.23 277.2C1215.89 279.693 1225.98 280.94 1240.49 280.94C1254.09 280.94 1263.04 279.807 1267.35 277.54C1271.88 275.047 1274.15 271.307 1274.15 266.32C1274.15 261.56 1272.45 258.273 1269.05 256.46C1265.65 254.42 1258.96 252.72 1248.99 251.36L1201.05 245.58C1184.05 243.767 1170.9 239.007 1161.61 231.3C1152.54 223.593 1148.01 212.487 1148.01 197.98C1148.01 188.007 1150.95 179.053 1156.85 171.12C1162.74 162.96 1171.81 156.5 1184.05 151.74C1196.51 146.753 1212.49 144.26 1231.99 144.26C1250.57 144.26 1266.33 146.64 1279.25 151.4C1292.39 155.933 1302.37 162.847 1309.17 172.14C1315.97 181.433 1319.37 192.993 1319.37 206.82V207.84H1268.37V205.8C1268.37 201.04 1267.35 197.187 1265.31 194.24C1263.49 191.067 1259.75 188.687 1254.09 187.1C1248.65 185.513 1240.71 184.72 1230.29 184.72C1217.59 184.72 1209.09 185.967 1204.79 188.46C1200.48 190.727 1198.33 194.58 1198.33 200.02C1198.33 204.327 1200.03 207.613 1203.43 209.88C1207.05 211.92 1214.42 213.733 1225.53 215.32L1261.91 219.74C1284.57 222.233 1300.67 227.447 1310.19 235.38C1319.71 243.313 1324.47 254.307 1324.47 268.36C1324.47 279.013 1321.07 288.307 1314.27 296.24C1307.47 304.173 1297.83 310.407 1285.37 314.94C1272.9 319.247 1257.83 321.4 1240.15 321.4ZM1711.41 321.4C1692.14 321.4 1675.26 317.773 1660.75 310.52C1646.24 303.267 1635.02 293.067 1627.09 279.92C1619.38 266.547 1615.53 250.907 1615.53 233C1615.53 214.867 1619.38 199.227 1627.09 186.08C1635.02 172.707 1646.24 162.393 1660.75 155.14C1675.26 147.887 1692.14 144.26 1711.41 144.26C1729.77 144.26 1745.86 147.32 1759.69 153.44C1773.52 159.56 1784.28 168.173 1791.99 179.28C1799.7 190.16 1803.55 202.967 1803.55 217.7V222.46H1752.89V219.74C1752.89 208.86 1749.15 201.267 1741.67 196.96C1734.19 192.427 1723.76 190.16 1710.39 190.16C1695.2 190.16 1683.98 193.333 1676.73 199.68C1669.7 206.027 1666.19 217.133 1666.19 233C1666.19 248.413 1669.7 259.407 1676.73 265.98C1683.98 272.327 1695.2 275.5 1710.39 275.5C1723.76 275.5 1734.19 273.347 1741.67 269.04C1749.15 264.507 1752.89 256.8 1752.89 245.92V243.2H1803.55V247.96C1803.55 262.693 1799.7 275.613 1791.99 286.72C1784.28 297.6 1773.52 306.1 1759.69 312.22C1745.86 318.34 1729.77 321.4 1711.41 321.4ZM1916.27 321.4C1897.01 321.4 1880.01 317.773 1865.27 310.52C1850.77 303.267 1839.43 293.067 1831.27 279.92C1823.11 266.547 1819.03 250.907 1819.03 233C1819.03 214.867 1823.11 199.227 1831.27 186.08C1839.43 172.707 1850.77 162.393 1865.27 155.14C1880.01 147.887 1897.01 144.26 1916.27 144.26C1935.77 144.26 1952.77 147.887 1967.27 155.14C1981.78 162.393 1993.11 172.707 2001.27 186.08C2009.43 199.227 2013.51 214.867 2013.51 233C2013.51 250.907 2009.43 266.547 2001.27 279.92C1993.11 293.067 1981.78 303.267 1967.27 310.52C1952.77 317.773 1935.77 321.4 1916.27 321.4ZM1916.27 276.18C1933.5 276.18 1945.51 272.78 1952.31 265.98C1959.34 258.953 1962.85 247.96 1962.85 233C1962.85 217.813 1959.34 206.707 1952.31 199.68C1945.51 192.653 1933.5 189.14 1916.27 189.14C1899.05 189.14 1886.92 192.653 1879.89 199.68C1873.09 206.707 1869.69 217.813 1869.69 233C1869.69 247.96 1873.09 258.953 1879.89 265.98C1886.92 272.78 1899.05 276.18 1916.27 276.18Z" fill="white"/>
<path d="M1517.09 318H1469.49V277.54L1466.77 276.86V217.36C1466.77 206.253 1463.93 198.773 1458.27 194.92C1452.83 191.067 1443.31 189.14 1429.71 189.14C1416.79 189.14 1407.49 191.067 1401.83 194.92C1396.16 198.773 1393.33 205.573 1393.33 215.32V216.68H1341.99V215.66C1341.99 201.607 1345.73 189.253 1353.21 178.6C1360.69 167.72 1371.23 159.333 1384.83 153.44C1398.65 147.32 1414.86 144.26 1433.45 144.26C1452.49 144.26 1468.13 147.32 1480.37 153.44C1492.83 159.56 1502.01 168.173 1507.91 179.28C1514.03 190.16 1517.09 203.08 1517.09 218.04V318ZM1397.41 321.4C1379.05 321.4 1364.65 317.32 1354.23 309.16C1343.8 301 1338.59 289.893 1338.59 275.84C1338.59 267.227 1340.63 259.86 1344.71 253.74C1348.79 247.62 1354.91 242.747 1363.07 239.12C1371.23 235.267 1381.43 232.66 1393.67 231.3L1470.17 223.48V252.72L1407.61 259.86C1401.49 260.313 1396.95 261.56 1394.01 263.6C1391.29 265.413 1389.93 268.36 1389.93 272.44C1389.93 276.973 1391.74 280.26 1395.37 282.3C1398.99 284.34 1404.55 285.36 1412.03 285.36C1424.27 285.36 1434.35 284.227 1442.29 281.96C1450.22 279.693 1456.23 276.067 1460.31 271.08C1464.61 265.867 1466.77 258.953 1466.77 250.34L1471.53 250V278.9H1466.77C1462.91 292.047 1455.09 302.473 1443.31 310.18C1431.75 317.66 1416.45 321.4 1397.41 321.4ZM1593.94 318H1542.94V147.66H1593.94V318ZM1593.94 130.32H1542.94V90.2H1593.94V130.32Z" fill="url(#paint0_linear_49_19)"/>
<path d="M438.752 213.716C445.419 217.565 445.419 227.187 438.752 231.036L195.188 371.658C188.521 375.507 180.188 370.696 180.188 362.998L180.188 81.7542C180.188 74.0562 188.521 69.245 195.188 73.094L438.752 213.716Z" fill="url(#paint1_linear_49_19)"/>
<path d="M224.248 231.036C217.581 227.187 217.581 217.565 224.248 213.716L467.812 73.0941C474.479 69.2451 482.812 74.0563 482.812 81.7543L482.812 362.998C482.812 370.696 474.479 375.507 467.812 371.658L224.248 231.036Z" fill="url(#paint2_radial_49_19)"/>
<path d="M438.752 213.716C445.419 217.565 445.419 227.187 438.752 231.036L331.499 292.958L224.248 231.036C217.581 227.187 217.581 217.565 224.248 213.716L331.499 151.794L438.752 213.716Z" fill="#BD38B4"/>
<defs>
<linearGradient id="paint0_linear_49_19" x1="1371" y1="221" x2="1601.5" y2="221" gradientUnits="userSpaceOnUse">
<stop stop-color="#1A99C3"/>
<stop offset="1" stop-color="#BD38B4"/>
</linearGradient>
<linearGradient id="paint1_linear_49_19" x1="199.227" y1="222.376" x2="397.636" y2="222.376" gradientUnits="userSpaceOnUse">
<stop stop-color="#F04B23"/>
<stop offset="1" stop-color="#BD38B4"/>
</linearGradient>
<radialGradient id="paint2_radial_49_19" cx="0" cy="0" r="1" gradientUnits="userSpaceOnUse" gradientTransform="translate(347 222) scale(136.5)">
<stop stop-color="#BD38B4"/>
<stop offset="1" stop-color="#1A99C3"/>
</radialGradient>
</defs>
</svg>
